<?xml version="1.0" encoding="UTF-8"?>
<svg id="Layer_2" data-name="Layer 2" xmlns="http://www.w3.org/2000/svg" viewBox="0 0 297.6 127.8">
  <defs>
    <style>
      .cls-1 {
        fill: #929497;
      }

      .cls-2 {
        fill: #7d00fd;
      }
    </style>
  </defs>
  <g id="Layer_1-2" data-name="Layer 1">
    <g>
      <path d="m148.8.01C198.17.01,247.54.02,296.91,0c.56,0,.69.13.69.69-.02,42.14-.02,84.28,0,126.42,0,.56-.13.69-.69.69-98.74-.01-197.48-.01-296.22,0-.56,0-.69-.13-.69-.69C.02,84.97.02,42.83,0,.69,0,.13.13,0,.69,0c49.37.02,98.74.01,148.11.01Zm26.05,30.41c.19,1.03.41,1.96.55,2.89.58,3.66-1.12,7.06-4.13,8.96-1.91,1.21-4.02,2.09-5.94,3.28-1.6.99-3.22,1.98-4.76,3.07-2.28,1.61-4.51,3.31-6.42,5.37-.8.86-1.6,1.72-2.2,2.74-.23.39-.44.79-.71,1.14-.29.39-.64.46-.99.04-.84-1.01-1.73-1.98-2.59-2.96-.98-1.12-2.04-2.16-3.15-3.1-1.08-.91-2.07-1.92-3.21-2.77-.59-.43-1.33-.61-1.83-1.13-1.28-1.34-3.18-1.81-4.41-3.21-1.07-.08-1.69-1.01-2.59-1.45-2.44-1.19-4.19-3.19-5.46-5.62-.89-1.71-.79-3.51-.76-5.32,0-.47.03-.95.04-1.42,0-.36-.15-.4-.4-.18-.15.13-.27.3-.38.46-1.22,1.76-2.22,3.61-2.33,5.8-.05.99-.64,1.96-.16,2.99.1.21-.08.41-.24.59-.84.94-1.04,1.99-.58,3.18.33.86.59,1.75.92,2.61.25.67.33,1.48.9,1.94,1.1.91,2.32,1.58,3.86,1.47,1.37-.1,2.76-.05,4.08.24,2.72.59,5.4,1.32,7.92,2.6,1.97,1,3.72,2.28,5.32,3.76,2.09,1.93,4.02,4.02,5.52,6.47.14.23.28.58.54.57.31-.01.28-.42.37-.66.66-1.65,1.49-3.21,2.65-4.57,2.49-2.94,5.66-4.9,9.26-6.1,3.77-1.26,7.6-2.35,11.63-2.47,1.8-.05,3.25-1.19,3.27-2.59.01-1.27.5-2.32,1.07-3.37.33-.6.25-1.14.03-1.78-.24-.68-.84-1.19-.77-2.02.06-.76.04-1.54-.03-2.31-.13-1.56-.84-2.93-1.29-4.38-.35-1.11-1.39-1.65-2.01-2.53-.08-.11-.31-.13-.6-.23Zm-45.81-5.06c0,1.11-.23,2.46.05,3.7.53,2.4,1.33,4.74,2.51,6.93.45.84,1.13,1.53,1.55,2.38.87,1.76,2.29,3.02,3.75,4.21,2.82,2.29,5.99,3.92,9.63,4.45,1.02.15,1.99.51,3.04.54,1.73.04,3.41-.24,5.12-.42,3.78-.41,6.9-2.25,9.83-4.45,1.75-1.31,3.23-2.92,4.44-4.79,1.06-1.64,1.95-3.34,2.6-5.17.62-1.75,1.01-3.53,1.16-5.41.17-2.16.18-4.32-.19-6.41-.62-3.47-1.97-6.75-4.23-9.45-1.38-1.65-2.89-3.31-4.82-4.45-1.2-.71-2.32-1.51-3.64-2.04-2.5-1.02-5.08-1.68-7.75-1.93-2.67-.25-5.26.35-7.83,1.06-2.74.76-5.15,2.14-7.4,3.86-.72.56-1.16,1.41-1.87,1.92-1.53,1.09-2.48,2.64-3.28,4.21-1.77,3.45-3.18,7.05-2.68,11.26Zm-8.25,36.16c2.54.57,4.73-.27,6.73-1.58,1.16-.76,2.2-1.74,3.13-2.77.81-.89,1.77-1.31,2.86-1.46,1.27-.17,2.5-.14,3.54.92,1.37,1.4,1.3,3,.84,4.66-.24.86-1.41,1.66-1.92,1.33-.9-.57-1.96-1.06-2.27-2.25-.09-.36-.24-.8.09-1.05.31-.23.71-.13,1.06.07.39.23.83.31,1.28.34.28.02.52-.17.34-.39-.56-.69-.83-1.65-1.89-1.9-1.61-.38-2.91.02-3.92,1.32-.24.3-.73.6-.55.98.17.34.62-.05.95-.04.02,0,.05,0,.07,0,.33,0,.57-.11.45.48-.22,1.05.05,2.12.11,3.19.01.17.12.27.24.35,1.01.63,1.98,1.34,3.3,1.09.41-.08.85.03,1.27-.03,1-.14,2-.26,2.8-1.04.96-.94,1.14-2.09,1.1-3.33,0-.22-.15-.55.14-.66.28-.11.43.19.61.34,1.67,1.43,3.05,3.17,4.94,4.36,1.29.81,2.43,1.85,3.93,2.34.78.26,1.47.19,2.16-.18,1.96-1.07,3.56-2.63,5.33-3.96.97-.73,1.9-1.51,2.93-2.17.42-.27.59-.07.64.23.1.65.45,1.2.64,1.81.47,1.49,1.62,2.29,3.18,2.29.5,0,1-.04,1.5,0,1.27.12,2.3-.44,3.1-1.31.85-.93.84-2.15.68-3.33-.04-.29-.16-.58-.01-.93.34.14.68.29,1.02.43.15.06.32.09.39-.07.04-.09.02-.27-.05-.34-.66-.73-1.26-1.53-2.37-1.7-.54-.08-1.09-.03-1.62-.13-1.5-.27-2.53.65-2.48,2.3.42-.19.81-.41,1.22-.56.6-.21,1.08-.08,1.33.58.42,1.12-.32,2.41-1.49,2.64-1.06.21-1.75-.4-2.27-1.14-.64-.9-.76-2.02-.28-2.98.45-.89,1.11-1.7,1.92-2.36.51-.42,1.14-.32,1.69-.54.97-.38,3,.02,3.69.75,1.56,1.63,3.15,3.23,4.92,4.63,1.35,1.06,2.94,1.03,4.52,1.05.03,0,.05-.07.1-.14-.44-.32-.99-.38-1.46-.62-2.43-1.21-4.14-3.15-5.58-5.39-.9-1.42-2.41-1.99-3.89-2.55-.07-.03-.15,0-.22-.01-2.48-.31-4.56.69-6.43,2.12-2.25,1.72-4.41,3.57-6.4,5.59-.39.4-.98.59-1.26,1.03-.91,1.4-2.27,2.34-3.39,3.52-.47.5-.82.38-1.26,0-1.22-1.04-2.5-2-3.48-3.3-.23-.31-.58-.54-.88-.79-.43-.36-.96-.61-1.31-1.04-1.26-1.55-2.84-2.78-4.24-4.19-.14-.14-.33-.23-.5-.33-1.15-.69-2.36-1.25-3.58-1.81-3.55-1.66-6.77-.66-9.12,2.28-.77.96-1.62,1.83-2.51,2.67-.48.46-1.06.8-1.53,1.29-.42.44-1.26.78-1.76.34-1.15-1.01-2.38-2.06-2.06-3.89.05-.3.06-.64.33-.78.3-.16.49.16.68.33.51.44,1.01.38,1.47-.05.47-.45.55-1.36.18-1.78-.79-.91-3.07-1.08-4.03-.34-1.35,1.04-1.57,2.54-1.61,4.07-.03.86,1.06,2.16,1.84,2.35.68.16,1.38.22,2.06.32.24.04.55-.06.68.21.15.31-.29.34-.36.58Zm144.67,4.49c-.34-.04-.69-.09-1.03-.12-2.71-.18-5.4-.51-8.11-.67-2.62-.16-5.24-.39-7.87-.45-1.56-.04-3.08-.51-4.64-.57-.29,0-.27-.25-.34-.42-.95-2.31-2.19-4.36-4.74-5.21-1.66-.55-3.32-1.14-5.1-.95-2.33.25-4.64.69-6.92,1.23-2.61.62-5.2,1.35-7.78,2.09-.82.24-1.68.27-2.45.54-2,.69-3.99,1.43-6.03,2.01-.68.19-1.41.25-2.09.44-1.36.39-2.65.84-4.14.48-1.23-.3-1.9-.8-1.89-2.08,0-.3.02-.6.01-.9,0-.31-.09-.41-.4-.2-.99.66-1.37,1.68-1.69,2.74-.05.18.04.35.16.48.4.43.8.86,1.22,1.27.83.81,1.97.65,2.97.89,3.06.73,6.09-.08,9.11-.36,2.29-.21,4.55-.87,6.75-1.52,2.3-.69,4.64-1.1,6.94-1.73,1.27-.35,2.57-.4,3.85-.59,1.25-.18,2.52-.27,3.79-.03,1.67.31,3.3.76,4.91,1.28.72.23,1.48.5,1.99,1.24-1.48.26-2.75.91-4.15,1.23,9.23.16,18.44.31,27.67-.11Zm-201.57.26v-.23c-1-.3-2.01-.6-3.01-.91-.35-.11-.94.17-1.02-.2-.08-.39.57-.52.82-.84.08-.1.18-.14.3-.18,1.96-.63,3.87-1.33,5.96-1.56,2.09-.23,4.05.26,6.07.45,1.05.1,1.99.48,3,.68.77.16,1.54.18,2.31.35,1.14.25,2.14.95,3.31,1.05,1.19.11,2.32.47,3.45.79,2.25.64,4.58.66,6.86,1.02,1.88.3,3.8.28,5.72-.21,1.22-.31,2.38-.57,3.26-1.53.13-.15.3-.25.34-.47.32-1.48-.65-3.06-2.24-3.56-.02.3.2.51.26.77.13.53.39,1.12-.04,1.57-1.01,1.05-2.26,1.53-3.74,1.29-1.47-.24-2.88-.76-4.32-1.11-2.56-.62-5.04-1.59-7.59-2.3-2.11-.59-4.22-1.23-6.35-1.7-2.18-.49-4.36-.99-6.57-1.36-2.15-.36-4.24-.68-6.36-.03-2.4.74-4.42,1.94-5.39,4.43-.18.46-.49.87-.73,1.3-.12.21-.29.34-.53.38-1.39.21-2.78.51-4.18.61-1.96.14-3.93.12-5.9.18-.1,0-.2,0-.3,0-3.11.32-6.2.83-9.33.93-.23,0-.5-.07-.7.25,8.91.29,17.78.16,26.64.15Zm52.78,33.18c-.44-.04-.88-.13-1.32-.11-1.55.05-3.1.02-4.65,0-13.81-.24-27.63,0-41.44-.46-4.49-.15-8.99-.13-13.49-.19-5.54-.08-11.09-.18-16.63,0-.32.01-.63.02-.96.09-.76.15-1.56-.09-2.3.24.41-.07.82.02,1.23.03,4.2.14,8.41.22,12.61.4,4.56.2,9.11.53,13.66.73,3.68.16,7.37.22,11.06.32,2.16.05,4.32.1,6.48.12,2.51.03,5,.55,7.51.46,1.15-.04,2.02.44,2.73,1.24.5.56,1.09.84,1.79,1,1.74.42,3.47.11,5.13-.34,1.28-.35,2.26-.18,3.24.64.66.55,1.49.73,2.31.6,1.85-.28,3.68-.69,5.42-1.34,2.6-.96,5.02-2.36,7.61-3.43Zm148.85-.4c-.25-.25-.46-.23-.65-.24-2.49-.13-4.98-.42-7.46-.34-8.76.29-17.52.02-26.28.53-4.14.24-8.29.09-12.44.12-11.17.09-22.34.13-33.5.2-.33,0-.68-.07-.97.17.08.25.28.22.44.28,1.1.4,2.19.83,3.25,1.33,1.54.73,3.1,1.47,4.7,2.04,1.08.39,2.23.72,3.36.88,1.47.2,3.06.46,4.28-.85.46-.49,1.1-.55,1.67-.38,1.08.31,2.16.47,3.28.6,1.95.23,3.69.12,5.07-1.5.35-.42.71-.86,1.42-.84,2.73.06,5.44-.11,8.16-.39,2.53-.27,5.08-.11,7.62-.23,4.82-.23,9.66-.07,14.48-.5,1.39-.12,2.8-.03,4.19-.14,5.88-.48,11.78-.46,17.67-.65.53-.02,1.08.09,1.7-.07Zm-72.38-41.57s.07.07.11.11c.06-.03.14-.06.19-.11,1.99-2.33,4.09-4.56,5.35-7.42.4-.9.75-1.81,1.08-2.74.4-1.15.67-2.32,1-3.48.58-2.02-.15-3.86-.71-5.74-.66-2.23-2.27-3.91-3.35-5.9-.06-.11-.23-.19-.36-.24-.23-.08-.37-.26-.49-.44-.66-.94-1.47-1.75-2.25-2.58-1.51-1.6-3.01-3.21-4.72-4.59-.44-.36-.59-.92-1.05-1.26-1.52-1.13-2.37-2.84-3.58-4.24-.82-.96-1.31-2.17-1.88-3.31-1.17-2.31-1.78-4.72-1.56-7.33.03-.32.11-.68-.09-.98-.27.05-.29.25-.36.4-.39.81-.79,1.61-1.15,2.44-.86,1.96-1.64,3.93-1.59,6.15.05,2.4,1.01,4.36,2.75,5.93,1.25,1.13,2.67,2.03,4.09,2.95,2.55,1.67,5.14,3.26,7.49,5.25,1.38,1.17,2.54,2.46,3.54,3.89,1.49,2.13,2.52,4.52,2.87,7.1.43,3.14.11,6.2-1.15,9.19-.72,1.71-1.58,3.29-2.64,4.79-.51.72-1.02,1.45-1.53,2.17Zm-85.04-.19c.18-.48-.1-.77-.32-1-.82-.86-1.27-1.97-1.94-2.92-1.49-2.11-2.12-4.52-2.67-6.97-.6-2.65-.05-5.2.75-7.71.71-2.23,2.01-4.14,3.36-6.03.96-1.34,2.23-2.32,3.47-3.31,1.39-1.11,2.93-2.05,4.42-3.04,1.86-1.25,3.79-2.41,5.6-3.74,1.63-1.19,2.68-2.79,2.94-4.79.22-1.75.11-3.52-.33-5.24-.4-1.55-1.37-2.88-1.85-4.4-.09-.27-.33-.48-.71-.68.48,2.81-.44,5.31-1.36,7.77-.42,1.13-1.11,2.17-1.78,3.18-.7,1.06-1.52,2.02-2.27,3.05-.35.49-.76.92-1.17,1.36-1.13,1.21-2.38,2.3-3.58,3.44-1.39,1.31-2.77,2.62-4.04,4.08-1.8,2.07-3.37,4.24-4.64,6.66-.71,1.34-.94,2.8-1.09,4.23-.23,2.13.22,4.25.97,6.26.75,2.02,1.73,3.92,2.97,5.73.99,1.45,2.22,2.66,3.3,4.07Zm73.22,10.02c.89-.18,1.77-.14,2.63-.22,2.37-.23,4.7-.65,6.98-1.28,1.24-.34,2.53-.66,3.58-1.46,1.04-.8,2.12-1.56,3.18-2.34,1.97-1.45,4.11-2.68,6.18-4,1.72-1.1,3.34-2.36,5.26-3.14,1.43-.58,2.87-1.21,4.45-1.18,2.33.05,4.32,1.06,6.21,2.34.36.25.71.91,1.01.74.44-.25.05-.87-.02-1.3-.29-1.78-.95-3.31-2.67-4.25-.98-.53-1.99-.9-3.07-1.04-1.53-.2-3.1-.4-4.6.1-1.91.64-3.63,1.74-5.26,2.87-2.52,1.74-4.89,3.71-7.07,5.89-1.16,1.16-2.64,1.95-3.82,3.08-1.13,1.09-2.56,1.7-3.87,2.41-1.14.62-2.5.95-3.81,1.29-2.35.61-4.74.52-7.13.48-.5,0-.98.24-1.47.09-2.07-.62-4.13-1.27-6.21-1.88-.54-.16-1.03-.91-1.56-.52-.43.31-.55,1.04-.87,1.54-.27.42-.16.56.29.6,1.79.16,3.53.64,5.32.81,2.13.2,4.25.37,6.35.38Zm-48.7-1.42c-.3-.56-.67-1.08-.88-1.65-.15-.42-.23-.47-.64-.27-1.98,1-4.15,1.53-6.27,2.09-2.29.61-4.71.2-7.07.29-1.21.05-2.47-.4-3.65-.88-1.44-.58-2.94-.98-4.31-1.78-.77-.46-1.6-.78-2.29-1.4-1.29-1.16-2.76-2.1-3.99-3.36-.62-.64-1.36-1.22-2-1.84-1.51-1.46-3.25-2.64-4.91-3.88-1.33-.99-2.77-1.91-4.35-2.57-.97-.41-1.93-.66-2.96-.66-.6,0-1.2.08-1.8.09-1.55.01-2.9.57-4.22,1.35-1.42.85-1.92,2.21-2.3,3.68-.13.48-.35.94-.35,1.45,0,.14,0,.32.17.37.13.04.25-.04.32-.14.7-1.01,1.79-1.53,2.83-2.03,1.38-.67,2.86-1.21,4.45-1.05,2.37.24,4.58,1.06,6.53,2.37,1.94,1.31,4.01,2.45,5.86,3.89.71.55,1.42,1.13,2.21,1.51,1.43.69,2.49,1.88,3.83,2.7,1.5.92,3.11,1.58,4.74,1.89,2.09.4,4.18.94,6.34,1.04,1.61.07,3.23.34,4.84.15,2.37-.29,4.79-.16,7.12-.8.88-.24,1.84-.07,2.71-.56Zm-18.75-2.31c-.17-.2-.25-.33-.35-.42-1.67-1.45-3.39-2.84-4.99-4.35-1.51-1.43-2.92-2.97-4.34-4.49-1.9-2.02-3.61-4.2-5.35-6.35-.45-.56-1.12-.85-1.54-1.41-.78-1.02-1.69-1.98-2.73-2.63-2.17-1.35-4.6-2.2-7.2-2.19-1.76,0-3.44.54-4.98,1.42-.69.39-1.43.74-1.89,1.43-.31.47-.73.81-1.11,1.2-.68.69-1.44,1.33-1.84,2.35.52-.07.78-.39,1.11-.57,1.62-.86,3.23-1.69,5.13-1.84,1.24-.1,2.47.03,3.7-.02,1.78-.07,3.33.58,4.68,1.48,1.79,1.19,3.64,2.39,5.1,4.03.15.17.32.34.51.43.87.41,1.54,1.1,2.21,1.72,1.48,1.37,3.06,2.64,4.57,3.98,1.55,1.37,3.16,2.73,5,3.77.52.3,1.02.68,1.52,1.04.8.59,1.53,1.38,2.81,1.42Zm110.35-15.63c-.28-.72-.95-1.06-1.39-1.61-1.39-1.7-2.89-3.28-5.08-3.93-1.32-.4-2.63-.72-4.06-.61-.91.07-1.72.37-2.58.53-1.32.24-2.58.74-3.67,1.52-.97.7-1.8,1.57-2.7,2.37-2.32,2.08-4.02,4.7-6.15,6.95-2.81,2.97-5.52,6.04-8.75,8.59-.64.5-1.24,1.06-1.75,1.75.42.19.73.02,1.01-.16,2.47-1.63,4.9-3.34,7.19-5.23,1.43-1.17,2.78-2.43,4.18-3.63,1.46-1.24,3.02-2.37,4.42-3.69.29-.27.51-.67.85-.83,1.04-.48,1.88-1.23,2.75-1.92,2.14-1.7,4.54-2.52,7.26-2.43.74.02,1.48.15,2.22.13.75-.02,1.45.11,2.1.43,1.22.6,2.53,1.01,3.69,1.73.13.08.26.15.47.05Zm-48.39-30.09c-.98,1.56-1.4,3.3-1.49,5.07-.1,1.82.75,3.4,1.89,4.74.52.61,1.25,1.19,2.07,1.38,1.14.26,2.29.51,3.41.84,1.31.39,2.73.44,3.96.98,1.7.75,3.47,1.41,4.94,2.66,1.42,1.21,2.89,2.37,3.8,4.01,1.19,2.17,2.07,4.47,2.18,7,.03.61.13,1.21.23,2.01.53-2.18.3-4.18-.12-6.07-.35-1.57-.77-3.17-1.75-4.62-1.04-1.55-1.99-3.14-3.35-4.44-.52-.5-1.19-.78-1.69-1.26-2.14-2.06-4.98-2.8-7.56-4-.88-.41-1.84-.63-2.71-1.16-1.67-1.03-2.46-2.6-3.1-4.33-.33-.9-.41-1.86-.7-2.79Zm-70.97,27.85c.41-.26.27-.6.27-.87-.06-2.6.98-4.9,2.11-7.12.91-1.79,2.47-3.1,4.13-4.27,1.14-.81,2.28-1.56,3.58-2.07.58-.23,1.08-.64,1.73-.76.78-.13,1.56-.3,2.33-.49,1.47-.36,2.96-.69,4.41-1.12,1.94-.58,3.84-3.18,3.95-5.3.05-.97-.06-1.9-.38-2.85-.33-.96-.6-1.94-.94-2.9-.05-.14-.09-.31-.26-.33-.16-.02-.18.12-.21.25-.1.58-.28,1.16-.3,1.75-.1,2.87-1.63,4.78-4.15,5.84-1.74.74-3.49,1.45-5.23,2.19-1.91.81-3.56,2-5.16,3.26-2.27,1.77-3.79,4.16-4.94,6.76-.87,1.98-1.12,4.11-1.14,6.25,0,.57-.07,1.17.2,1.76Zm3.5,30.08c.22.43.51.48.74.56.84.3,1.22.87,1.2,1.76-.03,1.32-.01,2.65,0,3.97,0,.38-.15.54-.53.54-1.95-.02-3.9-.03-5.85-.04-.41,0-.57-.19-.56-.6.03-1.15.02-2.3.04-3.45.04-1.7.13-1.82,1.74-2.43.03,0,.03-.08.06-.2h-5.97c.42.33.86.54,1.31.75.27.13.58.28.56.63-.02.43.14.84.14,1.25.01,3.02,0,6.05,0,9.07,0,.58-.26,1.01-.79,1.25-.46.21-.94.41-1.4.61l.02.19c2.05.12,4.1.08,6.15-.08-1.6-.67-1.84-1-1.85-2.76,0-1.02.03-2.05-.02-3.07-.03-.63.19-.86.8-.85,1.87.03,3.75.04,5.62.04.33,0,.53.09.52.45-.02,1.42.02,2.85-.06,4.27-.05.94-.58,1.42-1.51,1.57-.24.04-.51-.02-.76.38,2.28.17,4.46.2,6.65-.12-1.47-.23-2.2-.84-2.21-2.05-.03-3,.02-6-.03-9-.02-1.12.5-1.75,1.46-2.18.23-.1.56.05.8-.4-2.11-.09-4.14.1-6.28-.09Zm-63.62,13.9c2.28.08,4.41.11,6.54-.16-1.17-.23-2.2-.85-2.1-2.36.07-1.14,0-2.3,0-3.45,0-.89.23-1.01,1.09-.7,1.37.5,1.92,1.76,2.42,2.89.53,1.18,1.2,2.29,1.68,3.49.06.15.2.38.32.39.94.05,1.9.19,2.88-.44-1.16-.42-1.57-1.34-2.06-2.25-.73-1.36-.96-3.02-2.37-3.97-.02-.01-.03-.04-.05-.06-.23-.31-.14-.45.23-.44,1.14.02,1.72-.89,2.11-1.65,1.13-2.22-.48-4.77-2.96-4.98-2.07-.18-4.13-.08-6.2-.14-.26,0-.56-.11-.76.17.05.2.24.24.38.31.82.38,1.14.97,1.13,1.9-.05,3.05-.01,6.1-.03,9.14,0,.98-.51,1.6-1.46,1.91-.22.07-.51-.02-.81.39Zm106.37,18.7c.29.04.31-.15.35-.27.36-1.23,1-2.34,1.62-3.44,1.28-2.27,3.11-3.84,5.67-4.48.31-.08.62-.18.94-.23,2.3-.34,4.64-.38,6.7.75,1.35.74,2.74,1.38,4.13,2.03,1.26.59,2.62,1.06,3.97,1.16,1.72.12,3.29-.58,4.49-1.94.69-.78,1.33-1.62,2.44-1.89.39-.1.78-.16,1.17-.21.19-.02.43-.03.47-.29.03-.22-.13-.36-.3-.48-.23-.15-.49-.22-.77-.27-.87-.13-1.59.18-2.15.78-.48.5-.69.33-1.02-.15-.46-.67-.96-1.47-1.7-1.74-1.17-.42-2.42-.26-3.4.62-.49.43-1.01.97-.88,1.72.18,1.07,1.06,1.84,2.15,1.96,1.3.15,2.02-.46,1.89-1.59-.03-.29-.13-.57-.44-.63-.31-.06-.7-.17-.93.07-.2.21.16.42.22.65.07.3.34.69-.11.82-.4.12-.91.18-1.28-.11-.38-.3-.56-.76-.48-1.27.14-.93.84-1.48,1.78-1.41,1.35.1,2.43.9,2.43,1.8,0,.1-.01.2-.03.3-.24,1.28-1.74,2.48-3.07,2.55-1.62.08-2.89-.89-4.2-1.53-1.97-.96-3.82-2.16-5.92-2.86-1.15-.39-2.31-.77-3.52-.83-2.64-.14-4.92.87-7.02,2.37-.26.18-.49.44-.66.71-.91,1.49-1.8,3-2.21,4.71-.21.85-.52,1.73-.32,2.63Zm-1.46.26c.13-1.34.08-2.49-.52-3.57-.13-.23-.27-.49-.3-.75-.14-1.52-1.15-2.64-2.06-3.61-1.61-1.73-3.85-2.57-6.19-2.75-3.32-.25-6.16,1.31-8.94,2.85-1.42.78-2.86,1.47-4.36,2.05-2.14.84-3.39-.05-4.45-1.78-.45-.74-.36-1.18.3-1.75.24-.21.51-.43.8-.55.7-.29,1.49-.54,2.15-.06.51.37.92.9.85,1.72-.05.55-.31.64-.66.78-.35.15-.73.33-1.05.01-.29-.29-.14-.65,0-.98.1-.25.17-.51-.22-.55-.44-.04-.92.09-1.16.4-.23.29-.15.74.09,1.12.63,1.03,2.69,1.08,3.44.04.42-.58.92-1.2.52-1.98-.75-1.46-3.62-2.49-4.99-.89-.32.38-.67.74-.97,1.14-.3.4-.54.41-.9.07-.64-.61-1.43-.89-2.33-.78-.46.06-.91.33-.95.71-.03.32.55.23.85.36.06.03.16-.01.22.01.71.27,1.7.32,2.05.91.37.63.88,1.02,1.35,1.5,1.05,1.08,2.34,1.5,3.81,1.51,1.23.01,2.37-.38,3.46-.83,1.57-.65,3.3-.99,4.59-2.22.24-.23.56-.32.87-.42,1.2-.37,2.43-.56,3.67-.56,2.31,0,4.59.16,6.4,1.89.14.13.37.16.52.28.75.57,1.5,1.17,1.88,2.04.19.44.38.86.69,1.22.26.31.41.66.56,1.03.31.74.34,1.6.96,2.38Zm24.61-2.52c-.38-.41-.78-.45-1.11-.5-1.6-.26-2.93-1.04-4.29-1.86-1.35-.81-2.77-1.59-4.34-1.86-1.49-.25-3.01-.37-4.53-.23-1.37.12-2.67.45-3.43,1.76-.62,1.06-1.22,2.13-1.43,3.35-.26,1.53-.83,2.86-2.14,3.79-.09.07-.2.2-.19.29.01.17.19.21.34.23.92.14,1.66-.11,2.17-.94.26-.43.7-.65,1.01-.16.55.88,1.47,1.13,2.26,1.63,1.95,1.22,4.6-.34,5.54-1.91.61-1.02.47-2.14.41-3.22-.07-1.54-1.82-3.35-3.52-3.23-1.44.1-2.38.82-3,2.02-.49.94-.67,1.98.04,2.87.74.93,1.74,1.23,2.93.87.7-.21,1.28-1.01,1.12-1.71-.11-.46-.2-.93-.88-.9-.68.04-.83.46-.85.99-.01.38-.02.73-.45.82-.46.1-1.45-.41-1.51-.75-.25-1.57.9-3.2,2.48-2.98,1.81.26,2.85,1.79,2.57,3.9-.14,1.02-.24,2.13-1.45,2.56-.9.32-1.81.53-2.78.28-2.15-.56-3.42-3.04-3.18-4.39.37-2.09,1.37-3.81,3.61-4.45.4-.11.78-.36,1.22-.27,1.39.29,2.76.69,3.87,1.59.82.66,1.65,1.24,2.57,1.75,2.21,1.24,4.49.86,6.94.63Zm-26.07,4.75c-1.14-.8-1.96-1.83-2.22-2.61-.65-1.92-.77-4.08-2.49-5.55-.27-.23-.48-.51-.84-.63-2.1-.69-4.23-.49-6.34-.17-1.7.25-3.19,1.17-4.59,2.07-1.4.9-2.88,1.43-4.47,1.78-.28.06-.66-.03-.91.37.74.07,1.41.15,2.09.19,1.12.07,2.24.08,3.34-.15,1.45-.31,2.74-.98,3.81-2.02,1.19-1.16,2.69-1.93,4.25-1.92,1.57,0,3.24.48,3.97,2.28.1.25.27.48.42.71.71,1.11.67,2.41.21,3.44-.54,1.2-1.47,2.4-2.99,2.52-1.98.16-3.14.44-3.74-1.56-.29-.98-.96-1.96-.29-3.04.15-.25.31-.5.44-.77.56-1.2,2.45-1.65,3.53-.91.81.56.9,1.4.99,2.21.08.68-.47.97-1.45,1.01-.65.02-.83-.27-.78-.86.03-.32.08-.68-.33-.82-.42-.14-.65.17-.88.42-.34.37-.37.76-.11,1.21.36.61.84.97,1.56,1.09,1.43.24,3.21-1.31,2.88-2.64-.1-.41-.3-.79-.46-1.17-.84-2.03-3.15-2.64-4.82-1.56-1.77,1.14-1.99,2.86-1.66,4.53.19.95.32,2.11,1.43,2.66.24.12.5.16.72.35,1.1.97,2.37.97,3.6.35.89-.45,1.85-.87,2.51-1.68.24-.3.51-.28.74.02.75.97,1.66,1.38,2.9.83Zm86.92-21.06c.83-.11,1.74.22,2.51-.17,3.16-1.62,4.95-3.52,4.59-7.67-.07-.85-.16-1.77-.63-2.51-1.15-1.8-2.49-3.33-4.81-3.71-1.56-.25-3.04-.29-4.46.38-2.13,1.01-3.42,2.78-4.06,5-.7,2.44-.07,4.61,1.6,6.49,1.4,1.58,3.05,2.55,5.28,2.18Zm-93.5-.02c1.5.17,2.75-.19,3.95-1.01,2.91-2,3.61-4.65,2.97-7.86-.26-1.29-1.13-2.2-1.86-3.22-.83-1.16-2.04-1.7-3.3-1.96-2.98-.61-5.61.08-7.42,2.71-2.49,3.61-2.29,6.27.56,9.47,1.31,1.47,3.09,2.26,5.11,1.87Zm106.73-.28c-1.55-.44-2.12-1.11-2.1-2.63.03-2.69.14-5.38-.1-8.07-.02-.24.07-.53.31-.63.22-.09.32.17.44.33,1.68,2.23,3.33,4.48,5.08,6.65,1.14,1.41,2.21,2.88,3.31,4.32.13.17.26.42.53.33.27-.09.21-.37.23-.58.01-.12,0-.25,0-.37-.02-3.39,0-6.79-.06-10.18-.02-1.14.26-2,1.39-2.44.14-.05.3-.14.35-.34-1.39-.09-2.76.08-4.2-.13.31.44.72.59,1.09.75.6.26.82.67.86,1.33.16,2.52-.14,5.04.17,7.56.02.16.06.37-.14.46-.16.07-.24-.05-.36-.16-1.47-1.45-2.48-3.29-4.01-4.69-.11-.1-.12-.32-.19-.47-.12-.27-.2-.62-.41-.78-.96-.72-1.34-1.8-1.92-2.78-.28-.48-.75-1.03-1.35-1.08-1.1-.09-2.21-.03-3.35-.03.27.36.7.45,1.06.62.49.22.76.47.79,1.09.02.48-.05.96,0,1.43.27,2.96.16,5.92.08,8.88-.01.56-.33.96-.89,1.14-.4.12-.78.26-1.23.41.64.35,3.52.39,4.62.07Zm-67.89-.02c.08.22.23.18.34.19,3.64.01,7.29.01,10.93.03.4,0,.45-.18.44-.5-.01-.57.04-1.13.11-1.7.08-.63.16-1.31-.27-1.98-.19.26-.14.49-.16.7-.12,1.6-.84,2.44-2.39,2.85-.69.18-1.38.14-2.08.15-1.52,0-2.18-.55-2.46-2.08-.23-1.24-.11-2.49-.15-3.74,0-.23.04-.43.32-.52,1.43-.44,2.53.29,2.68,1.78.02.15-.04.33.19.51.51-1.71.5-3.38.09-5.11.07,1.07-.61,1.64-1.32,2.2-.52.41-1.16.44-1.69.27-.44-.14-.17-.76-.23-1.16-.03-.17,0-.35,0-.52-.03-1.34.18-2.69-.15-4.02-.09-.37.17-.44.48-.5,1.5-.33,2.96-.13,4.39.35.62.21,1.08.65,1.21,1.32.07.35.3.62.42.94.04.1.11.26.26.19.17-.08.15-.26.07-.38-.43-.65-.41-1.38-.34-2.1.06-.62-.17-.79-.74-.78-1.82.02-3.65,0-5.47,0-1.41,0-2.81,0-4.22,0,.41.35.84.56,1.27.79.26.14.56.31.56.64-.02.65.21,1.27.2,1.92-.03,2.32,0,4.65-.02,6.97-.01,2.45-.02,2.46-2.27,3.3Zm-14.95-13.6c-.01.06-.03.13-.04.19.25.09.49.18.74.26,1.03.32,1.18.51,1.2,1.59,0,.55-.05,1.1,0,1.65.24,2.41.15,4.83.11,7.25-.02,1.14-.07,2.45-1.8,2.4-.09,0-.27.14-.27.22,0,.16.17.2.32.24,1.3.36,2.59.03,3.88-.07.04,0,.08-.1.12-.16-1.54-.52-1.82-.85-1.82-2.17,0-.07,0-.15,0-.22.06-2.82.08-5.64-.1-8.46-.01-.17-.13-.4.12-.53.35.21.4.63.67.89,1.43,1.37,2.43,3.08,3.69,4.59,1.55,1.84,2.89,3.85,4.34,5.78.15.2.25.58.59.47.33-.1.32-.46.34-.76.1-1.02-.11-2.03-.15-3.04-.11-2.79-.2-5.58,0-8.38.04-.49.27-.77.69-.97.4-.19.85-.32,1.25-.71h-4.21c.18.2.37.31.57.37.99.29,1.3.91,1.26,1.95-.08,2.12-.03,4.25-.01,6.37,0,.4-.08.76-.27,1.16-.38-.26-.64-.58-.85-.94-.41-.71-.95-1.38-1.48-1.95-.72-.77-1.27-1.62-1.81-2.49-.16-.25-.28-.55-.5-.74-.89-.77-1.44-1.77-2.04-2.74-.28-.46-.58-.99-1.21-1.01-1.11-.03-2.22,0-3.34,0Zm-3.72,9.88c-1.15-.52-1.59-1.63-2.29-2.47-1.28-1.51-2.37-3.19-3.57-4.77-.37-.49-.79-.94-1.07-1.52-.24-.48-.61-1.03-1.16-1.11-1.04-.14-2.1-.13-3.21.02.27.33.59.37.84.5.58.31.92.78.92,1.44,0,3.22.02,6.45-.01,9.67,0,.97-.5,1.45-1.49,1.7-.23.06-.46.14-.69.21,0,.07,0,.13,0,.2,1.45.06,2.91.19,4.42-.18-1.67-.24-1.84-1.38-1.82-2.71.04-2.65.03-5.3.05-7.95,0-.2-.11-.45.12-.61.18.02.23.18.33.29,1,1.15,1.76,2.47,2.77,3.62,1.02,1.16,2,2.37,2.9,3.6.92,1.25,1.83,2.48,2.84,3.66.15.18.25.54.52.44.28-.1.12-.44.12-.67,0-3.55,0-7.09,0-10.64,0-.93.26-1.71,1.19-2.13.17-.08.32-.21.4-.44h-3.91c.18.32.46.37.67.41,1.13.23,1.34,1.01,1.31,2-.04,1.52,0,3.05-.05,4.57-.03.94.19,1.89-.13,2.87Zm-17.19,28.03s.02,0,.03,0c-.02.2-.03.4-.06.59-.08.62.23.75.76.63.32-.08.59-.22.78-.52.85-1.35.63-2-.85-2.63-1.14-.48-2.04,0-2.68.83-.76.97-.68,1.75.15,2.66.32.35.65.72,1.05.95,1.01.58,2.04.98,3.22.36,1.16-.61,2.26-1.28,3.11-2.28.26-.3.46-.36.71-.05.43.53,1.05.84,1.54,1.29,1,.91,2.14,1.3,3.49,1.2,1.52-.1,2.29-1.15,2.66-2.52.17-.62.16-1.33-.44-1.91-1.07-1.05-2.86-.86-3.59.44-.19.33-.27.69-.03.97.22.25.37.52.52.81.26.51.74.47,1.18.37.49-.11.34-.53.3-.87-.03-.27-.13-.54-.13-.81,0-.63.36-.82.94-.61.52.19.67.65.64,1.05-.03.47-.01,1.01-.59,1.33-1.38.77-2.45.35-3.71-.54-.85-.6-1.52-1.42-2.07-2.34-.27-.45-.45-.94-.73-1.37-.13-.19-.33-.5-.51-.05-.31.75-.87,1.35-1.21,2.06-.82,1.68-2.28,2.38-3.99,2.62-.74.11-1.56-.12-2.01-.77-.44-.64.16-1.22.42-1.79.02-.04.05-.09.08-.13.19-.23.43-.34.73-.24.31.1.3.35.29.61,0,.22,0,.45,0,.67Zm-74.89-28.34c-.34.18-.24.45-.26.69-.1,1.25-1.25,2.63-2.47,2.89-.98.21-1.99.21-2.98.09-.77-.1-1.87-1.22-1.87-1.91-.02-3.45-.02-6.89-.03-10.34,0-.4.13-.59.56-.58,1.01.03,2.04-.12,3.01.07,1.63.31,2.15.11,2.42,2.15.02.18.1.32.3.33.2-.8.18-1.62.19-2.43,0-.48-.18-.6-.62-.58-1.17.03-2.35.02-3.52.02-2.14,0-4.28,0-6.41,0,.04.26.37.26.6.36.93.38,1.41.99,1.39,2.06-.04,2.9,0,5.79,0,8.69,0,.52.04,1.04-.35,1.49-.36.42-.74.78-1.35.84.23.32.49.4.8.4.85,0,1.7,0,2.55,0,2.5,0,4.99,0,7.49,0,.51,0,.69-.16.67-.7-.04-.87.04-1.75.05-2.62,0-.32.05-.66-.19-.92Zm62.87-5.06c.07-.06.13-.09.13-.13.16-1.34-.13-2.69.03-4.03.04-.31-.26-.29-.43-.2-.64.34-1.21.04-1.8-.14-1.65-.5-3.32-.49-4.98-.04-2.17.6-3.54,2.21-4.16,4.17-.83,2.62-.98,5.39,1.05,7.69,1.46,1.65,3.27,2.53,5.55,2.11.44-.08.89-.2,1.32-.16,1.67.15,2.49-.96,3.2-2.16.3-.51.54-1.14.22-1.89-.34.54-.47,1.01-.58,1.5-.08.38-.26.68-.53.97-1.55,1.68-5.06,1.39-6.39.13-1.24-1.17-1.72-2.55-1.82-4.18-.15-2.36-.03-4.59,1.6-6.55,1.11-1.32,3.13-1.94,4.7-1.26,1.32.57,1.96,1.62,2.29,2.94.11.44.18.91.58,1.22Zm83.09,9.11c-1.05-.31-1.66-.9-1.67-2.03-.05-3.57.08-7.15-.08-10.72-.01-.22-.04-.45.31-.45,1.12,0,2.25-.03,3.33.34.63.21,1.06.6,1.28,1.24.19.55.43,1.09.64,1.64-.12-1.08.15-2.13.12-3.18-.01-.42-.21-.49-.56-.49-1.17,0-2.35,0-3.52,0-2.85,0-5.7,0-8.54-.02-.59,0-.81.18-.76.78.04.51.03,1.03-.1,1.55-.17.66-.02,1,.38,1.25.02-.14.03-.26.05-.38.22-1.36.82-2.35,2.33-2.6.74-.12,1.48-.08,2.22-.15.54-.05.65.28.66.64.03,1.33.03,2.66.02,3.99-.02,2.15.1,4.3-.07,6.44-.11,1.37-.21,1.45-1.51,1.85-.16.05-.31.14-.46.21,0,.07,0,.15.01.22,1.96.07,3.91.09,5.92-.14Zm-117.94-3.92c-.03.24-.04.4-.06.57-.17,1.34-.98,2.29-2.12,2.8-3.08,1.37-6.85-1.01-7.04-4.38-.13-2.32.05-4.57,1.32-6.63.77-1.25,1.89-1.99,3.28-2.03,1.45-.03,2.8.42,3.46,1.96.36.85.78,1.68,1.24,2.65.06-.29.12-.44.11-.57-.1-1.23-.39-2.45-.16-3.71.09-.53-.34-.34-.5-.13-.25.33-.51.26-.78.12-1.36-.69-2.82-.82-4.29-.68-1.3.12-2.59.53-3.56,1.41-1.73,1.59-2.38,3.72-2.68,5.99-.16,1.18.53,2.1.81,3.14.52,1.97,2.07,2.89,3.82,3.56,1.08.41,2.19.14,3.29.18,2.46.09,3.72-1.93,4.17-3.49.07-.25.15-.55-.3-.78Zm162.17-.19c-.31.08-.27.28-.31.44-.18.89-.08,1.79-.11,2.69-.02.52-.19,1.22.79.8.16-.07.39.04.58.08.75.16,1.49.43,2.24.47,1.17.07,2.38.12,3.4-.69,1.27-1,1.95-2.81,1.49-4.35-.23-.75-.55-1.6-1.22-2-.63-.38-1.18-.87-1.82-1.22-.2-.11-.41-.21-.62-.25-.92-.16-1.54-.77-2.16-1.39-1.08-1.08-.93-2.35-.18-3.37.6-.8,2.15-.87,3.18-.28.92.53,1.17,1.44,1.51,2.32.11.3.11.67.57.99,0-.84-.03-1.55,0-2.26.05-.8.07-1.5-1.08-1.25-.09.02-.22-.09-.33-.14-1.23-.59-2.51-.68-3.73-.13-.76.34-1.63.74-1.83,1.69-.2.95-.3,1.92-.18,2.9.1.81.47,1.42,1.15,1.83.87.53,1.76,1.05,2.65,1.53,1,.54,1.84,1.17,1.96,2.43.1,1.09.04,2.08-.92,2.82-.93.72-1.85.64-2.83.12-1.16-.63-2-1.47-2.06-2.88-.01-.3-.11-.6-.17-.91Zm-225.98,4.21c2.16.15,4.18.16,6.21-.12-.25-.16-.5-.24-.76-.32-.69-.24-1.09-.72-1.11-1.44-.03-1.6-.03-3.2-.03-4.8,0-.22,0-.42.32-.49,1.34-.28,2.69.59,2.95,1.93.04.19.02.4.03.6,0,.21.14.25.31.21.15-.03.15-.12.15-.27,0-1.65.02-3.3.02-4.96,0-.18.08-.39-.19-.67-.18.68-.22,1.31-.44,1.88-.19.49-.52.81-1.03.82-.53.01-1.04.07-1.56.16-.39.07-.56-.07-.56-.47,0-1.65,0-3.3,0-4.95,0-.29.06-.56.45-.55,1.43.01,2.85.04,4.2.6.42.18.68.44.85.88.19.51.3,1.07.66,1.51.24-.11.18-.28.18-.41.03-.89-.35-1.74-.31-2.64.01-.32-.31-.25-.52-.25-3.07-.01-6.15-.02-9.22-.04-.15,0-.31-.03-.35.18.03.04.05.09.09.11.14.06.28.12.42.17q1.37.47,1.45,1.88c.01.22.01.45.01.67,0,2.55,0,5.1,0,7.65,0,.45-.02.9-.06,1.35-.06.67-.37,1.09-1.07,1.25-.31.07-.71.03-1.06.53Zm157.34-35.15c.22-.97.54-1.91.92-2.82.61-1.48.8-3.06.96-4.63.16-1.57.18-3.19-.37-4.72-.74-2.05-2.31-3.32-4.19-4.25-.7-.35-1.26-.11-1.62.58-.32.61-.34,1.3-.17,1.89.2.69.13,1.28-.19,1.86-.3.56-.41,1.12-.17,1.7.28.66.27,1.34.31,2.04.07,1.07.83,1.77,1.61,2.4.06.05.21.07.27.03.05-.04.06-.18.04-.26-.41-1.4-.34-2.85-.45-4.28-.06-.84.21-1.57.69-2.24.2-.29.47-.43.73-.1.5.64,1.14,1.19,1.39,2.02.77,2.62.94,5.26.42,7.96-.17.91-.33,1.85-.19,2.82Zm-6.91-2.66c.71.54,1.49.87,1.98,1.62.71,1.08.91,2.23.87,3.49-.07,2.08-.97,3.61-2.8,4.61-.95.52-1.94.95-3.02,1.04-1.44.13-2.89.28-4.21-.57-.38-.24-.82-.37-1.26-.45-.14-.02-.32-.07-.4.09-.09.18.08.27.21.34,1.02.53,1.92,1.32,3.08,1.55,1.09.22,2.1.85,3.22.79,2.04-.11,3.97-.47,5.44-2.18,1.51-1.76,2.75-3.5,2.5-6.02-.12-1.23-.48-2.2-1.37-2.93-.85-.7-1.94-.97-2.97-1.3-.37-.12-.78-.34-1.27-.08Zm-57.93,9.86c-.81-.27-1.35.29-1.96.46-2.35.64-4.59.88-6.88-.42-1.54-.87-2.48-1.95-2.91-3.65-.58-2.32.12-4.45,2.08-5.76.18-.12.48-.2.35-.48-.12-.27-.41-.1-.61-.08-.91.13-1.67.63-2.49.99-1.52.68-2.16,1.96-2.4,3.52-.16,1.02.17,1.94.62,2.8,1.05,1.98,2.19,3.84,4.49,4.72,1.31.49,2.55.73,3.89.42,2.05-.48,4.06-1.08,5.82-2.51Zm-15.98-7.18c.13-.21.2-.42.13-.61-.34-.82-.28-1.7-.43-2.54-.65-3.49-.52-6.83,1.85-9.76.29-.36.44-.41.7-.04.58.81,1.04,1.68.83,2.71-.17.82-.1,1.63-.15,2.45-.03.48-.17.96-.28,1.44-.03.15-.29.3-.06.44.15.09.35.01.46-.15.56-.81,1.53-1.42,1.26-2.64-.04-.19.04-.38.09-.57.23-.96.63-1.93.19-2.91-.3-.67-.27-1.34-.28-2.03,0-.47.04-.95,0-1.42-.05-.78-.69-1.21-1.42-.98-1.04.33-1.97.94-2.72,1.65-2.09,1.98-2.69,4.6-2.25,7.34.42,2.58,1.02,5.14,2.07,7.62Zm-39.97,21.21c.39.53.83.7,1.23.84.66.24.87.72.86,1.33-.06,3.24.24,6.48-.04,9.71-.06.72-.27,1.29-1.04,1.53-.26.08-.57.14-.73.45,1.22.29,3.7.19,4.17-.16-1.1-.11-2.02-.85-1.99-1.72.09-3-.1-6-.06-8.99,0-.18-.1-.44.14-.53.27-.1.39.17.52.33,1.36,1.78,2.71,3.57,4.08,5.35,1.46,1.9,2.93,3.79,4.39,5.69.12.15.23.36.47.29.26-.07.21-.32.21-.5.02-.67,0-1.35.01-2.02,0-.42-.13-.74-.41-1.07-1.26-1.49-2.41-3.08-3.73-4.52-.59-.64-.79-1.54-1.41-2.06-.85-.71-1.22-1.66-1.74-2.56-.44-.75-1.04-1.31-2.04-1.28-.89.03-1.8.09-2.88-.11Zm133.47,12.92c-.72.46-1.41.44-2.06.62-2.54.69-4.97-1.09-5.67-3.32-.48-1.53-.34-3.09-.24-4.65.04-.7.14-1.37.53-1.99.25-.4.46-.83.65-1.26.64-1.42,1.89-1.99,3.28-2.1,1.78-.13,3.22.94,3.86,2.58.25.63.52,1.24.79,1.86-.08-1.39,0-2.75-.03-4.1-.01-.39-.24-.32-.44-.12-.26.26-.44.24-.81.1-1.6-.63-3.25-.95-4.98-.54-3.53.83-4.84,3.28-5.3,6.56-.15,1.06.08,2.13.34,3.22.52,2.23,1.98,3.4,3.9,4.15,1.75.68,3.54.29,5.29-.16.35-.09.78-.18.9-.86Zm-19.35-43.01c0-.79,0-1.49,0-2.18,0-.38.05-.71.44-.95.43-.26.46-.64.32-1.16-.39-1.44-.34-2.86.62-4.11.28-.36.23-.55-.19-.71-.63-.24-1.24-.52-1.64-1.12-.69-1.02-1.22-2.04-.58-3.31.17-.34.13-.64-.48-.5-1.05.23-1.35.98-1.57,1.87-.31,1.27-.18,2.58-.57,3.88-.39,1.3.02,2.61,1.36,3.33.46.25.57.53.53,1-.14,1.62.64,2.84,1.76,3.98Zm-67.59-1.75c0,.54,0,.89,0,1.24,0,.11-.03.26.13.31.13.04.25,0,.32-.12.66-1.08,1.43-2.17,1.28-3.49-.07-.61.11-.85.52-1.14,1.12-.79,1.76-1.81,1.51-3.25-.2-1.14-.76-2.19-.71-3.38.02-.49-.13-.99-.22-1.48-.09-.51-1.4-1.49-1.76-1.24-.43.3.18.79-.01,1.21,0,.02,0,.05,0,.07.3,1.63-.52,3.26-2.01,3.78-.69.24-.66.41-.29.93.91,1.28,1.17,2.67.45,4.14-.1.2-.1.38.08.53.64.55.85,1.26.72,1.89Zm109.24,45.57c-1.26-.14-1.55-.6-1.59-1.89-.08-3.17,0-6.34-.03-9.51,0-.94.32-1.56,1.25-1.79.13-.03.34-.03.29-.25-.04-.2-.24-.14-.37-.14-1.38,0-2.75,0-4.13,0-.36,0-.72,0-1.23,0,.41.44.79.61,1.19.71.46.11.65.37.67.84.16,3.47.05,6.94.07,10.4,0,.57-.29.93-.81,1.13-.42.16-.84.33-1.3.5.73.44,5.33.4,5.97-.02Zm-16.82-40.31c.06.07.08.09.1.11.09.09.18.02.27,0,2.94-.36,5.86-.62,8.8.22,1.55.44,2.38,1.54,3.21,2.66.8,1.08.6,2.46.76,3.72.06.47.17.99-.09,1.48-.08.15-.08.42.14.53.18.09.34-.07.46-.18.16-.15.3-.34.4-.53.36-.71.71-1.43,1.06-2.14.53-1.07.52-2.26.18-3.28-.33-.98-1.05-1.87-2-2.48-1.94-1.23-4.14-1.52-6.36-1.68-1.57-.11-3.08.24-4.58.67-.81.23-1.64.37-2.33.92Zm-130.19,8.72c-.03-.18-.05-.28-.06-.38-.24-2.23-.06-4.37,1.38-6.24.46-.6.94-1.22,1.67-1.46,1.33-.45,2.69-.86,4.12-.89,1.98-.05,3.94.13,5.88.41.05-.19-.05-.23-.16-.3-1.22-.76-2.65-.99-3.99-1.22-2.18-.38-4.42-.43-6.58.41-1.01.39-2.05.68-2.95,1.33-1.28.92-2.16,2.96-1.7,4.38.35,1.08.88,2.1,1.37,3.13.18.38.51.67,1.03.83Zm28.01-43.44c.56.48,1.12.96,1.68,1.42.83.68,1.56,1.48,1.69,2.57.22,1.9.28,3.8-.81,5.52-.12.19-.27.44-.08.61.25.22.47-.03.64-.19.65-.62,1.26-1.29,1.95-1.87.95-.8,1.31-1.98,1.98-2.95.98-1.4.49-2.77-1.01-3.62-.04-.02-.09-.04-.13-.07-1.81-1.04-3.86-1.18-5.9-1.42Zm87.21-.04c-.04-.06-.07-.11-.11-.17-.6.12-1.2.27-1.8.37-1.61.25-3.16.73-4.5,1.69-.98.71-1.29,1.5-.82,2.6.46,1.06,1.07,2.07,1.75,3,.63.86,1.44,1.59,2.19,2.35.18.18.42.52.64.43.37-.16-.06-.44-.06-.68,0-.33-.14-.67-.26-.99-.62-1.6-.71-3.23-.27-4.89.23-.87.64-1.59,1.41-2.13.65-.46,1.22-1.04,1.82-1.57Zm-12.56,39.16c-.29,0-.54-.03-.78,0-.87.13-1.58.6-1.95,1.35-.26.52.36.86.67,1.21.52.58,1.06.35,1.58-.05.21-.16.51-.53.66,0,.29,1.04.32,2.07-.55,2.92-.43.42-.78.91-1.29,1.24-.14.09-.35.18-.28.39.06.19.29.18.46.19,1.16.08,2.24-.34,3.35-.58.11-.02.21-.13.3-.22,1.07-1.01,1.51-2.19.96-3.63-.14-.37-.35-.71-.51-1.08-.5-1.17-1.32-1.83-2.61-1.75Zm-31.44,49.36c-.2-.79-.3-1.65-.54-2.43-.71-2.41-2.53-2.86-4.91-2.39-.12.02-.28.04-.24.2.03.1.14.21.24.25,2.14.75,3.34,2.33,4.12,4.38.24.63.75,1.16.75,1.9,0,.07.11.16.19.22.48.4.92.09,1.12-.73.19-.79.39-1.58.84-2.28.82-1.29,1.67-2.55,3.13-3.22.15-.07.28-.2.42-.31.31-.25.18-.42-.12-.53-1.18-.42-2.99.08-3.76,1.05-.53.67-.94,1.39-1.01,2.27-.04.54-.16,1.08-.25,1.62ZM103.36,31.59c.65-.08,1-.52,1.38-.9,1.56-1.56,3.3-3,3.48-5.46.11-1.52-.03-2.9-1.23-4.03-.78-.73-1.13-.59-1.67.3-.55.91-.49,1.94-.26,2.94.4,1.7.38,3.34-.42,4.94-.38.76-.8,1.5-1.28,2.21Zm89.99-7.12c.04.41-.05.82.1,1.24.81,2.38,2.45,4.12,4.32,5.69.13.11.27.39.48.14.17-.2,0-.38-.16-.51-.33-.27-.65-.55-.82-.95-.81-1.92-1.25-3.85-.57-5.95.34-1.05.26-2.2-.72-3.02-.44-.37-.93-.42-1.3.06-.75.97-1.47,1.96-1.32,3.3Zm-42.69,97.95c.79-1.86,1.36-3.65,3.16-4.6.45-.24.11-.55-.17-.63-1.1-.3-1.85-1-2.49-1.91-.29-.42-.75-.58-1.17-.04-.72.93-1.52,1.75-2.74,2.02-.41.09-.57.3-.08.59.87.52,1.5,1.28,2.1,2.09.54.72.94,1.51,1.38,2.47Zm-68.6-43.67c-.01.74.09,1.46.15,2.2.02.21-.08.54.24.52.28-.02.2-.35.2-.56,0-.7.02-1.4-.02-2.1-.06-1.07.09-2.01,1.26-2.44.12-.05.29-.14.22-.32-.06-.16-.22-.22-.37-.17-.82.25-1.64.22-2.47.02-.2-.05-.45.02-.51.21-.07.21.18.29.33.33.86.24,1.09.83.98,1.64-.03.22,0,.45,0,.67Zm-16.38,6.39v-5.01c-.06-.01-.13-.03-.19-.04-.15,1.82-1.19,2.63-2.97,2.65.46.27.91.2,1.34.19.52-.01.85.16,1.01.67.12.38.31.73.46,1.1.08.2.11.46.35.44Zm138.28,3.36c.97-.29,1.54-1.69,1.18-2.71-.07.99-.6,1.8-1.18,2.71Zm-98.99-42.4l-.03.05h.05s-.02-.05-.02-.05Z"/>
      <path class="cls-1" d="m174.85,30.42c.29.11.52.12.6.23.62.88,1.66,1.42,2.01,2.53.46,1.45,1.16,2.82,1.29,4.38.07.78.09,1.55.03,2.31-.07.83.53,1.34.77,2.02.23.64.3,1.18-.03,1.78-.57,1.05-1.06,2.1-1.07,3.37-.01,1.41-1.47,2.54-3.27,2.59-4.03.12-7.86,1.21-11.63,2.47-3.6,1.2-6.77,3.16-9.26,6.1-1.15,1.37-1.98,2.92-2.65,4.57-.1.24-.07.64-.37.66-.26.01-.4-.35-.54-.57-1.5-2.45-3.43-4.54-5.52-6.47-1.6-1.48-3.35-2.76-5.32-3.76-2.52-1.28-5.2-2-7.92-2.6-1.32-.29-2.72-.34-4.08-.24-1.54.12-2.76-.56-3.86-1.47-.57-.47-.64-1.27-.9-1.94-.33-.86-.58-1.75-.92-2.61-.46-1.19-.26-2.24.58-3.18.16-.18.34-.38.24-.59-.48-1.03.11-2,.16-2.99.11-2.19,1.11-4.05,2.33-5.8.11-.16.23-.33.38-.46.24-.22.4-.18.4.18,0,.47-.03.95-.04,1.42-.03,1.81-.13,3.62.76,5.32,1.27,2.43,3.02,4.43,5.46,5.62.9.44,1.52,1.37,2.59,1.45,1.23,1.4,3.14,1.87,4.41,3.21.5.53,1.24.7,1.83,1.13,1.14.84,2.13,1.86,3.21,2.77,1.11.93,2.17,1.98,3.15,3.1.86.98,1.75,1.95,2.59,2.96.35.42.7.35.99-.04.27-.36.48-.76.71-1.14.6-1.02,1.4-1.88,2.2-2.74,1.91-2.06,4.14-3.76,6.42-5.37,1.54-1.09,3.16-2.08,4.76-3.07,1.92-1.19,4.02-2.07,5.94-3.28,3-1.89,4.7-5.3,4.13-8.96-.15-.93-.37-1.86-.55-2.89Z"/>
      <path class="cls-1" d="m129.04,25.36c-.5-4.21.91-7.81,2.68-11.26.81-1.57,1.75-3.12,3.28-4.21.72-.51,1.15-1.37,1.87-1.92,2.24-1.72,4.65-3.1,7.4-3.86,2.56-.71,5.15-1.31,7.83-1.06,2.67.25,5.24.92,7.75,1.93,1.31.53,2.44,1.34,3.64,2.04,1.93,1.13,3.44,2.79,4.82,4.45,2.26,2.71,3.61,5.99,4.23,9.45.37,2.09.36,4.24.19,6.41-.15,1.89-.53,3.66-1.16,5.41-.65,1.83-1.54,3.53-2.6,5.17-1.21,1.86-2.69,3.47-4.44,4.79-2.93,2.2-6.05,4.05-9.83,4.45-1.71.18-3.39.46-5.12.42-1.06-.02-2.02-.39-3.04-.54-3.64-.53-6.81-2.16-9.63-4.45-1.46-1.19-2.88-2.46-3.75-4.21-.42-.84-1.1-1.53-1.55-2.38-1.17-2.19-1.98-4.53-2.51-6.93-.27-1.24-.05-2.58-.05-3.7Zm40.89.82c.1-3.82-.61-6.59-1.78-9.23-.46-1.05-.95-2.12-1.68-3.06-1.26-1.6-2.7-2.94-4.39-4.12-1.96-1.38-3.92-2.54-6.3-3.09-2.48-.57-4.91-.94-7.44-.54-3.09.49-6.03,1.31-8.46,3.42-.34.29-.7.57-1.07.81-2.56,1.68-4.26,4.07-5.34,6.86-.72,1.84-1.43,3.7-1.57,5.72-.12,1.71-.1,3.4.07,5.1.18,1.79.98,3.39,1.49,5.06.25.82.54,1.74,1.22,2.44.67.69,1.19,1.51,1.81,2.25,1.07,1.27,2.04,2.61,3.71,3.16.06.02.12.08.15.14.31.65.89,1,1.51,1.24,1.5.59,2.92,1.45,4.57,1.63.17.02.34.08.51.13,2.22.68,4.48.65,6.71.23,1.7-.32,3.39-.67,5-1.42,2.12-.98,3.98-2.33,5.55-3.96,2.11-2.19,3.83-4.69,4.72-7.72.58-1.98.92-3.95,1-5.09Z"/>
      <path class="cls-1" d="m120.79,61.52c.07-.24.51-.27.36-.58-.13-.27-.44-.18-.68-.21-.69-.1-1.39-.16-2.06-.32-.79-.18-1.87-1.48-1.84-2.35.05-1.53.26-3.03,1.61-4.07.96-.74,3.23-.57,4.03.34.37.42.29,1.33-.18,1.78-.46.43-.96.49-1.47.05-.2-.17-.38-.5-.68-.33-.26.14-.28.48-.33.78-.32,1.83.91,2.88,2.06,3.89.5.44,1.34.1,1.76-.34.47-.5,1.05-.84,1.53-1.29.89-.84,1.74-1.71,2.51-2.67,2.35-2.95,5.57-3.94,9.12-2.28,1.22.57,2.43,1.12,3.58,1.81.17.1.36.19.5.33,1.4,1.41,2.98,2.64,4.24,4.19.34.42.88.67,1.31,1.04.3.26.64.48.88.79.98,1.3,2.26,2.27,3.48,3.3.43.37.79.49,1.26,0,1.12-1.18,2.49-2.12,3.39-3.52.29-.44.87-.63,1.26-1.03,1.99-2.03,4.15-3.87,6.4-5.59,1.87-1.43,3.95-2.43,6.43-2.12.07,0,.16-.01.22.01,1.49.56,2.99,1.13,3.89,2.55,1.43,2.25,3.15,4.18,5.58,5.39.47.23,1.02.29,1.46.62-.05.07-.08.14-.1.14-1.58-.02-3.18.02-4.52-1.05-1.77-1.4-3.36-3-4.92-4.63-.7-.73-2.73-1.13-3.69-.75-.55.22-1.18.12-1.69.54-.81.66-1.47,1.47-1.92,2.36-.48.96-.36,2.08.28,2.98.53.73,1.21,1.34,2.27,1.14,1.17-.23,1.91-1.52,1.49-2.64-.25-.66-.73-.79-1.33-.58-.42.14-.81.36-1.22.56-.05-1.65.98-2.58,2.48-2.3.53.1,1.07.04,1.62.13,1.11.17,1.7.96,2.37,1.7.07.07.09.26.05.34-.08.15-.25.13-.39.07-.34-.14-.67-.28-1.02-.43-.14.35-.02.64.01.93.16,1.19.17,2.41-.68,3.33-.8.87-1.82,1.43-3.1,1.31-.5-.05-1,0-1.5,0-1.56,0-2.71-.8-3.18-2.29-.19-.61-.53-1.16-.64-1.81-.05-.3-.23-.5-.64-.23-1.03.66-1.96,1.44-2.93,2.17-1.77,1.33-3.36,2.89-5.33,3.96-.69.38-1.37.44-2.16.18-1.5-.49-2.64-1.53-3.93-2.34-1.88-1.19-3.27-2.93-4.94-4.36-.18-.16-.34-.46-.61-.34-.29.12-.15.44-.14.66.04,1.25-.14,2.4-1.1,3.33-.79.78-1.79.9-2.8,1.04-.42.06-.86-.05-1.27.03-1.31.25-2.29-.46-3.3-1.09-.13-.08-.23-.18-.24-.35-.06-1.06-.33-2.14-.11-3.19.12-.59-.12-.49-.45-.48-.02,0-.05,0-.07,0-.33-.01-.78.38-.95.04-.19-.38.31-.68.55-.98,1.01-1.3,2.32-1.7,3.92-1.32,1.05.25,1.32,1.21,1.89,1.9.18.22-.06.41-.34.39-.45-.03-.88-.11-1.28-.34-.34-.2-.75-.31-1.06-.07-.34.26-.19.69-.09,1.05.3,1.2,1.36,1.68,2.27,2.25.52.33,1.68-.47,1.92-1.33.46-1.66.53-3.26-.84-4.66-1.03-1.06-2.27-1.1-3.54-.92-1.09.15-2.06.57-2.86,1.46-.93,1.03-1.98,2.01-3.13,2.77-2,1.31-4.19,2.15-6.73,1.58Z"/>
      <path class="cls-1" d="m265.47,66.01c-9.22.42-18.44.27-27.67.11,1.4-.32,2.67-.98,4.15-1.23-.51-.73-1.27-1-1.99-1.24-1.61-.52-3.24-.96-4.91-1.28-1.27-.24-2.54-.15-3.79.03-1.28.19-2.59.24-3.85.59-2.3.63-4.64,1.04-6.94,1.73-2.2.66-4.46,1.31-6.75,1.52-3.02.28-6.05,1.09-9.11.36-1-.24-2.14-.07-2.97-.89-.42-.41-.82-.84-1.22-1.27-.12-.13-.21-.3-.16-.48.31-1.07.69-2.09,1.69-2.74.31-.2.4-.1.4.2,0,.3-.01.6-.01.9-.01,1.28.66,1.78,1.89,2.08,1.5.36,2.79-.09,4.14-.48.68-.2,1.41-.25,2.09-.44,2.04-.58,4.03-1.32,6.03-2.01.78-.27,1.64-.3,2.45-.54,2.58-.74,5.17-1.47,7.78-2.09,2.28-.54,4.58-.98,6.92-1.23,1.78-.19,3.45.4,5.1.95,2.55.85,3.79,2.91,4.74,5.21.07.17.05.41.34.42,1.56.05,3.08.53,4.64.57,2.63.06,5.25.3,7.87.45,2.71.16,5.4.49,8.11.67.34.02.69.08,1.03.12Z"/>
      <path class="cls-1" d="m63.89,66.27c-8.86.01-17.73.14-26.64-.15.2-.32.48-.24.7-.25,3.13-.1,6.22-.61,9.33-.93.1-.01.2,0,.3,0,1.97-.05,3.94-.04,5.9-.18,1.4-.1,2.79-.4,4.18-.61.24-.04.41-.17.53-.38.25-.43.55-.85.73-1.3.97-2.49,3-3.7,5.39-4.43,2.12-.65,4.21-.33,6.36.03,2.21.37,4.39.88,6.57,1.36,2.13.47,4.24,1.11,6.35,1.7,2.55.71,5.03,1.68,7.59,2.3,1.45.35,2.85.87,4.32,1.11,1.48.25,2.73-.23,3.74-1.29.43-.45.17-1.04.04-1.57-.06-.25-.28-.46-.26-.77,1.58.5,2.55,2.08,2.24,3.56-.05.22-.21.33-.34.47-.88.96-2.04,1.22-3.26,1.53-1.92.49-3.84.5-5.72.21-2.28-.36-4.61-.39-6.86-1.02-1.13-.32-2.26-.68-3.45-.79-1.16-.11-2.17-.8-3.31-1.05-.76-.17-1.54-.19-2.31-.35-1-.2-1.95-.58-3-.68-2.02-.19-3.98-.68-6.07-.45-2.09.23-4,.93-5.96,1.56-.12.04-.22.07-.3.18-.25.32-.9.45-.82.84.08.38.66.09,1.02.2,1,.32,2.02.61,3.03.91v.23Z"/>
      <path class="cls-1" d="m116.67,99.45c-2.59,1.07-5.01,2.47-7.61,3.43-1.74.65-3.58,1.06-5.42,1.34-.82.12-1.65-.05-2.31-.6-.98-.82-1.96-.99-3.24-.64-1.65.45-3.38.75-5.13.34-.69-.17-1.29-.44-1.79-1-.71-.8-1.58-1.29-2.73-1.24-2.52.1-5-.43-7.51-.46-2.16-.02-4.32-.07-6.48-.12-3.69-.09-7.38-.15-11.06-.32-4.56-.2-9.11-.53-13.66-.73-4.2-.18-8.4-.26-12.61-.4-.41-.01-.82-.1-1.23-.03.74-.34,1.54-.09,2.3-.24.32-.07.64-.08.96-.09,5.54-.18,11.09-.09,16.63,0,4.5.07,9,.05,13.49.19,13.81.45,27.63.22,41.44.46,1.55.03,3.1.05,4.65,0,.44-.01.88.07,1.32.11Z"/>
      <path class="cls-1" d="m265.52,99.05c-.63.16-1.17.05-1.7.07-5.89.2-11.79.18-17.67.65-1.39.11-2.8.02-4.19.14-4.82.42-9.66.27-14.48.5-2.54.12-5.09-.03-7.62.23-2.71.29-5.43.45-8.16.39-.71-.01-1.07.43-1.42.84-1.38,1.62-3.12,1.74-5.07,1.5-1.11-.13-2.2-.29-3.28-.6-.57-.17-1.22-.11-1.67.38-1.22,1.31-2.81,1.05-4.28.85-1.13-.15-2.28-.49-3.36-.88-1.61-.58-3.16-1.31-4.7-2.04-1.06-.5-2.15-.93-3.25-1.33-.16-.06-.36-.03-.44-.28.29-.24.65-.16.97-.17,11.17-.07,22.34-.11,33.5-.2,4.15-.03,8.3.12,12.44-.12,8.75-.51,17.52-.23,26.28-.53,2.48-.08,4.98.21,7.46.34.19,0,.4-.02.65.24Z"/>
      <path class="cls-1" d="m193.14,57.48c.51-.72,1.02-1.45,1.53-2.17,1.06-1.5,1.91-3.09,2.64-4.79,1.27-2.99,1.58-6.05,1.15-9.19-.35-2.58-1.38-4.97-2.87-7.1-1-1.43-2.16-2.72-3.54-3.89-2.35-1.99-4.94-3.58-7.49-5.25-1.41-.92-2.84-1.83-4.09-2.95-1.74-1.57-2.69-3.53-2.75-5.93-.05-2.22.73-4.18,1.59-6.15.36-.82.76-1.63,1.15-2.44.07-.15.1-.34.36-.4.2.3.12.66.09.98-.22,2.6.39,5.02,1.56,7.33.57,1.14,1.06,2.35,1.88,3.31,1.21,1.4,2.06,3.11,3.58,4.24.45.34.61.9,1.05,1.26,1.71,1.39,3.21,3,4.72,4.59.78.83,1.59,1.64,2.25,2.58.12.18.26.36.49.44.14.05.3.13.36.24,1.08,1.98,2.68,3.67,3.35,5.9.56,1.88,1.29,3.72.71,5.74-.33,1.16-.6,2.33-1,3.48-.33.93-.69,1.84-1.08,2.74-1.25,2.86-3.36,5.1-5.35,7.42-.04.05-.12.07-.19.11-.04-.04-.07-.07-.11-.11Z"/>
      <path class="cls-1" d="m108.1,57.29c-1.08-1.41-2.31-2.62-3.3-4.07-1.24-1.8-2.22-3.7-2.97-5.73-.75-2.01-1.2-4.13-.97-6.26.15-1.43.39-2.89,1.09-4.23,1.28-2.42,2.84-4.59,4.64-6.66,1.27-1.46,2.65-2.77,4.04-4.08,1.2-1.13,2.45-2.22,3.58-3.44.41-.44.82-.87,1.17-1.36.74-1.03,1.57-1.99,2.27-3.05.67-1.01,1.36-2.05,1.78-3.18.92-2.46,1.84-4.96,1.36-7.77.39.19.63.41.71.68.49,1.52,1.45,2.85,1.85,4.4.44,1.72.55,3.49.33,5.24-.26,2.01-1.31,3.61-2.94,4.79-1.81,1.32-3.74,2.49-5.6,3.74-1.48.99-3.02,1.94-4.42,3.04-1.24.99-2.51,1.96-3.47,3.31-1.35,1.9-2.66,3.8-3.36,6.03-.79,2.5-1.35,5.06-.75,7.71.55,2.45,1.18,4.86,2.67,6.97.67.95,1.12,2.05,1.94,2.92.22.23.5.52.32,1Z"/>
      <path class="cls-1" d="m181.32,67.32c-2.1,0-4.22-.18-6.35-.38-1.79-.17-3.53-.65-5.32-.81-.45-.04-.56-.18-.29-.6.32-.5.43-1.23.87-1.54.53-.38,1.01.36,1.56.52,2.08.6,4.14,1.25,6.21,1.88.49.15.97-.1,1.47-.09,2.39.04,4.79.13,7.13-.48,1.3-.34,2.67-.67,3.81-1.29,1.32-.71,2.74-1.32,3.87-2.41,1.17-1.13,2.66-1.92,3.82-3.08,2.18-2.18,4.54-4.15,7.07-5.89,1.64-1.13,3.35-2.22,5.26-2.87,1.5-.5,3.07-.3,4.6-.1,1.08.14,2.09.5,3.07,1.04,1.72.94,2.38,2.48,2.67,4.25.07.43.46,1.06.02,1.3-.31.17-.65-.49-1.01-.74-1.88-1.27-3.87-2.29-6.21-2.34-1.58-.03-3.02.6-4.45,1.18-1.91.78-3.54,2.04-5.26,3.14-2.07,1.32-4.21,2.55-6.18,4-1.06.78-2.14,1.54-3.18,2.34-1.05.81-2.34,1.12-3.58,1.46-2.28.63-4.61,1.05-6.98,1.28-.86.08-1.74.04-2.63.22Z"/>
      <path class="cls-1" d="m132.62,65.9c-.87.48-1.83.31-2.71.56-2.33.64-4.75.52-7.12.8-1.61.19-3.23-.07-4.84-.15-2.16-.1-4.25-.64-6.34-1.04-1.63-.31-3.24-.97-4.74-1.89-1.34-.82-2.4-2.01-3.83-2.7-.8-.38-1.51-.96-2.21-1.51-1.86-1.44-3.92-2.58-5.86-3.89-1.95-1.31-4.16-2.13-6.53-2.37-1.59-.16-3.07.38-4.45,1.05-1.04.5-2.13,1.02-2.83,2.03-.07.1-.19.18-.32.14-.18-.06-.17-.24-.17-.37,0-.51.22-.97.35-1.45.38-1.47.88-2.83,2.3-3.68,1.31-.79,2.67-1.34,4.22-1.35.6,0,1.2-.09,1.8-.09,1.03,0,1.99.25,2.96.66,1.58.66,3.02,1.58,4.35,2.57,1.66,1.24,3.39,2.42,4.91,3.88.64.62,1.38,1.21,2,1.84,1.23,1.26,2.7,2.2,3.99,3.36.69.62,1.52.94,2.29,1.4,1.36.81,2.87,1.2,4.31,1.78,1.17.47,2.43.93,3.65.88,2.36-.09,4.78.31,7.07-.29,2.12-.56,4.29-1.08,6.27-2.09.4-.2.48-.15.64.27.21.57.57,1.09.88,1.65Z"/>
      <path class="cls-1" d="m113.87,63.59c-1.28-.03-2.01-.83-2.81-1.42-.5-.36-1-.75-1.52-1.04-1.84-1.04-3.44-2.4-5-3.77-1.51-1.34-3.09-2.6-4.57-3.98-.68-.63-1.35-1.31-2.21-1.72-.2-.09-.37-.26-.51-.43-1.46-1.64-3.3-2.84-5.1-4.03-1.34-.89-2.9-1.55-4.68-1.48-1.22.05-2.45-.08-3.7.02-1.9.15-3.51.98-5.13,1.84-.34.18-.6.5-1.11.57.4-1.02,1.16-1.66,1.84-2.35.38-.39.8-.74,1.11-1.2.46-.69,1.2-1.04,1.89-1.43,1.54-.88,3.22-1.41,4.98-1.42,2.6,0,5.03.84,7.2,2.19,1.04.65,1.95,1.61,2.73,2.63.42.55,1.09.85,1.54,1.41,1.74,2.15,3.46,4.33,5.35,6.35,1.43,1.52,2.83,3.06,4.34,4.49,1.6,1.51,3.33,2.9,4.99,4.35.11.09.19.22.35.42Z"/>
      <path class="cls-1" d="m224.22,47.96c-.21.09-.33.03-.47-.05-1.16-.73-2.47-1.14-3.69-1.73-.66-.32-1.35-.45-2.1-.43-.74.02-1.48-.11-2.22-.13-2.72-.09-5.12.74-7.26,2.43-.87.69-1.71,1.45-2.75,1.92-.34.15-.56.55-.85.83-1.4,1.32-2.95,2.45-4.42,3.69-1.41,1.2-2.76,2.46-4.18,3.63-2.29,1.88-4.71,3.59-7.19,5.23-.28.19-.59.36-1.01.16.51-.68,1.12-1.24,1.75-1.75,3.23-2.55,5.94-5.62,8.75-8.59,2.13-2.25,3.83-4.87,6.15-6.95.89-.8,1.73-1.67,2.7-2.37,1.08-.78,2.35-1.28,3.67-1.52.86-.16,1.68-.46,2.58-.53,1.43-.1,2.74.22,4.06.61,2.19.66,3.69,2.24,5.08,3.93.45.54,1.12.88,1.39,1.61Z"/>
      <path class="cls-1" d="m175.82,17.87c.3.93.37,1.89.7,2.79.64,1.73,1.43,3.3,3.1,4.33.87.54,1.82.76,2.71,1.16,2.58,1.2,5.42,1.94,7.56,4,.5.48,1.17.76,1.69,1.26,1.36,1.31,2.31,2.89,3.35,4.44.97,1.45,1.4,3.05,1.75,4.62.42,1.89.65,3.89.12,6.07-.09-.8-.2-1.41-.23-2.01-.12-2.53-.99-4.83-2.18-7-.9-1.64-2.38-2.8-3.8-4.01-1.47-1.25-3.24-1.9-4.94-2.66-1.23-.54-2.65-.59-3.96-.98-1.12-.33-2.27-.58-3.41-.84-.82-.19-1.55-.77-2.07-1.38-1.14-1.34-1.99-2.92-1.89-4.74.1-1.77.52-3.5,1.49-5.07Z"/>
      <path class="cls-1" d="m104.85,45.72c-.27-.58-.21-1.19-.2-1.76.01-2.15.26-4.28,1.14-6.25,1.15-2.6,2.67-4.99,4.94-6.76,1.6-1.25,3.25-2.45,5.16-3.26,1.74-.73,3.49-1.45,5.23-2.19,2.51-1.06,4.04-2.98,4.15-5.84.02-.59.2-1.17.3-1.75.02-.13.05-.27.21-.25.17.02.21.19.26.33.34.96.62,1.94.94,2.9.32.94.43,1.88.38,2.85-.1,2.12-2,4.72-3.95,5.3-1.45.43-2.93.76-4.41,1.12-.77.19-1.55.35-2.33.49-.65.11-1.14.53-1.73.76-1.31.51-2.45,1.26-3.58,2.07-1.65,1.17-3.21,2.48-4.13,4.27-1.13,2.22-2.18,4.52-2.11,7.12,0,.27.14.6-.27.87Z"/>
      <path class="cls-1" d="m108.35,75.8c2.15.19,4.17,0,6.28.09-.24.44-.57.3-.8.4-.96.43-1.48,1.06-1.46,2.18.05,3,0,6,.03,9,.01,1.21.74,1.82,2.21,2.05-2.18.32-4.37.3-6.65.12.25-.4.52-.34.76-.38.93-.15,1.46-.63,1.51-1.57.07-1.42.04-2.85.06-4.27,0-.37-.19-.45-.52-.45-1.87,0-3.75-.01-5.62-.04-.61,0-.83.23-.8.85.05,1.02,0,2.05.02,3.07.01,1.76.25,2.09,1.85,2.76-2.05.16-4.1.2-6.15.08l-.02-.19c.47-.2.94-.4,1.4-.61.53-.24.79-.67.79-1.25,0-3.02,0-6.05,0-9.07,0-.42-.16-.82-.14-1.25.02-.35-.28-.5-.56-.63-.44-.21-.89-.42-1.31-.75h5.97c-.04.12-.04.19-.06.2-1.61.61-1.7.72-1.74,2.43-.03,1.15-.01,2.3-.04,3.45-.01.42.15.6.56.6,1.95,0,3.9.02,5.85.04.38,0,.54-.16.53-.54-.01-1.32-.03-2.65,0-3.97.02-.9-.36-1.46-1.2-1.76-.24-.08-.53-.13-.74-.56Z"/>
      <path class="cls-1" d="m44.73,89.7c.3-.41.59-.32.81-.39.94-.31,1.45-.92,1.46-1.91.01-3.05-.02-6.1.03-9.14.01-.92-.31-1.52-1.13-1.9-.14-.07-.34-.1-.38-.31.2-.29.5-.18.76-.17,2.07.06,4.13-.04,6.2.14,2.47.21,4.09,2.76,2.96,4.98-.39.76-.97,1.67-2.11,1.65-.38,0-.46.13-.23.44.01.02.03.04.05.06,1.41.95,1.64,2.61,2.37,3.97.49.91.9,1.84,2.06,2.25-.98.63-1.94.49-2.88.44-.11,0-.26-.23-.32-.39-.48-1.2-1.16-2.31-1.68-3.49-.5-1.13-1.05-2.39-2.42-2.89-.85-.31-1.09-.19-1.09.7,0,1.15.07,2.3,0,3.45-.09,1.51.94,2.13,2.1,2.36-2.13.27-4.26.23-6.54.16Zm4.38-10.16s.04,0,.06,0c0,.52,0,1.05,0,1.57q0,1.61,1.64,1.55c1.12-.05,1.89-.58,2.17-1.68.27-1.07.22-2.16-.06-3.24-.15-.59-.49-.98-1.07-1.12-.66-.16-1.33-.32-2.01-.39-.49-.05-.76.22-.73.77.03.85,0,1.69,0,2.54Z"/>
      <path class="cls-1" d="m151.1,108.39c-.2-.9.11-1.78.32-2.63.41-1.71,1.3-3.23,2.21-4.71.17-.27.4-.52.66-.71,2.1-1.5,4.38-2.52,7.02-2.37,1.21.07,2.37.45,3.52.83,2.1.7,3.95,1.9,5.92,2.86,1.3.64,2.57,1.61,4.2,1.53,1.32-.07,2.82-1.26,3.07-2.55.02-.1.03-.2.03-.3,0-.9-1.08-1.7-2.43-1.8-.94-.07-1.64.48-1.78,1.41-.08.51.1.97.48,1.27.36.28.87.22,1.28.11.45-.13.19-.52.11-.82-.06-.23-.42-.44-.22-.65.23-.24.62-.13.93-.07.31.06.4.33.44.63.13,1.13-.59,1.74-1.89,1.59-1.08-.12-1.97-.89-2.15-1.96-.12-.75.39-1.28.88-1.72.99-.87,2.23-1.04,3.4-.62.74.27,1.24,1.07,1.7,1.74.33.48.54.66,1.02.15.57-.6,1.28-.92,2.15-.78.28.04.53.11.77.27.17.11.33.26.3.48-.03.26-.28.27-.47.29-.4.04-.78.11-1.17.21-1.1.27-1.75,1.12-2.44,1.89-1.2,1.36-2.77,2.06-4.49,1.94-1.35-.09-2.71-.57-3.97-1.16-1.39-.65-2.78-1.29-4.13-2.03-2.06-1.12-4.4-1.09-6.7-.75-.32.05-.62.15-.94.23-2.56.65-4.4,2.21-5.67,4.48-.62,1.11-1.26,2.21-1.62,3.44-.04.13-.06.31-.35.27Z"/>
      <path class="cls-1" d="m149.64,108.66c-.63-.78-.65-1.64-.96-2.38-.16-.37-.3-.72-.56-1.03-.31-.36-.5-.78-.69-1.22-.38-.88-1.13-1.47-1.88-2.04-.16-.12-.39-.15-.52-.28-1.81-1.73-4.09-1.89-6.4-1.89-1.24,0-2.48.19-3.67.56-.31.1-.63.19-.87.42-1.29,1.24-3.02,1.58-4.59,2.22-1.08.45-2.23.84-3.46.83-1.47-.02-2.76-.43-3.81-1.51-.47-.48-.98-.87-1.35-1.5-.35-.6-1.34-.64-2.05-.91-.07-.03-.16.02-.22-.01-.29-.13-.88-.04-.85-.36.04-.38.49-.65.95-.71.9-.11,1.68.17,2.33.78.37.35.61.33.9-.07.3-.4.64-.76.97-1.14,1.36-1.6,4.24-.57,4.99.89.4.78-.11,1.4-.52,1.98-.74,1.04-2.81.99-3.44-.04-.23-.38-.31-.83-.09-1.12.24-.31.72-.45,1.16-.4.39.04.33.31.22.55-.14.33-.28.69,0,.98.32.31.7.13,1.05-.01.35-.15.61-.24.66-.78.07-.82-.34-1.34-.85-1.72-.65-.48-1.44-.23-2.15.06-.29.12-.55.34-.8.55-.66.57-.75,1.01-.3,1.75,1.06,1.74,2.31,2.62,4.45,1.78,1.5-.59,2.94-1.27,4.36-2.05,2.77-1.54,5.62-3.1,8.94-2.85,2.34.18,4.58,1.01,6.19,2.75.9.98,1.92,2.1,2.06,3.61.02.26.17.52.3.75.59,1.07.65,2.22.52,3.57Z"/>
      <path class="cls-1" d="m174.25,106.14c-2.44.23-4.72.61-6.94-.63-.92-.52-1.76-1.09-2.57-1.75-1.11-.9-2.48-1.3-3.87-1.59-.44-.09-.82.15-1.22.27-2.24.64-3.25,2.36-3.61,4.45-.24,1.34,1.03,3.83,3.18,4.39.97.25,1.88.03,2.78-.28,1.21-.42,1.31-1.53,1.45-2.56.29-2.11-.76-3.64-2.57-3.9-1.58-.23-2.73,1.41-2.48,2.98.06.34,1.05.85,1.51.75.43-.09.44-.44.45-.82.02-.53.17-.95.85-.99.68-.04.77.44.88.9.17.7-.42,1.5-1.12,1.71-1.19.36-2.19.06-2.93-.87-.71-.89-.53-1.92-.04-2.87.63-1.2,1.57-1.92,3-2.02,1.7-.12,3.45,1.69,3.52,3.23.05,1.08.2,2.19-.41,3.22-.94,1.57-3.59,3.12-5.54,1.91-.79-.5-1.72-.75-2.26-1.63-.3-.49-.75-.27-1.01.16-.51.83-1.25,1.08-2.17.94-.15-.02-.32-.06-.34-.23,0-.09.1-.23.19-.29,1.31-.93,1.88-2.26,2.14-3.79.21-1.22.81-2.3,1.43-3.35.76-1.31,2.07-1.64,3.43-1.76,1.52-.13,3.04-.02,4.53.23,1.57.27,2.99,1.05,4.34,1.86,1.36.81,2.7,1.6,4.29,1.86.33.05.73.09,1.11.5Z"/>
      <path class="cls-1" d="m148.18,110.89c-1.23.55-2.15.14-2.9-.83-.23-.3-.5-.32-.74-.02-.67.81-1.62,1.23-2.51,1.68-1.23.62-2.49.62-3.6-.35-.22-.19-.48-.23-.72-.35-1.11-.56-1.25-1.71-1.43-2.66-.33-1.67-.11-3.39,1.66-4.53,1.67-1.08,3.98-.47,4.82,1.56.16.38.36.75.46,1.17.33,1.33-1.45,2.88-2.88,2.64-.72-.12-1.2-.48-1.56-1.09-.27-.45-.24-.84.11-1.21.23-.25.46-.57.88-.42.41.14.36.51.33.82-.05.59.13.88.78.86.98-.03,1.53-.33,1.45-1.01-.09-.81-.18-1.65-.99-2.21-1.08-.74-2.96-.29-3.53.91-.12.27-.28.52-.44.77-.66,1.09,0,2.06.29,3.04.59,1.99,1.76,1.72,3.74,1.56,1.52-.12,2.45-1.32,2.99-2.52.46-1.03.5-2.33-.21-3.44-.15-.23-.31-.46-.42-.71-.73-1.79-2.4-2.27-3.97-2.28-1.56,0-3.06.77-4.25,1.92-1.07,1.04-2.36,1.71-3.81,2.02-1.1.24-2.22.23-3.34.15-.68-.04-1.35-.12-2.09-.19.25-.39.63-.3.91-.37,1.59-.35,3.07-.88,4.47-1.78,1.41-.9,2.89-1.82,4.59-2.07,2.11-.31,4.24-.51,6.34.17.36.12.57.4.84.63,1.72,1.48,1.83,3.63,2.49,5.55.26.78,1.09,1.81,2.22,2.61Z"/>
      <path class="cls-1" d="m235.1,89.83c-2.22.37-3.88-.6-5.28-2.18-1.67-1.88-2.3-4.05-1.6-6.49.64-2.22,1.93-3.99,4.06-5,1.42-.67,2.9-.63,4.46-.38,2.33.38,3.67,1.9,4.81,3.71.47.74.56,1.66.63,2.51.36,4.14-1.42,6.05-4.59,7.67-.76.39-1.68.07-2.51.17Zm4.9-6.72c-.28-1.8-.42-3.56-1.29-5.15-.74-1.35-2.84-2.41-4.29-2.02-1.36.37-2.51,1.08-3.11,2.46-1.12,2.57-1.24,5.19-.45,7.86.49,1.63,1.6,2.69,3.21,3.16,1.67.49,3.11-.09,4.26-1.3,1.33-1.41,1.38-3.28,1.66-5.01Z"/>
      <path class="cls-1" d="m141.6,89.81c-2.01.39-3.79-.4-5.11-1.87-2.85-3.19-3.05-5.86-.56-9.47,1.82-2.63,4.45-3.31,7.42-2.71,1.26.26,2.47.8,3.3,1.96.73,1.02,1.6,1.93,1.86,3.22.64,3.2-.06,5.85-2.97,7.86-1.2.82-2.45,1.18-3.95,1.01Zm-4.86-5.93c.01.72.08,1.65.52,2.51.81,1.6,1.82,2.93,3.81,3.16,2.54.3,4.49-1.76,5-3.77.69-2.77.49-5.46-1.07-7.99-.8-1.29-2.81-2.11-4.35-1.8-2.18.45-2.81,2.24-3.5,3.9-.48,1.15-.47,2.48-.4,3.98Z"/>
      <path class="cls-1" d="m248.33,89.53c-1.11.32-3.98.28-4.62-.07.45-.15.84-.29,1.23-.41.57-.17.88-.58.89-1.14.07-2.96.18-5.92-.08-8.88-.04-.47.03-.95,0-1.43-.03-.62-.3-.87-.79-1.09-.36-.16-.79-.25-1.06-.62,1.15,0,2.26-.07,3.35.03.6.05,1.07.6,1.35,1.08.58.97.96,2.06,1.92,2.78.21.16.28.51.41.78.07.16.08.37.19.47,1.53,1.4,2.53,3.24,4.01,4.69.12.11.2.24.36.16.2-.09.16-.3.14-.46-.31-2.51,0-5.04-.17-7.56-.04-.65-.26-1.07-.86-1.33-.37-.16-.78-.31-1.09-.75,1.44.21,2.81.04,4.2.13-.05.2-.21.29-.35.34-1.13.44-1.41,1.3-1.39,2.44.06,3.39.05,6.79.06,10.18,0,.12.02.25,0,.37-.02.22.03.49-.23.58-.27.09-.4-.16-.53-.33-1.11-1.44-2.17-2.91-3.31-4.32-1.75-2.17-3.4-4.42-5.08-6.65-.11-.15-.22-.41-.44-.33-.24.1-.33.39-.31.63.24,2.69.13,5.38.1,8.07-.02,1.52.55,2.18,2.1,2.63Z"/>
      <path class="cls-1" d="m180.45,89.51c2.24-.84,2.25-.84,2.27-3.3.01-2.32-.01-4.65.02-6.97,0-.65-.22-1.27-.2-1.92,0-.34-.29-.5-.56-.64-.43-.23-.87-.44-1.27-.79,1.41,0,2.81,0,4.22,0,1.82,0,3.65.01,5.47,0,.58,0,.8.16.74.78-.07.71-.08,1.45.34,2.1.08.12.1.3-.07.38-.15.07-.22-.09-.26-.19-.13-.32-.35-.59-.42-.94-.14-.67-.6-1.11-1.21-1.32-1.43-.49-2.89-.68-4.39-.35-.3.07-.57.13-.48.5.33,1.33.12,2.68.15,4.02,0,.17-.03.35,0,.52.06.4-.2,1.01.23,1.16.53.17,1.17.14,1.69-.27.72-.56,1.39-1.13,1.32-2.2.41,1.73.43,3.4-.09,5.11-.23-.17-.17-.35-.19-.51-.15-1.49-1.25-2.22-2.68-1.78-.28.09-.33.29-.32.52.04,1.25-.08,2.5.15,3.74.28,1.52.93,2.09,2.46,2.08.69,0,1.39.04,2.08-.15,1.55-.41,2.27-1.25,2.39-2.85.02-.21-.04-.44.16-.7.43.66.35,1.35.27,1.98-.07.57-.13,1.13-.11,1.7,0,.32-.04.51-.44.5-3.64-.02-7.29-.02-10.93-.03-.11,0-.26.03-.34-.19Z"/>
      <path class="cls-1" d="m165.5,75.91c1.11,0,2.23-.02,3.34,0,.63.02.93.56,1.21,1.01.61.97,1.16,1.97,2.04,2.74.22.19.34.49.5.74.54.87,1.09,1.72,1.81,2.49.53.58,1.07,1.24,1.48,1.95.21.37.47.68.85.94.19-.4.28-.76.27-1.16-.01-2.12-.07-4.25.01-6.37.04-1.04-.27-1.66-1.26-1.95-.2-.06-.39-.17-.57-.37h4.21c-.4.4-.85.52-1.25.71-.42.2-.65.48-.69.97-.21,2.79-.12,5.59,0,8.38.04,1.02.25,2.02.15,3.04-.03.3-.02.66-.34.76-.34.1-.43-.27-.59-.47-1.44-1.93-2.79-3.94-4.34-5.78-1.26-1.51-2.26-3.22-3.69-4.59-.27-.26-.32-.68-.67-.89-.25.13-.13.35-.12.53.18,2.82.16,5.64.1,8.46,0,.07,0,.15,0,.22,0,1.32.28,1.65,1.82,2.17-.04.06-.08.16-.12.16-1.29.1-2.58.43-3.88.07-.15-.04-.32-.07-.32-.24,0-.07.18-.22.27-.22,1.73.05,1.78-1.26,1.8-2.4.04-2.42.13-4.84-.11-7.25-.05-.54,0-1.1,0-1.65-.02-1.09-.16-1.27-1.2-1.59-.25-.08-.5-.17-.74-.26.01-.06.03-.13.04-.19Z"/>
      <path class="cls-1" d="m161.78,85.79c.32-.99.1-1.94.13-2.87.05-1.52.01-3.05.05-4.57.03-.99-.18-1.77-1.31-2-.21-.04-.48-.09-.67-.41h3.91c-.07.23-.23.36-.4.44-.92.42-1.19,1.21-1.19,2.13,0,3.55,0,7.09,0,10.64,0,.23.15.57-.12.67-.27.1-.37-.26-.52-.44-1.01-1.17-1.92-2.41-2.84-3.66-.91-1.23-1.89-2.44-2.9-3.6-1.01-1.15-1.77-2.47-2.77-3.62-.1-.11-.14-.26-.33-.29-.23.16-.12.41-.12.61-.02,2.65,0,5.3-.05,7.95-.02,1.32.15,2.47,1.82,2.71-1.51.37-2.96.23-4.42.18,0-.07,0-.13,0-.2.23-.07.46-.15.69-.21.99-.25,1.48-.73,1.49-1.7.03-3.22.02-6.45.01-9.67,0-.65-.35-1.12-.92-1.44-.26-.14-.57-.17-.84-.5,1.12-.14,2.18-.16,3.21-.02.55.08.92.63,1.16,1.11.28.57.69,1.02,1.07,1.52,1.2,1.59,2.29,3.26,3.57,4.77.7.83,1.14,1.94,2.29,2.47Z"/>
      <path class="cls-1" d="m144.6,113.83c0-.22,0-.45,0-.67,0-.26.02-.51-.29-.61-.3-.09-.54.02-.73.24-.03.04-.06.08-.08.13-.26.57-.85,1.15-.42,1.79.45.66,1.27.88,2.01.77,1.71-.24,3.17-.94,3.99-2.62.35-.71.91-1.31,1.21-2.06.19-.45.38-.14.51.05.29.43.47.92.73,1.37.55.92,1.22,1.74,2.07,2.34,1.26.89,2.33,1.3,3.71.54.58-.32.56-.86.59-1.33.03-.4-.12-.86-.64-1.05-.59-.21-.95-.02-.94.61,0,.27.1.54.13.81.04.33.19.76-.3.87-.43.1-.92.14-1.18-.37-.15-.29-.3-.55-.52-.81-.24-.28-.16-.64.03-.97.73-1.3,2.52-1.48,3.59-.44.6.59.61,1.29.44,1.91-.37,1.38-1.14,2.42-2.66,2.52-1.35.09-2.49-.3-3.49-1.2-.5-.45-1.11-.75-1.54-1.29-.25-.31-.45-.25-.71.05-.85,1-1.96,1.67-3.11,2.28-1.18.62-2.22.21-3.22-.36-.4-.23-.74-.6-1.05-.95-.83-.91-.91-1.69-.15-2.66.64-.82,1.54-1.31,2.68-.83,1.48.63,1.71,1.28.85,2.63-.19.3-.46.45-.78.52-.52.12-.84-.01-.76-.63.03-.2.04-.4.06-.59-.01,0-.02,0-.03,0Z"/>
      <path class="cls-1" d="m69.71,85.49c.24.27.2.6.19.92-.02.87-.09,1.75-.05,2.62.03.55-.16.71-.67.7-2.5-.01-4.99,0-7.49,0-.85,0-1.7,0-2.55,0-.31,0-.57-.08-.8-.4.61-.06.99-.42,1.35-.84.38-.45.35-.97.35-1.49,0-2.9-.04-5.8,0-8.69.01-1.06-.47-1.68-1.39-2.06-.23-.1-.56-.09-.6-.36,2.13,0,4.27,0,6.41,0,1.17,0,2.35,0,3.52-.02.44-.01.62.11.62.58,0,.81.01,1.63-.19,2.43-.21-.01-.28-.16-.3-.33-.27-2.05-.79-1.84-2.42-2.15-.97-.19-2.01-.04-3.01-.07-.43-.01-.56.18-.56.58.01,3.45.01,6.89.03,10.34,0,.69,1.1,1.81,1.87,1.91,1,.12,2,.12,2.98-.09,1.22-.26,2.37-1.64,2.47-2.89.02-.24-.08-.51.26-.69Z"/>
      <path class="cls-1" d="m132.58,80.44c-.4-.31-.47-.78-.58-1.22-.34-1.31-.97-2.36-2.29-2.94-1.58-.68-3.6-.07-4.7,1.26-1.64,1.95-1.75,4.19-1.6,6.55.1,1.63.59,3,1.82,4.18,1.33,1.26,4.84,1.55,6.39-.13.26-.29.45-.59.53-.97.1-.48.24-.96.58-1.5.32.75.08,1.38-.22,1.89-.71,1.2-1.53,2.3-3.2,2.16-.43-.04-.88.08-1.32.16-2.28.41-4.09-.46-5.55-2.11-2.03-2.3-1.88-5.07-1.05-7.69.62-1.96,1.99-3.58,4.16-4.17,1.66-.45,3.33-.47,4.98.04.59.18,1.16.47,1.8.14.17-.09.46-.11.43.2-.16,1.35.13,2.69-.03,4.03,0,.04-.06.06-.13.13Z"/>
      <path class="cls-1" d="m215.67,89.55c-2.01.23-3.97.22-5.92.14,0-.07,0-.15-.01-.22.15-.07.3-.16.46-.21,1.3-.4,1.4-.48,1.51-1.85.17-2.14.05-4.3.07-6.44.01-1.33.02-2.66-.02-3.99,0-.35-.12-.69-.66-.64-.74.07-1.48.03-2.22.15-1.5.25-2.11,1.23-2.33,2.6-.02.12-.03.24-.05.38-.4-.25-.55-.6-.38-1.25.13-.52.14-1.04.1-1.55-.05-.6.17-.79.76-.78,2.85.02,5.7.02,8.54.02,1.17,0,2.35,0,3.52,0,.35,0,.55.07.56.49.03,1.05-.24,2.1-.12,3.18-.22-.55-.45-1.08-.64-1.64-.22-.64-.65-1.03-1.28-1.24-1.09-.36-2.21-.35-3.33-.34-.36,0-.32.23-.31.45.16,3.57.03,7.14.08,10.72.02,1.13.62,1.72,1.67,2.03Z"/>
      <path class="cls-1" d="m97.73,85.63c.44.23.37.53.3.78-.45,1.56-1.71,3.58-4.17,3.49-1.1-.04-2.21.23-3.29-.18-1.75-.67-3.31-1.58-3.82-3.56-.27-1.04-.97-1.96-.81-3.14.31-2.27.96-4.4,2.68-5.99.97-.89,2.25-1.29,3.56-1.41,1.47-.14,2.93,0,4.29.68.28.14.53.21.78-.12.16-.21.59-.39.5.13-.22,1.26.07,2.48.16,3.71.01.14-.05.28-.11.57-.46-.98-.88-1.8-1.24-2.65-.66-1.55-2.01-2-3.46-1.96-1.39.03-2.51.77-3.28,2.03-1.27,2.06-1.45,4.31-1.32,6.63.19,3.37,3.96,5.76,7.04,4.38,1.14-.51,1.95-1.46,2.12-2.8.02-.17.04-.34.06-.57Z"/>
      <path class="cls-1" d="m259.9,85.44c.06.3.16.6.17.91.06,1.42.89,2.25,2.06,2.88.98.53,1.9.6,2.83-.12.96-.74,1.03-1.74.92-2.82-.12-1.26-.97-1.88-1.96-2.43-.9-.49-1.78-1-2.65-1.53-.68-.41-1.05-1.03-1.15-1.83-.12-.98-.02-1.95.18-2.9.2-.95,1.07-1.35,1.83-1.69,1.22-.55,2.5-.46,3.73.13.11.05.23.16.33.14,1.15-.25,1.13.46,1.08,1.25-.04.71,0,1.42,0,2.26-.47-.32-.46-.69-.57-.99-.34-.88-.58-1.79-1.51-2.32-1.03-.59-2.58-.53-3.18.28-.76,1.02-.9,2.29.18,3.37.62.62,1.24,1.23,2.16,1.39.22.04.43.14.62.25.64.35,1.19.83,1.82,1.22.67.41.99,1.25,1.22,2,.46,1.54-.22,3.35-1.49,4.35-1.02.81-2.23.76-3.4.69-.75-.04-1.5-.31-2.24-.47-.19-.04-.43-.15-.58-.08-.98.42-.8-.28-.79-.8.03-.9-.07-1.8.11-2.69.03-.16,0-.36.31-.44Z"/>
      <path class="cls-1" d="m33.92,89.65c.36-.49.76-.46,1.06-.53.7-.17,1.01-.59,1.07-1.25.04-.45.06-.9.06-1.35,0-2.55,0-5.1,0-7.65,0-.22,0-.45-.01-.67q-.08-1.41-1.45-1.88c-.14-.05-.28-.1-.42-.17-.04-.02-.06-.07-.08-.11.04-.21.2-.18.35-.18,3.07.01,6.15.02,9.22.04.22,0,.54-.07.52.25-.03.9.35,1.75.31,2.64,0,.14.06.31-.18.41-.36-.44-.47-1-.66-1.51-.16-.44-.43-.7-.85-.88-1.35-.57-2.77-.59-4.2-.6-.39,0-.45.26-.45.55,0,1.65,0,3.3,0,4.95,0,.4.17.53.56.47.52-.09,1.03-.15,1.56-.16.51-.01.84-.32,1.03-.82.22-.58.26-1.21.44-1.88.26.29.19.49.19.67,0,1.65-.02,3.3-.02,4.96,0,.15,0,.24-.15.27-.17.03-.3,0-.31-.21,0-.2.01-.4-.03-.6-.26-1.34-1.61-2.21-2.95-1.93-.32.07-.32.27-.32.49,0,1.6,0,3.2.03,4.8.02.72.42,1.21,1.11,1.44.25.09.51.17.76.32-2.03.28-4.05.27-6.21.12Z"/>
      <path class="cls-1" d="m191.27,54.49c-.15-.96.02-1.9.19-2.82.51-2.7.35-5.34-.42-7.96-.24-.83-.88-1.38-1.39-2.02-.26-.33-.52-.19-.73.1-.48.67-.76,1.4-.69,2.24.11,1.43.04,2.88.45,4.28.02.08.01.23-.04.26-.06.04-.21.02-.27-.03-.78-.64-1.53-1.33-1.61-2.4-.05-.7-.04-1.38-.31-2.04-.24-.58-.14-1.15.17-1.7.32-.58.38-1.17.19-1.86-.17-.59-.16-1.28.17-1.89.36-.68.91-.92,1.62-.58,1.89.93,3.45,2.2,4.19,4.25.55,1.53.53,3.15.37,4.72-.16,1.56-.35,3.15-.96,4.63-.38.92-.7,1.85-.92,2.82Z"/>
      <path class="cls-1" d="m184.36,51.83c.49-.26.9-.04,1.27.08,1.03.33,2.12.6,2.97,1.3.89.74,1.25,1.71,1.37,2.93.24,2.53-.99,4.27-2.5,6.02-1.47,1.71-3.4,2.06-5.44,2.18-1.13.06-2.13-.57-3.22-.79-1.16-.23-2.06-1.02-3.08-1.55-.13-.07-.29-.16-.21-.34.08-.16.26-.11.4-.09.45.08.89.21,1.26.45,1.32.85,2.77.7,4.21.57,1.08-.1,2.07-.52,3.02-1.04,1.83-1,2.73-2.53,2.8-4.61.04-1.26-.16-2.41-.87-3.49-.49-.75-1.27-1.08-1.98-1.62Z"/>
      <path class="cls-1" d="m126.43,61.69c-1.76,1.43-3.77,2.03-5.82,2.51-1.34.31-2.59.08-3.89-.42-2.3-.87-3.44-2.73-4.49-4.72-.46-.86-.78-1.79-.62-2.8.24-1.56.88-2.84,2.4-3.52.82-.37,1.58-.86,2.49-.99.2-.03.49-.19.61.08.13.28-.18.37-.35.48-1.95,1.32-2.66,3.44-2.08,5.76.43,1.7,1.37,2.78,2.91,3.65,2.29,1.3,4.53,1.06,6.88.42.62-.17,1.16-.72,1.96-.46Z"/>
      <path class="cls-1" d="m110.45,54.51c-1.05-2.48-1.65-5.05-2.07-7.62-.45-2.74.15-5.36,2.25-7.34.75-.71,1.68-1.32,2.72-1.65.72-.23,1.36.21,1.42.98.03.47-.01.95,0,1.42,0,.69-.02,1.36.28,2.03.44.97.05,1.95-.19,2.91-.05.19-.13.39-.09.57.27,1.21-.7,1.83-1.26,2.64-.11.16-.31.24-.46.15-.23-.14.03-.29.06-.44.11-.48.24-.96.28-1.44.06-.81-.02-1.63.15-2.45.21-1.03-.25-1.9-.83-2.71-.26-.37-.41-.32-.7.04-2.38,2.93-2.5,6.27-1.85,9.76.16.85.1,1.73.43,2.54.08.18,0,.39-.13.61Z"/>
      <path class="cls-1" d="m70.48,75.72c1.08.21,1.98.14,2.88.11.99-.03,1.6.53,2.04,1.28.52.9.89,1.85,1.74,2.56.62.52.82,1.41,1.41,2.06,1.32,1.44,2.47,3.03,3.73,4.52.28.34.42.65.41,1.07-.01.67,0,1.35-.01,2.02,0,.18.05.43-.21.5-.25.07-.35-.14-.47-.29-1.47-1.89-2.94-3.79-4.39-5.69-1.36-1.78-2.71-3.57-4.08-5.35-.13-.16-.25-.43-.52-.33-.24.09-.14.35-.14.53-.04,3,.15,5.99.06,8.99-.03.87.89,1.61,1.99,1.72-.46.35-2.95.45-4.17.16.16-.31.47-.37.73-.45.78-.23.98-.8,1.04-1.53.28-3.24-.02-6.48.04-9.71.01-.61-.2-1.09-.86-1.33-.4-.14-.83-.31-1.23-.84Z"/>
      <path class="cls-1" d="m203.95,88.64c-.12.69-.55.77-.9.86-1.75.45-3.54.84-5.29.16-1.91-.75-3.37-1.92-3.9-4.15-.26-1.09-.49-2.16-.34-3.22.46-3.28,1.76-5.73,5.3-6.56,1.74-.41,3.38-.08,4.98.54.37.14.55.16.81-.1.19-.2.43-.27.44.12.04,1.36-.05,2.72.03,4.1-.26-.62-.54-1.24-.79-1.86-.65-1.64-2.08-2.72-3.86-2.58-1.39.1-2.64.68-3.28,2.1-.19.43-.4.86-.65,1.26-.39.61-.48,1.29-.53,1.99-.1,1.56-.24,3.11.24,4.65.7,2.23,3.14,4.01,5.67,3.32.64-.17,1.33-.16,2.06-.62Z"/>
      <path class="cls-1" d="m184.6,45.63c-1.11-1.14-1.9-2.36-1.76-3.98.04-.47-.06-.75-.53-1-1.33-.72-1.75-2.03-1.36-3.33.39-1.29.26-2.61.57-3.88.22-.88.52-1.63,1.57-1.87.61-.13.65.16.48.5-.64,1.27-.11,2.29.58,3.31.4.6,1.01.88,1.64,1.12.42.16.47.35.19.71-.96,1.25-1.01,2.67-.62,4.11.14.52.11.91-.32,1.16-.4.24-.44.57-.44.95,0,.69,0,1.39,0,2.18Z"/>
      <path class="cls-1" d="m117.01,43.88c.14-.64-.07-1.34-.72-1.89-.18-.16-.18-.33-.08-.53.72-1.47.46-2.86-.45-4.14-.37-.52-.4-.7.29-.93,1.5-.52,2.32-2.15,2.01-3.78,0-.02-.01-.05,0-.07.19-.41-.42-.91.01-1.21.35-.25,1.66.73,1.76,1.24.09.49.24.99.22,1.48-.04,1.2.52,2.25.71,3.38.25,1.44-.39,2.46-1.51,3.25-.4.29-.58.53-.52,1.14.15,1.32-.62,2.41-1.28,3.49-.07.12-.19.16-.32.12-.16-.05-.13-.19-.13-.31,0-.35,0-.7,0-1.24Z"/>
      <path class="cls-1" d="m226.25,89.46c-.64.41-5.24.45-5.97.02.46-.18.88-.34,1.3-.5.52-.2.81-.56.81-1.13-.02-3.47.09-6.94-.07-10.4-.02-.47-.21-.73-.67-.84-.4-.1-.78-.27-1.19-.71.51,0,.87,0,1.23,0,1.38,0,2.75,0,4.13,0,.14,0,.33-.07.37.14.04.21-.16.21-.29.25-.94.24-1.26.85-1.25,1.79.03,3.17-.06,6.34.03,9.51.03,1.29.33,1.75,1.59,1.89Z"/>
      <path class="cls-1" d="m209.43,49.14c.69-.54,1.52-.69,2.33-.92,1.5-.43,3.01-.78,4.58-.67,2.22.16,4.42.45,6.36,1.68.95.6,1.68,1.49,2,2.48.34,1.02.34,2.21-.18,3.28-.35.71-.69,1.43-1.06,2.14-.1.2-.24.38-.4.53-.12.11-.27.27-.46.18-.22-.11-.22-.37-.14-.53.26-.49.15-1,.09-1.48-.16-1.26.04-2.64-.76-3.72-.84-1.13-1.66-2.22-3.21-2.66-2.94-.84-5.86-.58-8.8-.22-.09.01-.18.09-.27,0-.02-.02-.03-.04-.1-.11Z"/>
      <path class="cls-1" d="m79.24,57.87c-.52-.16-.85-.45-1.03-.83-.49-1.03-1.02-2.05-1.37-3.13-.46-1.41.42-3.45,1.7-4.38.9-.65,1.94-.94,2.95-1.33,2.16-.84,4.4-.78,6.58-.41,1.34.23,2.77.46,3.99,1.22.12.07.22.11.16.3-1.94-.28-3.9-.46-5.88-.41-1.44.03-2.79.44-4.12.89-.72.24-1.2.86-1.67,1.46-1.44,1.87-1.62,4.01-1.38,6.24.01.1.03.19.06.38Z"/>
      <path class="cls-1" d="m107.25,14.43c2.04.25,4.09.38,5.9,1.42.04.02.09.04.13.07,1.5.85,1.99,2.22,1.01,3.62-.68.97-1.03,2.16-1.98,2.95-.69.57-1.29,1.25-1.95,1.87-.17.16-.39.41-.64.19-.19-.17-.04-.42.08-.61,1.09-1.72,1.04-3.62.81-5.52-.13-1.09-.86-1.88-1.69-2.57-.57-.47-1.12-.95-1.68-1.42Z"/>
      <path class="cls-1" d="m194.46,14.39c-.6.53-1.17,1.11-1.82,1.57-.77.54-1.17,1.26-1.41,2.13-.45,1.66-.36,3.29.27,4.89.12.32.27.66.26.99,0,.25.42.53.06.68-.22.09-.46-.25-.64-.43-.75-.77-1.56-1.49-2.19-2.35-.68-.93-1.3-1.94-1.75-3-.47-1.1-.16-1.89.82-2.6,1.34-.96,2.89-1.44,4.5-1.69.6-.09,1.2-.25,1.8-.37.04.06.07.11.11.17Z"/>
      <path class="cls-1" d="m181.9,53.54c1.29-.08,2.11.59,2.61,1.75.16.37.37.71.51,1.08.55,1.43.12,2.62-.96,3.63-.09.08-.19.19-.3.22-1.11.24-2.19.66-3.35.58-.17-.01-.39,0-.46-.19-.07-.21.14-.3.28-.39.51-.33.86-.82,1.29-1.24.87-.85.83-1.87.55-2.92-.15-.54-.45-.16-.66,0-.52.4-1.06.64-1.58.05-.31-.35-.93-.69-.67-1.21.38-.75,1.08-1.22,1.95-1.35.24-.04.5,0,.78,0Z"/>
      <path class="cls-1" d="m150.46,102.9c.08-.54.21-1.08.25-1.62.07-.89.48-1.61,1.01-2.27.77-.97,2.58-1.46,3.76-1.05.3.1.43.28.12.53-.14.11-.26.24-.42.31-1.46.67-2.31,1.93-3.13,3.22-.45.7-.65,1.49-.84,2.28-.2.82-.64,1.14-1.12.73-.07-.06-.19-.15-.19-.22,0-.74-.51-1.27-.75-1.9-.78-2.05-1.99-3.63-4.12-4.38-.1-.04-.22-.15-.24-.25-.04-.16.12-.18.24-.2,2.38-.47,4.2-.02,4.91,2.39.23.78.33,1.64.54,2.43Z"/>
      <path class="cls-1" d="m103.36,31.59c.49-.72.9-1.45,1.28-2.21.8-1.61.82-3.24.42-4.94-.23-1-.29-2.02.26-2.94.54-.89.88-1.03,1.67-.3,1.21,1.13,1.35,2.51,1.23,4.03-.19,2.46-1.93,3.9-3.48,5.46-.38.38-.73.82-1.38.9Z"/>
      <path class="cls-1" d="m193.35,24.46c-.15-1.34.58-2.33,1.32-3.3.37-.48.86-.43,1.3-.06.98.82,1.06,1.97.72,3.02-.68,2.1-.24,4.03.57,5.95.17.4.49.68.82.95.15.13.33.31.16.51-.21.25-.35-.03-.48-.14-1.87-1.57-3.51-3.31-4.32-5.69-.14-.42-.05-.83-.1-1.24Z"/>
      <path class="cls-1" d="m150.66,122.41c-.44-.96-.85-1.75-1.38-2.47-.6-.81-1.23-1.57-2.1-2.09-.49-.29-.32-.5.08-.59,1.22-.27,2.02-1.09,2.74-2.02.42-.55.88-.38,1.17.04.64.91,1.39,1.61,2.49,1.91.28.08.62.39.17.63-1.8.95-2.37,2.73-3.16,4.6Z"/>
      <path class="cls-1" d="m82.05,78.74c0-.22-.03-.45,0-.67.11-.81-.11-1.41-.98-1.64-.15-.04-.4-.13-.33-.33.06-.19.31-.26.51-.21.83.2,1.65.23,2.47-.02.15-.05.31.01.37.17.07.18-.09.28-.22.32-1.17.43-1.32,1.37-1.26,2.44.04.7.02,1.4.02,2.1,0,.21.08.54-.2.56-.32.02-.22-.31-.24-.52-.06-.73-.17-1.46-.15-2.2Z"/>
      <path class="cls-1" d="m65.67,85.14c-.24.02-.26-.24-.35-.44-.15-.37-.34-.72-.46-1.1-.17-.51-.49-.68-1.01-.67-.43.01-.88.08-1.34-.19,1.78-.02,2.82-.84,2.97-2.65.06.01.13.03.19.04v5.01Z"/>
      <path class="cls-1" d="m203.95,88.49c.58-.9,1.11-1.71,1.18-2.71.36,1.02-.21,2.42-1.18,2.71Z"/>
      <polygon class="cls-1" points="104.96 46.09 104.98 46.14 104.93 46.14 104.96 46.09"/>
      <path d="m169.93,26.18c-.09,1.13-.42,3.11-1,5.09-.89,3.03-2.61,5.53-4.72,7.72-1.57,1.63-3.43,2.98-5.55,3.96-1.61.75-3.31,1.1-5,1.42-2.23.42-4.5.45-6.71-.23-.17-.05-.33-.12-.51-.13-1.65-.18-3.07-1.04-4.57-1.63-.62-.24-1.2-.59-1.51-1.24-.03-.06-.09-.12-.15-.14-1.67-.55-2.64-1.9-3.71-3.16-.62-.74-1.15-1.56-1.81-2.25-.68-.7-.96-1.61-1.22-2.44-.51-1.68-1.32-3.27-1.49-5.06-.17-1.71-.19-3.4-.07-5.1.14-2.02.85-3.88,1.57-5.72,1.09-2.79,2.79-5.17,5.34-6.86.37-.25.74-.52,1.07-.81,2.43-2.11,5.37-2.92,8.46-3.42,2.53-.41,4.96-.03,7.44.54,2.38.55,4.34,1.71,6.3,3.09,1.68,1.18,3.13,2.52,4.39,4.12.73.94,1.22,2.01,1.68,3.06,1.16,2.63,1.88,5.41,1.78,9.23Zm-25.6-12.97c-1.85,0-3.7,0-5.55,0-.29,0-.76-.13-.75.35.01.37.44.22.68.24,1.16.08,2.03.51,2.54,1.64.35.77.48,1.57.48,2.37.02,4.95.07,9.9-.04,14.84-.05,2.27-.77,3.51-3.2,3.95-.17.03-.4.01-.4.22,0,.19.23.26.4.29.19.03.4.02.59-.01,1.03-.18,2.07-.25,3.12-.21,1.94.07,3.9-.17,5.83.25.28.06.76.15.81-.28.04-.35-.42-.27-.65-.34-1.56-.48-2.78-1.93-2.95-3.6-.02-.16-.07-.38.1-.48.21-.12.3.09.41.21.13.15.26.3.36.47.38.65.89,1.21,1.44,1.69,1.37,1.18,2.99,1.89,4.74,2.33.54.14,1.09.28,1.65.34,1.5.18,2.99.17,4.45-.28,1.28-.39,2.53-.79,3.55-1.77,1.07-1.03,1.93-2.13,2.21-3.61.04-.22.35-.46-.02-.63-.27-.12-.54-.06-.72.21-.2.29-.35.6-.33.97.02.3-.01.6-.19.86-1.39,2.03-3.36,3.2-5.77,3.34-3.9.22-6.85-2.28-8.19-5.42-.52-1.21-.95-2.54-.94-3.93,0-.59.02-1.18-.2-1.76-.18-.48.19-.86.63-.67,1.15.5,2.31,1.02,2.7,2.39.19.69.36,1.39.54,2.09.04.17.06.38.29.37.21-.01.26-.21.27-.39.02-.2.04-.4.03-.6-.05-1-.09-2-.16-2.99-.14-1.9.23-3.78.28-5.67,0-.28.13-.69-.31-.71-.44-.01-.54.36-.51.75.05.72-.11,1.36-.5,1.99-.56.87-1.39,1.3-2.3,1.66-.27.11-.55.31-.83.06-.3-.27-.08-.53.07-.79.12-.21.21-.46.26-.7.15-.7.23-1.42.43-2.11.56-1.89,1.57-3.5,2.96-4.92.78-.79,1.15-.87,1.95-.07.89.89,1.73,1.8,1.95,3.11.06.32.31.64.68.57.37-.07.2-.46.22-.71.02-.22-.05-.44-.08-.66-.13-.95-.5-1.86-.49-2.84,0-1.32,0-1.37,1.26-1.25,1.13.11,2.22.45,3.04,1.27.93.94,1.8,1.92,2.32,3.19.34.84.62,1.68.9,2.54.07.21.09.5.37.48.31-.02.35-.32.37-.57.01-.17.01-.35,0-.52-.12-1.94-.29-3.89-.15-5.84.01-.19.08-.44-.13-.55-.25-.13-.41.12-.57.26-.37.32-.82.52-1.27.39-.76-.21-1.53-.4-2.28-.69-1.46-.57-2.96-.8-4.57-.62-1.9.21-3.73.82-5.71.56-1.67-.22-3.39-.04-5.09-.05Z"/>
      <path d="m49.11,79.54c0-.85.03-1.69,0-2.54-.02-.55.25-.82.73-.77.68.07,1.35.23,2.01.39.58.14.92.52,1.07,1.12.28,1.08.33,2.17.06,3.24-.28,1.1-1.05,1.64-2.17,1.68q-1.64.07-1.64-1.55c0-.52,0-1.05,0-1.57-.02,0-.04,0-.06,0Z"/>
      <path d="m240.01,83.12c-.28,1.73-.33,3.6-1.66,5.01-1.15,1.21-2.59,1.79-4.26,1.3-1.61-.47-2.72-1.53-3.21-3.16-.79-2.67-.68-5.29.45-7.86.6-1.38,1.75-2.1,3.11-2.46,1.45-.39,3.55.67,4.29,2.02.87,1.59,1.01,3.35,1.29,5.15Z"/>
      <path d="m136.75,83.88c-.07-1.5-.09-2.83.4-3.98.69-1.66,1.32-3.45,3.5-3.9,1.54-.32,3.56.5,4.35,1.8,1.56,2.52,1.76,5.22,1.07,7.99-.5,2.01-2.45,4.07-5,3.77-1.99-.23-3-1.56-3.81-3.16-.43-.86-.5-1.8-.52-2.51Z"/>
      <path class="cls-2" d="m144.33,13.21c1.7,0,3.42-.17,5.09.04,1.98.26,3.82-.35,5.71-.56,1.61-.17,3.11.06,4.57.62.75.29,1.52.48,2.28.69.45.13.9-.06,1.27-.39.16-.14.32-.38.57-.26.21.11.14.36.13.55-.14,1.95.03,3.89.15,5.84.01.17,0,.35,0,.52-.02.25-.06.55-.37.57-.28.02-.3-.27-.37-.48-.28-.85-.56-1.7-.9-2.54-.51-1.27-1.39-2.25-2.32-3.19-.82-.83-1.92-1.16-3.04-1.27-1.26-.13-1.25-.08-1.26,1.25,0,.98.36,1.89.49,2.84.03.22.1.45.08.66-.02.25.15.63-.22.71-.37.07-.62-.25-.68-.57-.23-1.31-1.06-2.22-1.95-3.11-.8-.8-1.17-.72-1.95.07-1.39,1.41-2.41,3.02-2.96,4.92-.2.68-.28,1.41-.43,2.11-.05.24-.14.49-.26.7-.15.27-.36.52-.07.79.28.25.55.05.83-.06.9-.37,1.74-.79,2.3-1.66.4-.62.56-1.27.5-1.99-.03-.39.07-.76.51-.75.44.01.32.42.31.71-.05,1.89-.41,3.77-.28,5.67.07,1,.12,1.99.16,2.99,0,.2,0,.4-.03.6-.02.18-.06.38-.27.39-.23.01-.25-.2-.29-.37-.18-.7-.34-1.4-.54-2.09-.38-1.37-1.55-1.89-2.7-2.39-.44-.19-.82.19-.63.67.23.59.21,1.18.2,1.76,0,1.39.42,2.72.94,3.93,1.34,3.13,4.29,5.63,8.19,5.42,2.42-.13,4.38-1.3,5.77-3.34.18-.26.21-.56.19-.86-.02-.37.13-.68.33-.97.19-.27.46-.33.72-.21.37.17.06.41.02.63-.29,1.48-1.14,2.58-2.21,3.61-1.02.98-2.27,1.38-3.55,1.77-1.46.45-2.95.46-4.45.28-.55-.07-1.1-.21-1.65-.34-1.74-.44-3.37-1.15-4.74-2.33-.55-.48-1.06-1.04-1.44-1.69-.1-.17-.23-.32-.36-.47-.11-.12-.21-.33-.41-.21-.18.11-.12.32-.1.48.17,1.67,1.39,3.12,2.95,3.6.23.07.7,0,.65.34-.05.42-.53.34-.81.28-1.93-.43-3.88-.19-5.83-.25-1.05-.04-2.09.03-3.12.21-.19.03-.4.04-.59.01-.16-.03-.4-.09-.4-.29,0-.21.23-.19.4-.22,2.43-.44,3.14-1.68,3.2-3.95.12-4.94.06-9.89.04-14.84,0-.81-.13-1.6-.48-2.37-.52-1.13-1.39-1.56-2.54-1.64-.24-.02-.67.13-.68-.24-.01-.49.46-.35.75-.35,1.85-.01,3.7,0,5.55,0Zm.88,4.64c.07.2-.08.46.19.54.24.07.43-.06.56-.27.09-.15.18-.3.26-.45.78-1.46,2.06-2.38,3.42-3.23.18-.11.38-.17.33-.42-.06-.31-.32-.18-.49-.18-1.12-.02-2.25,0-3.37-.03-.5-.01-.67.21-.7.66-.08,1.14.14,2.29-.2,3.39Z"/>
      <path d="m145.21,17.85c.34-1.1.12-2.25.2-3.39.03-.44.2-.67.7-.66,1.12.03,2.25,0,3.37.03.17,0,.43-.12.49.18.05.25-.16.31-.33.42-1.36.84-2.64,1.77-3.42,3.23-.08.15-.18.3-.26.45-.13.21-.32.34-.56.27-.27-.08-.12-.34-.19-.54Z"/>
    </g>
  </g>
</svg>