<?xml version="1.0" encoding="UTF-8"?>
<svg id="Layer_1" data-name="Layer 1" xmlns="http://www.w3.org/2000/svg" viewBox="0 0 244.87 125.82">
  <path d="m108.84,51.5c-1.19-.37-2.38-.73-3.56-1.11-2.33-.75-4.73-.99-7.15-.9-1.58.06-2.82-.63-3.94-1.57-.56-.47-.64-1.29-.89-1.96-.33-.88-.59-1.78-.93-2.65-.51-1.29-.34-2.44.61-3.46.15-.16.3-.37.22-.55-.49-1.02.08-1.98.14-2.96.16-2.39,1.17-4.45,2.55-6.36.15-.2.31-.54.57-.47.33.08.15.45.15.68,0,1.2-.02,2.4-.03,3.59,0,2.06,1.04,3.68,2.15,5.23,1.03,1.45,2.36,2.67,3.95,3.51,2.17,1.14,4.17,2.56,6.2,3.9,1.79,1.18,3.61,2.35,5.22,3.8,1,.9,1.93,1.87,3.11,2.58.59.35.83,1.1,1.36,1.59,1.04.97,2,2.03,2.84,3.19.66.9,1.06.88,1.58-.09.77-1.44,1.82-2.67,2.94-3.83,1.45-1.51,3.05-2.85,4.72-4.09,3.07-2.28,6.37-4.22,9.68-6.14.78-.46,1.63-.79,2.44-1.23,1.53-.84,2.76-1.97,3.79-3.34.94-1.26,1.37-2.76,1.49-4.29.12-1.59.04-3.2-.58-4.72-.05-.13-.04-.34.03-.45.16-.21.39,0,.46.08.67.68,1.53,1.28,1.89,2.11.48,1.09.99,2.2,1.26,3.4.27,1.15.5,2.28.39,3.45-.1,1.1.33,2.01.79,2.92.29.59.31,1.13,0,1.71-.61,1.12-1.13,2.24-1.14,3.59,0,1.35-1.52,2.57-3.23,2.64-5.16.24-10.1,1.5-14.77,3.57-3.7,1.65-6.93,4.06-8.89,7.8-.53,1.01-1.14,1.97-1.49,3.14-2.89-4.5-6.6-8.09-10.97-11.03.44-.5.05-.63-.34-.8-.61-.26-1.21-.56-1.8-.86-.2-.1-.29-.43-.57-.32-.31.12-.22.43-.23.68l-.02.02Z"/>
  <path d="m114.64,45.73c-3.3-.86-5.95-2.8-8.38-5.08-2.35-2.21-3.97-4.94-5.18-7.88-.58-1.41-1.15-2.85-1.46-4.35-.38-1.82-.12-3.67-.25-5.51-.29-4.06,1.06-7.74,2.88-11.24.86-1.66,2.01-3.15,3.44-4.49,1.43-1.34,2.86-2.63,4.51-3.7,1.15-.74,2.37-1.3,3.66-1.73.02.2.12.36.34.33.66-.1,1.31-.22,1.92-.49.25-.11.27-.35.26-.59,3.81-1.28,7.62-1.35,11.45-.11.1.49.49.62.9.73.45.12.95.15,1.32.38.44.28.75.2,1.1-.08,2.17.69,4.03,1.97,5.77,3.35,1.34,1.06,2.61,2.27,3.67,3.61,1.62,2.04,2.72,4.4,3.56,6.88.54,1.59.93,3.16.98,4.86.04,1.34.14,2.69.11,4.04-.07,3.83-1.03,7.45-2.93,10.75-1.07,1.86-2.33,3.59-3.9,5.13-1.52,1.49-3.27,2.57-5,3.71-2.04,1.35-4.36,2.08-6.79,2.4-1.67.22-3.33.6-5.03.49-.76-.05-1.51-.14-2.24-.34.05-.34-.16-.45-.44-.51-1.3-.28-2.6-.56-3.9-.84-.23-.05-.34.05-.36.27h-.01Zm7.45-42.61c-1.48.05-2.93.26-4.38.57-2.64.57-5.06,1.56-7.1,3.37-.25.22-.52.44-.81.61-2.1,1.23-3.54,3.1-4.69,5.14-1.32,2.36-2.21,4.9-2.56,7.61-.34,2.6-.34,5.21.27,7.73.73,2.97,1.79,5.83,3.85,8.25,1.71,2.02,3.63,3.76,5.85,5.12,2.19,1.34,4.67,1.95,7.2,2.37,3.96.65,7.76-.07,11.24-1.85,4.83-2.46,8.3-6.23,10.07-11.49.81-2.4,1.11-4.84,1.21-7.31.11-2.68-.5-5.27-1.5-7.74-.64-1.58-1.46-3.07-2.44-4.49-1.42-2.05-3.5-3.25-5.38-4.71-1.84-1.42-4-2.16-6.27-2.63-1.51-.31-3.01-.58-4.55-.56h-.01Z"/>
  <path d="m133.68,62.79c-.25-.74-.5-1.47-.75-2.21-.11-.33-.25-.37-.55-.14-2.41,1.91-4.82,3.82-7.25,5.7-.88.68-1.87,1.29-3.01,1.27-.85,0-1.68-.46-2.32-.94-1.63-1.2-3.5-2.1-4.84-3.67-.87-1.01-2.04-1.68-2.9-2.69-.14-.16-.3-.35-.52-.28-.31.1-.16.4-.17.61-.02.78.02,1.55-.24,2.31-.3.87-.87,1.47-1.69,1.84-1.61.72-3.32.61-5,.48-.79-.06-1.38-.79-2.05-1.23-.37-.24-.13-.92-.23-1.4-.13-.61-.14-1.28.06-1.92.21-.69,0-.87-.73-.7-.1.02-.2.07-.3.08-.2.03-.43.2-.58,0-.15-.2.05-.38.16-.55,1.23-1.85,2.89-2.48,4.84-1.78.91.32,1.2,1.25,1.69,1.96.17.25-.17.37-.43.33-.49-.06-.95-.19-1.4-.41-.32-.16-.73-.3-1.03,0-.27.26-.17.64-.09.97.3,1.32,1.43,1.89,2.45,2.45.54.3,1.16-.24,1.53-.72,1.01-1.31.98-2.84.42-4.23-.55-1.36-1.61-2.34-3.3-2.33-1.72,0-3.2.38-4.41,1.74-.91,1.02-2.01,1.89-3.1,2.74-1.93,1.49-4.61,2.09-7.15,1.69,0-.27.55-.26.34-.57-.11-.16-.39-.23-.61-.27-.64-.12-1.28-.22-1.93-.32-.88-.14-2.11-1.4-2.13-2.43-.02-1.63.27-3.21,1.69-4.31,1-.78,3.4-.57,4.21.38.37.44.29,1.4-.21,1.85-.48.45-1,.51-1.53.03-.2-.18-.41-.52-.72-.34-.27.15-.28.51-.34.82-.33,1.91.96,3,2.18,4.03.49.42,1.36.13,1.79-.31.92-.95,2.1-1.62,2.93-2.67.4-.51.9-.95,1.28-1.48,1.03-1.43,2.45-2.33,4.06-2.95,1.29-.5,2.62-.42,3.92-.02,2,.61,3.95,1.41,5.63,2.64,1.24.9,2.35,1.99,3.41,3.1,1.14,1.19,2.52,2.13,3.57,3.39,1.11,1.32,2.43,2.39,3.74,3.49.37.31.67.36,1.02.05,1.32-1.17,2.7-2.28,3.68-3.79.31-.47.91-.67,1.32-1.08,2.12-2.12,4.38-4.09,6.77-5.9,1.95-1.48,4.14-2.47,6.72-2.18.35.04.67.11.97.26,1.57.77,3.01,1.63,3.89,3.27.87,1.63,2.42,2.69,3.72,3.96-.23.06-.46.19-.67.17-.62-.06-.6.27-.48.7-.63-.21-1.14-.64-1.57-1.08-1.36-1.4-2.85-2.66-4.21-4.05-.8-.82-2.02-1.35-3.11-1.1-1.34.31-2.78.61-3.67,2.03-.59.95-1.21,1.75-1.09,2.95.1,1.03,1.05,2.39,2.06,2.59.75.15,1.48.03,1.99-.62.52-.65.7-1.38.39-2.19-.21-.54-.64-.63-1.13-.63.02-.23-.23-.42-.08-.66.3-.49,1.98-.87,2.51-.56.6.35,1.14.76,1.5,1.38-.31.18-.18.48-.13.7.3,1.15.03,2.25-.19,3.36-.05.23-.22.35-.38.47-1.07.84-2.2,1.47-3.64,1.3-.62-.07-1.25.02-1.87-.03-.51-.04-1.03-.17-1.35-.65-.03-1.02-.48-1.59-1.32-1.67l-.04-.02Z"/>
  <path d="m217.51,65.28c-.33-.65-.96-1-1.58-1.19-1.84-.56-3.64-1.23-5.56-1.49-1.83-.25-3.62-.03-5.43.17-2.16.24-4.3.73-6.36,1.31-3.13.87-6.27,1.7-9.44,2.31-2.71.52-5.46.93-8.25.87-1.54-.03-3.04-.33-4.53-.64-1.1-.23-1.65-1.27-2.38-2.02-.05-.05-.06-.14-.07-.22-.08-.9,1.27-2.77,2.22-3.05,0,.55.04,1.1,0,1.64-.05.55.2.87.64,1.14,1.34.79,2.73,1.07,4.24.58-.03.41.19.49.54.4,1.23-.31,2.46-.61,3.69-.92.31-.08.52-.25.47-.61,1.07-.66,2.33-.8,3.47-1.27,1.82-.75,3.77-1.09,5.65-1.61,1.96-.54,3.88-1.3,5.93-1.51.06.53.42.53.81.46,1.85-.38,3.69-.78,5.54-1.16,1.49-.3,2.99-.29,4.5-.09.93.12,1.71.61,2.58.87.34.1.69.26.7-.33,1.65.6,2.52,2,3.43,3.36.34.51.69,1.05.8,1.67.09.48.35.64.8.61-.32.72-1.45,1.07-2.37.73h-.03Z"/>
  <path d="m68.04,63.94c.9-.92.35-1.87.01-2.83,1.43.31,2.64,1.97,2.51,3.34-.03.31-.18.53-.38.74-.86.91-1.93,1.38-3.14,1.67-2.11.5-4.26.6-6.37.26-2.82-.45-5.71-.47-8.44-1.45-1.32-.47-2.81-.29-4.07-1.01-.07-.04-.13-.08-.19-.12.03-.32.05-.63-.34-.76-.46-.17-.91-.45-1.38-.48-.55-.03-1.35-.47-1.56.55-2.27-.54-4.54-1.01-6.87-1.28-3.26-.37-6.23.5-9.22,1.5-.58.19-1,.65-1.48,1-.16.12,0,.22.02.34-.61.23-1.17-.14-1.77-.13-.51,0-.83-.24-.91-.75.51-.03.87-.27,1.09-.75.24-.52.55-1,.78-1.52.66-1.46,1.76-2.48,3.15-3.22,0,.32.07.53.46.38.24-.09.49-.18.73-.28,2.18-.98,4.47-1.09,6.8-.76,1.69.25,3.35.67,5.02,1.07.41.1.94.27,1.27-.26.66-.03,1.32.14,1.9.36,1.76.65,3.63.9,5.41,1.48,2.73.89,5.56,1.46,8.22,2.58-.01.23.06.38.31.45.67.19,1.34.39,2,.61.7.23,1.47.26,2.12.67,1.11.7,3.42.3,4.23-.73.17-.21.09-.44.1-.67h-.01Z"/>
  <path d="m93.01,17.74c-.97,2.43-3.23,3.49-5.2,4.85-.94.65-1.98,1.16-2.88,1.86-1.17.92-2.44,1.7-3.69,2.5-.5.32-.49.84-.87,1.17-1.68,1.48-3.38,2.93-4.64,4.84-1.32,1.99-2.35,4.06-2.96,6.37-.36,1.37-.66,2.73-.55,4.14.26,3.41.95,6.69,2.89,9.62.73,1.1,1.29,2.31,2.2,3.3.19.21.44.48.23.92-1.02-1.41-2.35-2.51-3.25-3.99-.92-1.52-1.93-2.96-2.64-4.63-.76-1.79-1.25-3.6-1.56-5.5-.44-2.64.11-5.1,1.27-7.45,1.17-2.37,2.67-4.52,4.56-6.39.56-.55,1.15-1.14,1.25-2.02.04-.37.39-.6.67-.84,1.59-1.42,3.27-2.76,4.74-4.3,1.14-1.19,2.43-2.3,3.21-3.81.29-.56.79-.97,1.18-1.43.85-.99,1.39-2.15,1.96-3.26,1.39-2.73,2.32-5.62,1.94-8.77,0-.04.04-.08.18-.36.99,1.94,1.94,3.71,2.5,5.67-.79.18-.45.83-.37,1.18.37,1.71.13,3.39-.05,5.07-.03.23-.16.35-.33.49-.48.38-.35.63.19.77h.02Z"/>
  <path d="m172.08,40.26c-.47-.93-.54-1.97-.96-2.93-.78-1.78-1.59-3.5-2.78-5.08-1.05-1.39-2.34-2.49-3.61-3.63-.42-.38-.49-.97-.84-1.29-.41-.39-.94-.72-1.44-1.03-2.09-1.28-4.07-2.71-6.16-4-2.31-1.43-4.57-3.05-5.48-5.87-.19-.58-.34-1.14-.4-1.74-.27-2.66.57-5.06,1.7-7.4.46-.95.9-1.91,1.39-2.93.29.34.2.64.18.89-.34,3.84,1.07,7.17,2.99,10.35.48.79.9,1.61,1.7,2.2.5.38.65,1.16,1.13,1.65,1.51,1.54,2.85,3.23,4.62,4.5.08.06.19.12.23.2.64,1.16,1.82,1.82,2.68,2.77.32.35.25.76.47,1.11.71,1.13,1.79,1.91,2.62,2.92.07.08.18.13.22.22.98,2,2.68,3.58,3.31,5.82.24.85.64,1.69.91,2.55.48,1.55.18,3.09-.26,4.59-.12.41.06.91-.36,1.23-.12-1.03-.37-2.03-.94-2.89-.27-.4-.41-.71-.26-1.19.17-.56,0-.97-.68-1l.02-.02Z"/>
  <path d="m193.53,45.26c-.93.02-1.86-.05-2.79-.14-3.87-.38-6.91,1.39-9.79,3.69-3.86,3.09-7.58,6.33-11.36,9.51-2.28,1.93-4.77,3.61-7.27,5.26-.31.2-.64.37-1.13.23.56-.76,1.23-1.35,1.92-1.91,1.78-1.46,3.52-2.95,5.07-4.65,1.94-2.11,4.07-4.05,5.83-6.31,1.44-1.86,2.96-3.65,4.68-5.24,1.27-1.17,2.4-2.56,4.15-3.1.86.31,2.15-.16,2.38-.87,1.06-.37,2.16-.6,3.27-.64,1.16-.04,2.29.27,3.41.59,2.12.61,3.71,1.94,5.08,3.59-.42.47-.89.42-1.39.16-.11-.06-.22-.2-.33-.2-.58,0-1.17-.67-1.73.04h0Z"/>
  <path d="m166.39,63.4c1.65-1.55,3.65-2.67,5.26-4.26,2.29-2.26,4.75-4.33,7.39-6.15,1.71-1.18,3.5-2.32,5.5-3.01,1.52-.52,3.11-.34,4.66-.14,1.2.16,2.34.52,3.43,1.13,1.74.97,2.41,2.52,2.74,4.31.09.48.46,1.19.05,1.45-.33.21-.72-.52-1.11-.79-1.78-1.23-3.71-2.12-5.87-2.38-1.86-.22-3.53.52-5.2,1.19-2,.81-3.71,2.11-5.5,3.27-2.07,1.34-4.16,2.66-6.18,4.08-1.25.88-2.48,1.8-3.74,2.66-.85.58-1.86.83-2.81,1.16-1.74.6-3.53.96-5.36,1.18.18-.54.56-.7,1.12-.75,1.75-.17,3.46-.48,4.82-1.75.13-.12.29-.22.46-.27.57-.16.6-.5.34-.95v.02Z"/>
  <path d="m193.69,103.09c-2.69.39-5.41.41-8.12.52-.38.02-.56.17-.81.44-.69.74-1.33,1.54-2.44,1.79-2.17.49-4.26.17-6.35-.39-.71-.19-1.44-.29-1.98.28-1.29,1.36-2.93,1.13-4.47.95-1.13-.13-2.29-.47-3.36-.89-1.99-.79-4.05-1.45-5.9-2.59.16-.44.33-.88.49-1.32,1.07-.04,2.13-.1,3.2-.11,7.95-.07,15.91-.12,23.86-.18.23,0,.47.03.7.05-.12.36-.42.22-.66.24-.29.02-.55.06-.69.38.53.21,1.04.26,1.57.25.97-.02,1.95-.1,2.9.03.69.09,1.53-.19,2.07.55h-.01Z"/>
  <path d="m170.32,46.15c-.11-.82-.21-1.5-.29-2.18-.23-1.99-.6-3.9-1.49-5.76-.62-1.3-1.48-2.41-2.24-3.6-.4-.62-1.18-.9-1.72-1.43-1.77-1.73-3.97-2.76-6.25-3.56-1.73-.61-3.59-.86-5.39-1.28-.81-.19-1.63-.38-2.41-.73h2.18s0-.08.02-.12c-.22-.06-.43-.14-.65-.16-3.11-.34-4.44-2.49-5.06-5.17-.54-2.34.34-4.5,1.3-6.73.33.39.33.72.36,1.04.2,1.88.88,3.59,2.05,5.05,1,1.25,2.29,2.18,3.93,2.5.57.11,1.09.32,1.62.57,1.53.73,3.09,1.4,4.59,2.18.31.16,1.22.14.74.99,0,.01.14.11.21.18,1.15,1,2.54,1.69,3.58,2.85,1.07,1.19,1.89,2.52,2.81,3.81,1.07,1.51,1.3,3.27,2.01,4.88.05.12.1.25.1.38,0,2.05.67,4.08.03,6.29h-.03Z"/>
  <path d="m58.8,101.64c2.38.02,4.75.04,7.13.05,6.45.03,12.9.06,19.35.08.44,0,.85.21,1.32.18-.67.3-1.3.68-1.97.88-1.71.51-3.19,1.5-4.83,2.16-1.98.8-4.03,1.21-6.06,1.75-1.48.39-2.76.05-3.9-.92-.69-.59-1.44-.54-2.28-.34-1.91.46-3.83.9-5.81.46-.73-.16-1.35-.45-1.87-1.04-.74-.83-1.65-1.34-2.85-1.31-1.19.04-2.4.15-3.55-.28,1.49-.23,2.96-.58,4.47-.64.95-.04,1.03-.12.87-1.04h-.02Z"/>
  <path d="m75.12,63.71c-.46-.12-.69-.53-1.04-.79-2.48-1.8-5.03-3.52-7.63-5.16-1.74-1.1-3.36-2.4-5.31-3.12-1.95-.72-3.93-1.44-6.07-.92-2.12.52-4.11,1.32-5.62,3-.11.12-.22.27-.38.22-.22-.06-.21-.29-.2-.46.06-.71.41-1.34.55-2.03.29-1.47,1.07-2.55,2.34-3.33,1.22-.75,2.5-1.28,3.95-1.34.57-.02,1.15-.09,1.72-.11,1.32-.05,2.55.21,3.78.77,1.58.71,3.06,1.62,4.4,2.63,1.73,1.3,3.53,2.54,5.13,4.05.71.67,1.57,1.31,2.22,2,1.18,1.25,2.72,2,3.88,3.22-.06.36-.36.41-.64.43-.59.05-.9.41-1.08.93h0Z"/>
  <path d="m47.67,45.25c2.15-2.96,5.21-4.06,8.73-4.19,1.01-.04,1.95.31,2.89.62.23.66,1.41,1.05,2.23.75,2.03.6,3.34,2.13,4.69,3.61.53.58,1.21.96,1.71,1.58,1.8,2.23,3.59,4.47,5.54,6.57.5.53,1,1.06,1.5,1.58-.18.3-.53.44-.66.1-.47-1.22-1.67-.82-2.5-1.19-.34-.15-.44.15-.43.44-1.28-1.1-2.49-2.29-3.86-3.26-1.85-1.31-3.37-3.02-5.32-4.19-.5-.3-.92-.68-1.35-1.07.02-.19,0-.38-.16-.5-1.06-.73-2.2-1.23-3.5-1.31-.3-.02-.51.09-.56.42-.7.2-1.38-.12-2.08-.1-1.09.03-2.18.09-3.26.13,0-.26,0-.42-.39-.36-.74.11-1.49.11-2.19.46-.3.15-.71.2-1.02-.1h-.01Z"/>
  <path d="m77.79,32.46c1-1.31,2.15-2.44,3.56-3.33.62-.39,1.37-.77,1.47-1.67.02-.19.22-.28.38-.37,2.19-1.15,4.37-2.32,6.74-3.08,1.08-.35,2.17-.72,2.98-1.49,1.38-1.32,2.61-2.75,2.6-4.86,0-.71.2-1.43.31-2.14.02-.12.08-.22.18-.22.14,0,.22.13.26.26.27.76.63,1.49.89,2.25.88,2.57.75,5.07-.84,7.37-.85,1.23-2.05,1.88-3.51,2.1-.43.06-.86.14-1.28.31h2.41c-.28.42-.65.41-.99.47-2.32.36-4.63.92-6.84,1.65-1.91.63-3.82,1.52-5.37,2.93-.13.12-.31.19-.46.28-.84-.11-1.8.49-2.48-.45h-.01Z"/>
  <path d="m12.84,91.02c.71-.5.87-1.2.86-2.03-.03-3.25-.06-6.51,0-9.76.02-1.09-.44-1.69-1.33-2.13-.2-.1-.46-.09-.63-.44,2.43.15,4.8-.08,7.17.17.71.08,1.37.22,2.04.48.8.3,1.33.85,1.57,1.63.36,1.19.49,2.47,0,3.6-.38.89-1.01,1.85-2.26,1.85-.43,0-.45.17-.22.47.02.02.03.05.05.06,1.47.99,1.72,2.72,2.47,4.14.51.95.97,1.89,2.13,2.36-1.01.63-2.01.5-3,.44-.12,0-.27-.24-.33-.4-.5-1.25-1.2-2.41-1.76-3.64-.53-1.18-1.09-2.5-2.53-3.01-.89-.32-1.14-.19-1.14.74,0,1.2,0,2.4.02,3.59.03,1.5.72,2.21,2.19,2.34-.59.34-3.49.5-5.31.28,0-.24,0-.47-.02-.71l.02-.03Zm3.07-10.26h.05v1.95c0,1.74,0,1.65,1.74,1.71,1.2.04,2.36-1.27,2.38-2.43,0-.75.03-1.51,0-2.26-.06-1.54-.59-2.18-2.06-2.5-.45-.1-.92-.09-1.38-.16-.52-.08-.77.25-.75.81.04.96,0,1.92,0,2.89h.02Z"/>
  <path d="m213.13,76.87c1.42.45,2.65,1.28,3.27,2.6.91,1.93,1.75,3.94,1.42,6.18-.28,1.84-.97,3.47-2.55,4.61-.32.23-.66.43-.95.69-1.26,1.13-2.82.85-4.31.97-2.15.18-3.77-.76-5.13-2.29-1.81-2.03-2.43-4.34-1.64-6.99.29-.97.89-1.82,1.03-2.85.05-.38.53-.54.83-.79.06.46.2.9.21,1.38,0,.32.15.67.58.71-.52,2.3-.69,4.59,0,6.9.56,1.87,1.77,3.08,3.63,3.51,1.93.45,3.45-.4,4.66-1.87.5-.6.49-1.41.76-2.09.59-1.44.54-2.89.4-4.37-.09-.97-.68-1.83-.75-2.74-.1-1.24-.75-2.06-1.48-2.9v-.65h.02Z"/>
  <path d="m79.66,90.46c.39-1.78.14-3.58.21-5.37.01-.36-.22-.4-.52-.4-1.99,0-3.97,0-5.96-.03-.55,0-.81.18-.79.78.04,1.2.01,2.4.03,3.59.02,1.53.47,2.09,1.93,2.55-2.15.27-4.29.21-6.44.14,0-.07-.01-.14-.02-.2.49-.21.99-.41,1.47-.64.55-.25.83-.69.83-1.3v-10.08c0-.43-.18-.85-.15-1.3.03-.37-.28-.53-.57-.67-.47-.23-.94-.44-1.39-.78h6.33c-2.05.42-2.06,1.92-2,3.51.05,1.12.03,2.24-.02,3.36-.02.56.19.73.72.73,1.98,0,3.97,0,5.95.03.38,0,.58-.11.58-.53-.02-1.69-.02-3.39-.03-5.08,0-.4-.14-.76-.32-1.11,1.1.18,1.14.29,1.27,1.38.2,1.67.17,3.34.15,5.02-.03,1.89.02,3.79-.16,5.68-.08.87-.34,1.06-1.11.75v-.03Z"/>
  <path d="m221.45,90.47c.31-.94.2-1.91.2-2.87,0-2.68-.04-5.37-.02-8.05,0-1.14-.14-2.1-1.44-2.44-.15-.04-.36-.1-.39-.38,1.06-.11,2.12-.1,3.17-.03.71.05,1.19.61,1.5,1.13.32.55.69,1.09.94,1.68.1.23.37.41.12.76-.17.24.14.49.36.6.58.29.86.78,1.06,1.35.07.21.23.4.38.57.77.89,1.61,1.73,2.29,2.7.47.69.95,1.37,1.6,1.91.15.12.16.44.44.35.27-.09.19-.36.16-.54-.31-1.81-.04-3.64-.11-5.46-.04-.91,0-1.82,0-2.73h.46c.03,2.68.06,5.36.08,8.04.01,1.33.01,2.66,0,3.98,0,.28.1.65-.21.77-.38.15-.53-.26-.7-.48-1.63-2.09-3.19-4.23-4.89-6.27-1.15-1.38-1.99-3-3.28-4.27-.3-.3-.26-.72-.34-1.1-.06-.28-.22-.59-.54-.59s-.2.36-.29.55c-.21.43-.18.89-.11,1.3.43,2.43.18,4.88.13,7.32,0,.68-.02,1.35.13,2.02-.24.05-.48.1-.72.15l.02.03Z"/>
  <path d="m115.73,116.9v-.7c0-.27.03-.54-.3-.64-.34-.1-.62,0-.81.3-.03.04-.06.08-.08.13-.23.61-.9,1.21-.36,1.86.55.66,1.43.93,2.28.75,1.7-.35,3.18-1.07,3.99-2.78.34-.72.93-1.32,1.22-2.08.14-.36.33-.27.5-.04.14.19.24.4.34.61.64,1.3,1.44,2.51,2.64,3.34,1.27.89,2.44,1.36,3.88.56.58-.33.59-.86.63-1.31.03-.39-.04-.9-.59-1.14-.68-.29-1.09-.08-1.07.65,0,.26.11.51.13.77.02.29.2.64-.15.86-.31.19-.68.17-.98.06-.91-.34-1.27-1.97-.61-2.66,1.08-1.13,3.2-.91,3.87.48.25.51.2,1.2,0,1.75-.81,2.16-2.27,2.92-4.83,2.06-1.15-.38-2.03-1.25-2.89-2.07-.47-.44-.67-.55-1.19.03-.98,1.08-2.27,1.82-3.6,2.42-.39.18-.95.13-1.39.03-1-.25-1.83-.81-2.55-1.57-.73-.76-.85-1.5-.4-2.46.72-1.54,3.03-1.94,4.14-.65.38.44.42.97.14,1.53-.32.62-.65,1.21-1.46,1.22-.31,0-.49-.14-.47-.47,0-.29.03-.57.04-.86h-.02l-.05.02Z"/>
  <path d="m134.21,84.99c.02,2.18.04,4.37.06,6.55,0,.12.05.28-.1.35-.2.11-.27-.09-.36-.2-1.05-1.32-2.14-2.6-3.12-3.98-.96-1.36-2.05-2.69-3.18-3.93-.94-1.02-1.45-2.35-2.53-3.24-.23-.19-.03-.37,0-.56.06-.41-.16-.71-.53-.72-.41-.02-.24.38-.24.6,0,3.07,0,6.14,0,9.21,0,.72.12,1.4.58,1.98-.61.1-.73-.58-1.18-.74.23-.92.19-1.86.19-2.79,0-2.45-.05-4.9,0-7.34.02-1.48.06-2.91-1.91-3.33,1.18-.23,2.3-.31,3.36-.1.71.13,1.18.83,1.46,1.53.17.42.38.77.76,1.05.23.17.78.4.23.85-.16.13.05.13.09.19,1.19,1.6,2.29,3.27,3.6,4.78.73.84,1.16,2,2.32,2.5.46-.84.05-1.77.25-2.63h.29l-.02-.03Z"/>
  <path d="m58.8,101.64c.17.92.08,1-.87,1.04-1.51.06-2.98.41-4.47.64-3.07-.07-6.13-.31-9.21-.34-4.45-.05-8.91-.13-13.36-.33-2.88-.13-5.76-.32-8.64-.44-.48-.62-1.17-.47-1.8-.46-.53.01-.54-.21-.39-.6,3.06-.07,6.11-.03,9.17.03.81.02,1.61.04,2.42.06.24.67.82.79,1.41.8,1.59.02,3.17.05,4.76-.01.58-.02,1.26.07,1.69-.53,2.01-.1,4.02.03,6.03.04,4.42.04,8.83.07,13.25.1h.01Z"/>
  <path d="m32.62,77.16c-.84.11-1.68-.09-2.53-.01-.48.05-.63.2-.63.66.02,2.03.02,4.06.02,6.1,0,1.64,0,3.28,0,4.92,0,1.14,1.07,2.31,2.23,2.38.62.04,1.25.03,1.88,0,1.99-.09,3.22-1.21,3.57-3.18.04-.25.13-.49.2-.78.27.31.27.62.26.94-.02.83-.11,1.67-.06,2.5.07,1.17.01,1.07-1.11,1.08-3.16.02-6.32.02-9.48.02-.47,0-.99.1-1.42-.38.24-.25.64-.13.88-.38.5-.52.89-1.03.88-1.83-.04-3.31-.05-6.62,0-9.93.02-1.15-.49-1.8-1.49-2.2-.23-.09-.52-.11-.6-.33h7.39c0,.14,0,.28,0,.42Z"/>
  <path d="m40.22,90.48c.36-3.24.31-6.48.14-9.72-.01-.26-.04-.53,0-.78.21-1.42-.01-2.58-1.66-2.97-.17-.04-.3-.2-.34-.44.94.14,1.88.14,2.81.07,1.11-.07,1.83.53,2.24,1.4.37.8,1.15,1.46.98,2.48-.01.06.04.16.1.2,1.41,1.23,2.18,2.96,3.48,4.3,1.04,1.07,1.92,2.31,2.82,3.52.43.58.17,1.32.19,1.99.02.46.28,1.15-.25,1.32-.47.15-.66-.55-.93-.91-2.26-3.02-4.76-5.86-6.87-9-.2-.3-.47-.56-.71-.83-.35-.39-.69-.77-.67-1.35.01-.37-.26-.62-.58-.62-.41,0-.24.39-.25.61,0,3.31.24,6.61.1,9.92-.01.3.1.56.23.81h-.84,0Z"/>
  <path d="m83.32,43.39c.03-.93-.39-1.71-.89-2.45-.26-.38-.41-.47-.78,0-2.45,3.04-2.62,6.49-1.93,10.11.17.9.07,1.85.48,2.72.11.23-.04.49-.17.76-1.03-2.69-1.71-5.43-2.19-8.2-.38-2.19.05-4.38,1.3-6.28.94-1.44,2.39-2.31,3.94-2.97.72-.31,1.42.21,1.47,1.02.03.49,0,.99,0,1.48,0,.72-.04,1.42.3,2.12.3.62.23,1.3.07,1.97-.2.83-.5,1.64-.35,2.52.04.21-.06.41-.28.51-.41-.26-.57-.62-.53-1.11.04-.57,0-1.14.01-1.71,0-.31-.08-.51-.43-.48h-.02Z"/>
  <path d="m87.82,30.08c.54.23.99.42,1.45.6.36.15.5.44.56.79.09.51.26,1.03.24,1.54-.05,1.27.56,2.4.75,3.61.25,1.52-.45,2.55-1.62,3.38-.4.28-.57.53-.5,1.12.15,1.41-.63,2.58-1.38,3.71-.15.23-.43.21-.44-.18,0-.39-.04-.78,0-1.17.07-.81.02-1.57-.73-2.09-.24-.17-.2-.38-.1-.62.67-1.59.5-3.09-.57-4.45-.36-.46-.25-.59.27-.76,1.65-.53,2.62-2.28,2.27-3.94-.09-.45-.12-.91-.2-1.53h0Z"/>
  <path d="m236.97,89.99c.78.74,1.68,1.31,2.69,1.68.83.31,2.48-.64,2.74-1.62.53-2.02.05-3.42-1.92-4.45-1.21-.63-2.49-1.2-3.48-2.2-.29-.29-.47-.65-.48-1.01-.03-.96-.02-1.93.03-2.89.06-1.25.68-2.14,1.82-2.67.13.22.37.17.57.23-1.33,1.14-1.41,3.44-.17,4.66.64.63,1.3,1.19,2.22,1.37.42.08.77.31,1.1.57.4.3.81.58,1.26.82.78.41,1.16,1.31,1.37,2.11.66,2.5-.95,5.29-3.58,5.35-1.27.03-2.44-.2-3.65-.43-.33-.06-.67-.11-1-.16.09-.48.52-.84.48-1.36Z"/>
  <path d="m164.87,45.58c-.25-1.64-.64-3.21-1.9-4.43-.39-.38-.62-.4-.92.03-.47.69-.75,1.43-.69,2.27.11,1.49.05,3,.47,4.46.02.09.02.23-.03.28-.11.1-.25.04-.35-.05-.85-.75-1.66-1.52-1.64-2.77,0-.55-.02-1.06-.25-1.6-.28-.65-.28-1.34.1-2,.34-.6.42-1.22.21-1.94-.18-.62-.17-1.33.16-1.97.37-.71.96-.97,1.69-.62,2.01.97,3.66,2.32,4.42,4.5.52,1.49.46,3.06.38,4.62-.6-.15-.96-.81-1.65-.78h0Z"/>
  <path d="m155.74,40.25c-1.93-.86-2.48-2.36-1.81-4.5.17-.53.3-1.05.24-1.61-.09-.77.12-1.49.31-2.21.2-.78.7-1.21,1.48-1.44.61-.18.63.1.54.52-.52,2.37.06,3.55,2.31,4.61.42.2.5.37.2.75-1.02,1.31-1.02,2.78-.62,4.28.14.5.13.92-.31,1.16-.48.27-.53.66-.53,1.12v2.21c-.44-.44-.86-.85-1.1-1.42.34-.32.18-.71.14-1.08-.07-.63-.22-1.28-.15-1.9.1-.8-.22-.72-.72-.49h.02Z"/>
  <path d="m149.96,86.08c.07,1.65.32,3.29.28,4.95,0,.31,0,.69-.32.82-.4.16-.5-.28-.67-.51-1.51-2.01-2.98-4.04-4.51-6.04-1.03-1.35-2.2-2.6-3.12-4.05-.33-.53-.97-.82-.86-1.62.03-.24-.25-.58-.56-.53-.3.05-.13.39-.16.6-.07.48.16.98-.12,1.44-.06.09-.13.17-.19.26-.12-.83-.16-1.67-.04-2.51.48,0,.52-.32.51-.69,0-.28-.03-.61.33-.69.39-.09.67-.38,1.03-.53.41.21.71.54.83.97.1.37.28.64.58.88.2.16.49.44.45.61-.25,1.18.9,1.46,1.34,2.18.49.8.87,1.7,1.5,2.36.93.97,1.66,2.08,2.47,3.13.15.2.36.35.56.54.39-.5.3-1.05.34-1.57h.33Z"/>
  <path d="m183.54,48.79c.71-.53,1.55-.68,2.37-.93,1.54-.46,3.11-.78,4.71-.71,2.43.11,4.83.49,6.92,1.86,2.18,1.42,2.78,4.23,1.49,6.42-.3.51-.52,1.08-.79,1.61-.12.23-.25.46-.43.64-.13.13-.31.33-.54.2-.18-.11-.16-.33-.12-.5.32-1.45,0-2.88-.2-4.3-.08-.61-.32-1.21-.85-1.63-.61-.48-.84-1.31-1.58-1.7-1.08-.55-2.23-.84-3.41-1.04-2.39-.4-4.78-.14-7.15.21-.15.02-.3.12-.43-.14h0Z"/>
  <path d="m4.55,84.23c0,1.8-.02,3.59,0,5.39,0,.82.44,1.36,1.23,1.61.24.08.48.16.72.34-2.12.23-4.24.26-6.5.11.36-.52.76-.5,1.05-.55.88-.15,1.18-.7,1.22-1.47.05-.88.04-1.77.04-2.65,0-2.47,0-4.94,0-7.42,0-1.84,0-1.84-1.72-2.53-.12-.05-.26-.06-.32-.33h6.35c0,.1-.03.19-.04.29-.44,0-.88.04-1.32,0-.54-.05-.76.16-.75.69.02,2.05.03,4.09.04,6.14v.37h0Z"/>
  <path d="m94.25,101.09c-1.95,1.26-2.01,1.83-.51,3.56,1.07,1.24,2.39,1.43,3.78.88,1.66-.65,3.26-1.39,4.83-2.29,1.49-.85,3-1.83,4.77-2.12.58.24,1.17.19,1.74.04.66-.17,1.34-.34,2-.18,1.55.37,3.05.94,4.66,1.09.38.03.63.39.6.72-.04.34-.43.16-.66.18-.28.03-.57.02-.86.03-2.04-.47-4.07-1.03-6.22-.69-1.67.26-3.27.53-4.66,1.72-.8.69-2.02.9-3.05,1.31-1.39.55-2.81,1.1-4.35,1.12-1.54.02-2.89-.44-3.98-1.57-.49-.5-1.01-.92-1.41-1.56-.39-.63-1.43-.71-2.22-.96-.07-.02-.19.03-.23,0-.25-.25-.88,0-.84-.34.05-.4.52-.69.99-.75.94-.13,1.77.16,2.44.8.42.4.69.36.99-.1.16-.24.35-.46.53-.68.71-.86,1.53-1.49,2.75-1.27.04.35-.16.61-.31.9-.17.03-.35.05-.52.08-.09.03-.17.06-.26.09h0Z"/>
  <path d="m188.51,77.15c-.37.02-.29.29-.28.51.14,3.6.04,7.19.07,10.79.02,2.1.03,2.1,1.94,3.19-2.27.21-4.33.11-6.39.08,0-.08,0-.16,0-.24.16-.07.31-.19.48-.21,1.33-.16,1.56-.87,1.59-1.93.1-3.72.14-7.43,0-11.15,0-.28-.08-.58-.02-.87.48.02.95.03,1.06-.6h1.57v.43h0Z"/>
  <path d="m161.92,53.22c.75.7,1.11,1.51,1.25,2.57.4,3.2-1.26,5.35-3.4,7.33-1.31-.06-2.59.06-3.79.64-.24.11-.44.1-.67,0-.76-.33-1.55-.39-2.37-.35-.3.01-.64.06-.81-.31.32-.34.73-.16,1.1-.18,2.16-.07,4.05-.82,5.62-2.31,1-.95,1.32-2.18,1.44-3.51.14-1.54-.26-2.92-1.1-4.19.22-.25.46-.08.71-.04.67.12,1.3.5,2.02.35h0Z"/>
  <path d="m85.32,63.55c-1.73-1.53-3.15-3.29-3.91-5.52-.53-1.58,0-3.58,1.34-4.81.78.14,1.57-.31,2.36,0-.1.63-.44,1.18-.63,1.79-.5,1.64-.09,3.12.5,4.61.22.56.59,1.03,1.1,1.39,1.44,1.01,2.94,1.88,4.77,1.97-.73.8-2.59,1.3-3.95.49-.5-.3-1.07-.52-1.57.07h0Z"/>
  <path d="m76.69,11.97c2.2.24,4.41.42,6.35,1.58.22.13.44.29.63.46,1.14,1.02,1.21,2.52.17,3.65-.16.17-.37.33-.44.54-.6,1.78-2.14,2.77-3.35,4.04-.19.2-.47.57-.78.27-.24-.23.04-.52.18-.76,1.57-2.71,1.11-6.59-.94-8.24-.62-.5-1.22-1.02-1.82-1.53h0Z"/>
  <path d="m136.91,101.28c2.17.68,4.09,1.87,6.11,2.86,1.41.69,2.76,1.79,4.5,1.64,1.21-.1,2.16-.7,2.81-1.73.54-.87.56-1.71-.24-2.47l.18-1.01c.53.46,1.04.95,1.41,1.55.22.36.39.38.7.08.68-.63,1.41-1.17,2.43-.96.18.04.37.05.53.12.29.12.64.27.59.64-.05.36-.44.29-.71.32-1.14.16-2.15.52-2.9,1.48-1.32,1.71-3.09,2.85-5.25,2.71-1.59-.1-3.15-.74-4.66-1.37-1.56-.65-2.96-1.67-4.52-2.24-2.31-.85-4.77-.95-7.2-.3-.38.1-.76.17-1.14.25-.04-.36.11-.59.45-.72.58-.22,1.15-.48,1.73-.68.83-.29,1.63-.47,2.55-.11.47.19,1.3.43,1.69-.4.23-.02.43.09.62.2.04.2.1.35.31.13h.01Z"/>
  <path d="m167.86,11.96c-.64.55-1.25,1.15-1.94,1.64-.73.51-1.14,1.2-1.38,2.01-.51,1.77-.45,3.51.22,5.24.22.57.32,1.18.52,1.9-.85-.35-1.18-1.03-1.69-1.52-.92-.88-1.87-1.73-2.32-2.98-.22-.6-.83-.97-1-1.65-.3-1.2-.11-2,.91-2.72,1.4-1,3.02-1.51,4.7-1.76.63-.09,1.25-.31,1.89-.36.03.06.07.13.1.19h0Z"/>
  <path d="m58.31,79.05c-.27.8-.31,1.65-.83,2.39-.41.58-.27,1.36-.34,2.04-.19,1.89-.15,3.76.9,5.47.38.61.77,1.17,1.43,1.5.28.14.55.3.71.58-.39.16-1.08-.17-1.05.65-1.69-.65-3.22-1.53-3.78-3.4-.29-.96-.87-1.82-.94-2.86-.09-1.41.39-2.69.84-3.98.18-.54.35-1.06.47-1.62.15-.72.88-1.17,1.33-1.76.47.26.63.91,1.25.98h.01Z"/>
  <path d="m170.63,78.9c-.13.99-.74,1.83-.95,2.77-.5,2.16-.57,4.38.2,6.51.35.97.86,1.96,1.97,2.38.24.09.46.24.6.48-.24.15-.5.25-.79.22-.3-.02-.41.13-.4.41-1.96-.84-3.53-1.98-3.98-4.28-.13-.67-.38-1.32-.43-2.02-.1-1.32.17-2.56.63-3.79.22-.58.41-1.16.52-1.78.12-.65.8-1.04,1.19-1.58.05.33.26.43.55.33.41-.15.68.03.89.36h0Z"/>
  <path d="m93.56,83.31c-.14,1.4-.05,2.78.23,4.15.19.94.66,1.72,1.31,2.42-.21.54-1.1.31-1.15,1.02-1.85-1.22-2.93-2.89-2.95-5.15-.01-1.38-.15-2.8.46-4.08.46-.96.71-2,1.32-2.89.75-1.1,1.88-1.6,3.06-2.04-.03.36.12.57.49.6-.99.79-1.77,1.72-2.12,2.96-1.12.15-1.23,1.23-1.14,2.25.02.28,0,.73.5.76h0Z"/>
  <path d="m113.39,91.83c-2.88.49-5.26-.5-6.93-2.78-1.79-2.44-2.15-5.15-.5-7.89.23-.39.44-.76.36-1.24-.02-.14-.04-.32.14-.41.49-.24.7-.76,1.1-1.09.39.25.75.56,1.26.48-.28.54-.34,1.17-.56,1.7-1.06,2.52-1.12,5.04-.19,7.56.29.79.76,1.55,1.38,2.19,1.1,1.14,2.47,1.31,3.93,1.24v.24h0Z"/>
  <path d="m160.84,85.75c-.56-1.07-1.52-1.2-2.59-1.12-.31.02-.51.11-.5.45.02,1.25,0,2.5.09,3.75.1,1.65,1.12,2.51,2.75,2.45-.1.14-.32.19-.28.42-2.36.14-4.72.08-7.09-.08.88-.44,1.88-.63,2.31-1.63.8.15,1.09-.26,1.11-1.38.06-3.3.04-6.61,0-9.91,0-.58-.32-1.17.44-1.52.07-.03.03-.29.05-.45h3.61v.28c-.9.08-1.82-.12-2.71.15-.29.09-.49.18-.42.52.33,1.65.11,3.32.16,4.98,0,.16-.03.32,0,.47.06.39-.21.96.24,1.14.52.21,1.15.12,1.63-.2.86-.58,1.64-1.24,1.53-2.48.2,1.49.63,2.93.05,4.37-.08-.16-.23-.2-.4-.21h.02Z"/>
  <path d="m154.68,53.4c1.5,0,2.25.52,2.82,1.96.1.24.23.47.34.7.72,1.58.39,3.21-.98,4.16-.75.52-1.73.51-2.61.68-.49.1-1.23.31-1.46-.14-.22-.44.56-.6.86-.92.96-1.02,1.8-2.01,1.32-3.58-.16-.51-.23-.62-.68-.3-1.05.73-1.98.42-2.45-.77-.11-.27.02-.44.17-.63.65-.84,1.36-1.15,2.67-1.15h0Z"/>
  <path d="m115.91,100.56c2.76-.67,4.18-.14,5.29,2.04.37.73.24,1.57.39,2.35.05.24-.08.52.23.79.11-.62.29-1.2.29-1.77,0-1.01.48-1.78,1.06-2.52.79-1,2.9-1.57,4-1.1.26.11.4.28.1.51-.2.16-.4.34-.63.47-2.06,1.1-3.12,2.96-3.9,5.05-.12.32,0,.67-.23.97-.16.22-.19.64-.51.62-.35-.01-.61-.33-.7-.66-.15-.59-.55-1.1-.65-1.65-.21-1.17-1.14-1.83-1.68-2.76-.59-1.02-1.66-1.46-2.66-1.97-.15-.08-.38-.05-.42-.36h.02Z"/>
  <path d="m217.51,65.28c.93.34,2.06-.01,2.37-.73,1.32.18,2.65.36,3.97.55.13.02.26.04.39.04,3,0,5.98.27,8.97.51v1.02c-6.65-.02-13.31.12-19.98-.18,1.49-.24,2.78-1.07,4.28-1.21h0Z"/>
  <path d="m74.61,24.57c.14-1.15-.24-2.17-.35-3.22-.1-1,.13-1.89.87-2.61.3-.3.59-.29.96,0,1.49,1.15,1.77,2.69,1.63,4.45-.11,1.36-.85,2.39-1.5,3.52-.79,1.37-1.69,2.58-2.95,3.54-.18.14-.36.45-.57.25-.26-.23.11-.39.23-.54.58-.69.93-1.47,1.13-2.36.22-1.03.79-2,.56-3.03h-.01Z"/>
  <path d="m170.33,21.21c.05.46-.1.98-.24,1.51-.38,1.4-.37,2.78.24,4.12.08.18.16.4.16.59-.02.99.33,1.79,1.12,2.41.17.14.43.34.22.58-.25.29-.41-.08-.56-.2-.74-.57-1.56-1.1-1.96-1.97-.71-1.58-2.08-2.82-2.48-4.55-.29-1.23-.24-2.47.49-3.58.06-.09.1-.18.16-.27.43-.55.65-1.4,1.62-1.17.58.14,1.2,1.19,1.23,2.03v.49h0Z"/>
  <path d="m24.46,64.53c.08.52.4.75.91.75.59,0,1.16.37,1.77.13.75.06,1.54-.02,2.18.52-.05.25-.1.5-.15.75-4.22,0-8.43,0-12.65-.01-1.69,0-3.38,0-5.07-.01-.05-.35-.11-.69-.16-1.04,4.38-.48,8.82-.25,13.17-1.09Z"/>
  <path d="m116.71,77.56c.36.04.61.25.81.55.28.41.54.83.96,1.12.06.04.16.12.15.17-.26,1.23,1.04,1.78,1.2,2.86.16,1.05.37,2.08.28,3.14-.14,1.72-.89,3.14-2.13,4.33-.43-.21-.86-.43-1.3-.64,1.25-2.22,1.05-4.61.68-6.97-.21-1.35-.84-2.6-1.44-3.83.55.08.79-.18.78-.71v-.02Z"/>
  <path d="m79.66,90.46c.77.31,1.03.12,1.11-.75.18-1.89.14-3.78.16-5.68.02-1.68.05-3.35-.15-5.02-.13-1.09-.16-1.2-1.27-1.38-.52-.27-1.05-.53-1.78-.9h6.64c-.23.4-.53.23-.76.33-1.02.45-1.61,1.09-1.59,2.31.05,3.34,0,6.67.03,10.01,0,1.29.77,1.91,2.39,2.14-2.3.33-4.6.32-6.93,0,.77-.27,1.6-.36,2.13-1.05h.02Z"/>
  <path d="m193.69,103.09c-.53-.74-1.37-.46-2.07-.55-.95-.12-1.93-.04-2.9-.03-.53,0-1.04-.05-1.57-.25.14-.32.41-.36.69-.38.24-.02.55.12.66-.24,4.34-.03,8.69-.07,13.03-.1,1.51-.01,3.02-.03,4.52-.05.24.58.78.53,1.25.55.85.04,1.71-.02,2.56.15.34.07.45.19.42.5-5.54.14-11.08.27-16.62.41h.03Z"/>
  <path d="m199.66,90.62c.25.82,1.12.47,1.62.95-2.12.22-4.23.2-6.35.13,0-.08-.02-.16-.03-.24.45-.17.91-.33,1.36-.51.55-.21.84-.6.83-1.19-.02-3.75.08-7.51-.06-11.26-.02-.65-.24-1.02-.9-1.15-.35-.07-.69-.24-1-.6h6.09c-.5.37-1.07.55-1.54.9-.47.09-1.24-.38-1.27.53-.03.83-.17,1.65-.18,2.48,0,2.37,0,4.74,0,7.1,0,.73.27,1.43.15,2.17-.14.83,0,.95.82.76.15-.04.31-.05.46-.07h0Z"/>
  <path d="m122.01,125.82c-.39-1.1-.94-1.94-1.54-2.76-.53-.73-1.11-1.37-1.87-1.85-.52-.33-.52-.7.1-.79,1.22-.19,1.86-1.05,2.55-1.9.51-.63.92-.7,1.38-.07.66.92,1.42,1.63,2.54,1.94.32.09.71.41.18.69-1.8.95-2.41,2.7-3.13,4.4-.03.07-.08.13-.22.34h0Z"/>
  <path d="m135.97,100.94c-.39.83-1.23.59-1.69.4-.92-.37-1.72-.18-2.55.11-.59.2-1.16.46-1.73.68-.34.13-.49.36-.45.72-1.97,1.09-3.82,2.3-4.9,4.39-.63,1.23-1.37,2.39-1.75,3.73-.03.12-.08.25-.25.26-.55-1.41,1.07-6.53,2.91-8.08,3.02-2.55,6.49-3.64,10.42-2.22h-.01Z"/>
  <path d="m50.52,49.41c-2.84,1.85-3.7,5-3.12,8.52-.64-.23-1.02-.65-1.26-1.19-.45-1.02-.86-2.05-1.29-3.09-.27-.66-.23-1.31.06-1.95.63-1.36,1.35-2.65,2.91-3.16.07.49.35.41.74.37.69-.07,1.47-.34,1.95.48v.02Z"/>
  <path d="m75.12,63.71c.18-.52.49-.88,1.08-.93.28-.03.57-.07.64-.43.21.08.36.24.49.42-.02.34-.03.66.36.84.27.12.43.09.57-.17.81.34,1.67.6,2.33,1.22.13.12.31.21.48.25,1.44.36,2.79,1.01,4.21,1.43,1.4.42,2.86.46,4.32.39,2.08-.1,4.17.11,6.23-.36-.13.48.48.59.5,1-1.72.13-3.43.44-5.17.37-2.1-.09-4.19-.2-6.26-.59-.75-.14-1.49-.32-2.24-.48-.05-.33-.32-.4-.57-.44-1.06-.16-1.91-.77-2.74-1.38-.32-.24-.64-.55-1.02-.41-.38.15-.17.6-.22.92-.65-.12-1.23-.39-1.68-.87-.36-.4-.85-.55-1.29-.79h-.02Z"/>
  <path d="m114.6,103c.29,0,.58,0,.86-.03.24-.03.63.16.66-.18.03-.33-.22-.69-.6-.72-1.61-.15-3.11-.71-4.66-1.09-.67-.16-1.34.01-2,.18-.58.15-1.17.2-1.74-.04,3.24-1.41,6.29-.84,9.27.82,1.28.71,2,1.86,2.84,2.97.81,1.07.89,2.38,1.5,3.5.5.91.35,1.95.28,3.12-.37-.52-.53-.94-.65-1.38-.25-.96-.67-1.85-1.29-2.62-.41-.51-.4-1.17-.89-1.69-1.07-1.13-2.43-1.85-3.58-2.84Z"/>
  <path d="m166.39,63.4c.25.45.22.78-.34.95-.17.05-.33.15-.46.27-1.36,1.27-3.07,1.58-4.82,1.75-.56.05-.94.21-1.12.75-.1.02-.2.05-.3.07-.21-.26-.28-.12-.33.1-1.49.09-2.96.35-4.46.41-2.38.09-4.75-.08-7.11-.36-.58-.07-1.19.02-1.76-.19-.08-.72.16-1.15.97-1.08.22.02.41-.03.44-.3,1.15.28,2.25.73,3.41.99.53.12.96-.07,1.44-.06,1.38.03,2.76.04,4.14-.01,1.84-.07,3.65-.35,5.36-1.1.33-.15.69-.23,1.04-.33.78-.21,1.54-.41,2.15-1.02.46-.46,1.16-.55,1.74-.85h.01Z"/>
  <path d="m113.28,110.5c-.06-.51-.03-1.02-.15-1.54-.29-1.23-1.14-1.89-2.4-1.76-1.7.18-3.01,2.2-2.78,3.57.15.91.61,1.78.93,2.67.06.17.37.26.12.51-.27.27-.42-.01-.6-.11-1.02-.54-1.1-1.62-1.32-2.53-.4-1.65-.13-3.62,1.5-4.73,1.92-1.3,4.17-.79,5.26,1.48.23.47.58.93.54,1.51-.02.38.06.79-.38,1.01-.18-.53-.49-.05-.73-.1v.02Z"/>
  <path d="m172.08,40.26c.68.03.86.44.68,1-.15.48,0,.78.26,1.19.58.86.82,1.86.94,2.89-.64,2.36-1.42,4.66-2.87,6.68-.56.78-.97,1.66-1.7,2.33-.17-.02-.36.02-.49-.15.35-.84.98-1.56,1.29-2.38.72-1.91,1.64-3.75,1.86-5.83.2-1.92.16-3.82.02-5.73h.01Z"/>
  <path d="m157.14,76.73c0,.15.02.42-.05.45-.76.35-.45.93-.44,1.52.04,3.3.06,6.61,0,9.91-.02,1.12-.31,1.53-1.11,1.38.14-3.49.11-6.97.04-10.46-.03-1.66-.1-1.66-2.25-2.79,1.37-.09,2.59-.04,3.81,0h0Z"/>
  <path d="m199.66,90.62c-.15.02-.31.04-.46.07-.82.19-.96.07-.82-.76.12-.74-.15-1.44-.15-2.17v-7.1c0-.83.15-1.65.18-2.48.03-.91.81-.44,1.27-.53-.19.41-.23.85-.23,1.29,0,3.54,0,7.07-.02,10.61,0,.38.15.71.22,1.06h.01Z"/>
  <path d="m71.35,55.13c0-.3.1-.59.43-.44.84.37,2.03-.03,2.5,1.19.13.34.48.2.66-.1.89.92,1.73,1.91,2.7,2.76,1.14,1,2.12,2.19,3.42,3.01.38.24.73.51.97.89-.13.22-.18.5-.51.52-1.48-1.08-3.11-1.93-4.54-3.08-1.05-.84-2.11-1.67-3.16-2.5.15-.25.18-.52.2-.81.04-.71-.57-.86-1-1.13-.39-.25-.67,0-.89.32-.32-.13-.57-.36-.79-.62h.01Z"/>
  <path d="m50.52,49.41c-.48-.83-1.27-.55-1.95-.48-.39.04-.67.12-.74-.37.72-.47,1.55-.58,2.36-.77.54.2.95.02,1.25-.45,1.63-.25,3.25-.19,4.88-.03.42.04.81.16,1.18.32,1.05.46,2.3.31,3.27,1.04.1.08.23.1.19.31-3.51-.54-7.01-.79-10.45.43h0Z"/>
  <path d="m222.23,101.12c4.72-.11,9.44-.38,14.16-.13,1.38.07,2.76.07,4.14.14.53.03,1.07.02,1.59.24-.12.28-.33.18-.49.18-4.07.08-8.14.12-12.21.23-2.06.06-4.11.26-6.17.39-.39.02-.78,0-1.17,0,.09-.35.21-.69.16-1.06h-.01Z"/>
  <path d="m132.68,105.97c1.2-.18,2.13.25,2.82,1.23,0,.21.1.32.31.32h0c.04.28.09.54.41.63.74,1.76.49,4.43-.97,5.6-1.85,1.49-3.73,1.77-5.76.42.06-.19.19-.33.38-.4,1.46.76,2.91.75,4.38-.02,1.25-.65,1.03-1.87,1.23-2.92.09-.46-.04-.97-.07-1.46.12-.45-.2-.8-.27-1.21-.03-.2-.29-.44-.58-.16-.42-.26-.84-.51-1.26-.77.03-.53-.74-.68-.61-1.25h-.01Z"/>
  <path d="m108.08,105.54c-1.45.73-2.42,2.14-3.96,2.73-.31.12-.56.38-.92.36-.03-.38-.32-.34-.58-.34h-1.72c-.33,0-.64-.03-.69-.45,1.59-.95,3.15-1.96,4.86-2.68.06.43.33.23.58.21.81-.04,1.66-.56,2.42.16h.01Z"/>
  <path d="m96.32,67.37c-.01-.41-.63-.52-.5-1,1.06-.49,2.15-.92,3.3-1.13,1.05-.19,1.98-.62,2.88-1.16.42.74.83,1.47,1.33,2.35-2.41.2-4.64,1-7.01.95h0Z"/>
  <path d="m139.43,108.1c-.9-.25-1.65-.73-2.27-1.43-.46-.52-1.12-.75-1.68-1.11.19-.52.61-.62,1.08-.54.41.07.8.2,1.2.33.25.08.51.26.58-.19,1.06.31,2.07.74,2.99,1.35.71.47,1.45.88,2.18,1.32-.03.43-.34.43-.67.46-.93.08-1.76-.3-2.62-.55-.33-.1-.75-.29-.78.35h-.01Z"/>
  <path d="m113.71,113.69c.79-.67,1.65-1.41,1.91-2.38.28-1.06.36-2.25-.2-3.32.34-.02.38-.32.51-.53.56,1.02.9,2.13,1.18,3.24.36,1.44,1.28,2.36,2.42,3.14-1.16.25-2.2-.06-3.13-.91-.31-.29-.49-.32-.8.06-.49.59-1.1,1.09-1.9,1.25,0-.18,0-.36,0-.54h0Z"/>
  <path d="m77.79,32.46c.69.93,1.65.34,2.48.45-.61.53-1.23,1.05-1.84,1.58-.25,0-.35.12-.31.36-1.22,1.34-2.04,2.91-2.59,4.63-.72.09-.48-.72-.89-.93.06-.3.06-.64.19-.91.87-1.79,1.62-3.65,2.96-5.17h0Z"/>
  <path d="m210.31,102.69c.03-.31-.09-.44-.42-.5-.85-.17-1.71-.11-2.56-.15-.47-.02-1.01.03-1.25-.55,3.02-.44,6.06-.36,9.1-.28-.46.27-.5.55-.05.88.11.08.14.26.21.4-1.67.09-3.34.32-5.02.19h-.01Z"/>
  <path d="m129.87,113.77c-.19.08-.31.21-.38.4-.57-.22-1.04-.55-1.38-1.09-.36-.58-.75-.59-1.15-.03-.54.77-1.23,1.17-2.18,1.03-.33-.05-.63-.25-.26-.53,1.56-1.18,2.04-2.88,2.37-4.66,0-.05.06-.08.09-.12.28,0,.55,0,.83.01-.47,2.13.51,3.67,2.04,4.99h.02Z"/>
  <path d="m170.63,78.9c-.21-.33-.48-.5-.89-.36-.29.1-.5,0-.55-.33,1.09-1.22,2.58-1.59,4.1-1.81,1.57-.23,3.08.15,4.5.8.4.18.5-.07.7-.22.19-.13.47-.28.47.08,0,1.63-.06,3.25.1,4.9-.41-.7-.74-1.42-.91-2.2-.37-1.77-1.32-2.61-3.08-2.89-1.96-.31-3.38.44-4.45,2.03h0Z"/>
  <path d="m127.83,108.77c-.28,0-.55,0-.83-.01.29-1.07.81-2.02,1.42-2.93.83-1.24,2.15-1.5,3.48-1.59,1.69-.12,3.37.06,5.05.29.53.07.98.29,1.37.65-.07.44-.32.27-.58.19-.39-.13-.79-.26-1.2-.33-.47-.08-.89.02-1.08.54-.55-.2-1.1-.45-1.67-.6-.66-.18-1.3-.3-2.03-.1-2.09.56-3.22,2.01-3.95,3.9h.02Z"/>
  <path d="m20.07,101.15c-.15.38-.14.61.39.6.63-.01,1.32-.16,1.8.46-1.58-.09-3.16-.19-4.74-.25-3.23-.13-6.46-.23-9.69-.34-.26,0-.52-.04-.77-.07.82-.25,1.67-.07,2.5-.1.44-.02.31-.15.14-.36,1.29-.2,2.59-.11,3.89-.09,2.16.03,4.32.11,6.48.17v-.02Z"/>
  <path d="m115.93,107.46c-.14.21-.18.51-.51.53-.38-.45-.71-.94-.92-1.49-.05-.14-.05-.28-.21-.38-1.71-1.04-3.43-1.95-5.48-.82-.22.12-.49.17-.73.25-.76-.72-1.61-.2-2.42-.16-.25.01-.51.22-.58-.21.92-.51,1.9-.78,2.97-.8.72-.02,1.43-.15,2.16-.17,1.1-.03,2.15.17,3.21.38.62.12.93.65,1.38.97.72.51.93,1.17,1.15,1.91h-.02Z"/>
  <path d="m147.11,65.76c-.03.27-.22.32-.44.3-.81-.07-1.04.37-.97,1.08-1.26-.39-2.58-.36-3.86-.62-.46-.09-.5-.21-.24-.59.3-.45.58-.94.77-1.44.13-.35.36-.41.59-.26,1.28.81,2.81.91,4.16,1.53h0Z"/>
  <path d="m85.32,63.55c.49-.6,1.07-.37,1.57-.07,1.36.81,3.22.31,3.95-.49,1.68.11,3.23-.49,4.82-.85.05.11.11.22.16.33-.52.54-1.21.8-1.88,1.06-1.35.52-2.75.93-4.19,1.12-1.6.21-3.01-.51-4.44-1.09h.01Z"/>
  <path d="m58.31,79.05c-.62-.07-.78-.72-1.25-.98,1.18-.97,2.54-1.53,4.05-1.67,1.73-.16,3.38.21,4.93.99.11.55.34,1.08.31,1.66-.02.32-.11.49-.45.47-.1-.12-.26-.22-.29-.36-.46-1.8-1.92-2.34-3.46-2.37-1.6-.04-3,.66-3.79,2.2-.01.02-.03.04-.04.07h-.01Z"/>
  <path d="m214.86,58.91c0,.59-.35.43-.7.33-.87-.26-1.65-.75-2.58-.87-1.51-.2-3.01-.21-4.5.09-1.85.38-3.69.78-5.54,1.16-.38.08-.75.07-.81-.46,2.67-.67,5.36-1.21,8.09-1.52,1.91-.21,3.7.41,5.45,1.06.19.07.39.1.57.19l.02.02Z"/>
  <path d="m215.33,102.49c-.07-.14-.1-.32-.21-.4-.46-.33-.41-.61.05-.88,2.35-.16,4.7-.1,7.06-.09.05.37-.06.71-.16,1.06-1.64.06-3.27.12-4.91.17-.61.02-1.23-.02-1.83.13h0Z"/>
  <path d="m152.13,63.1c.17.37.51.32.81.31.81-.04,1.61.02,2.37.35.23.1.43.12.67,0,1.2-.58,2.48-.7,3.79-.64-.28.64-.95.68-1.47.87-1.62.6-3.27.96-4.99.37-.91-.32-1.83-.64-2.79-.81-.17-.03-.3-.26-.44-.41.02-.2.13-.35.3-.45.59.14,1.18.28,1.77.42h-.02Z"/>
  <path d="m139.73,81.4c.06-.09.13-.17.19-.26.39.56.2,1.21.22,1.8.05,2.03,0,4.06.02,6.08,0,.36.03.73.08,1.09.16,1.03,1.04,1.15,1.84,1.43-1.53.18-3.04.64-4.58.03.24-.51.71-.34,1.05-.43.74-.2,1.05-.63,1.03-1.34,0-.33.09-.6.18-.9.02-.01.06-.03.05-.04,0-.04-.03-.08-.04-.11v-1.88s.05-.04.05-.05c0-.04-.03-.07-.05-.11v-.47s.05-.04.05-.04c0-.04-.03-.07-.05-.11,0-1.56-.02-3.13-.03-4.69h-.01Z"/>
  <path d="m43.75,59.19c-.33.53-.86.36-1.27.26-1.66-.4-3.32-.82-5.02-1.07-2.32-.34-4.61-.22-6.8.76-.24.11-.48.19-.73.28-.38.15-.46-.06-.46-.38,2.08-1.1,4.25-1.61,6.63-1.3,2.58.34,5.11.87,7.64,1.44h0Z"/>
  <path d="m96.32,77.34c-.38-.03-.52-.25-.49-.6,1.67-.5,3.34-.48,5.01-.04.42.11.84.27,1.25.41.44.45.67,1.07,1.16,1.48l.05,2.34c-.26.03-.35.37-.64.34-.17-.14-.27-.3-.26-.53.27-3.49-3.47-4.68-5.8-3.5-.09.05-.19.07-.29.11h0Z"/>
  <path d="m150.26,100.58l-.18,1.01c-.44-.17-.86-.36-1.31-.5-.93-.3-1.68-.14-2.07.4-.56.77-.54,1.39.06,2.28-.24.03-.44.11-.59.3-1.55-1.62-1.02-2.83.72-3.79.88-.49,1.83-.45,2.78-.26.3.06.49.27.59.55h0Z"/>
  <path d="m213.13,76.87v.65c-.24-.1-.49-.17-.72-.29-.79-.45-1.69-.47-2.54-.48-1.54-.02-3.4,1.71-3.62,3.23-.06.39-.18.75-.34,1.11-.44-.04-.57-.39-.58-.71-.02-.47-.15-.92-.21-1.38,1.34-2.02,3.78-2.97,6.22-2.5.61.12,1.23.15,1.81.38h-.02Z"/>
  <path d="m186.94,76.72c-.11.63-.58.62-1.06.6-1.31-.36-2.62-.21-3.82.31-1.38.59-1.54,1.94-1.6,3.26-.47-.04-.4-.36-.42-.64-.07-1.04.25-2.05.15-3.09-.05-.46.33-.46.64-.46,2.03,0,4.06.01,6.1.02h.01Z"/>
  <path d="m116.71,77.56c0,.53-.24.79-.78.71-.16-.2-.29-.46-.49-.59-2.29-1.47-5.21-1.31-6.61,1.22-.51.08-.88-.22-1.26-.48.62-1.09,1.78-1.37,2.83-1.71,2.21-.71,4.35-.45,6.32.85h-.01Z"/>
  <path d="m164.87,45.58c.69-.03,1.05.63,1.65.78-.21,1.8-.43,3.61-1.11,5.31-.11.06-.25.19-.33.16-.19-.07-.11-.29-.04-.38.29-.36.3-.69-.03-1.02-.04-1.62.15-3.24-.15-4.85h0Z"/>
  <path d="m188.51,77.15v-.42h1.25c.05.07.1.08.15,0,1.22,0,2.45,0,3.67-.03.44,0,.62.15.58.59-.05.59,0,1.18-.13,1.77-.14.62-.04,1.27.21,2-.46-.23-.47-.56-.51-.83-.39-2.67-1.33-2.82-3.58-3.07-.54-.06-1.09-.02-1.64-.02h0Z"/>
  <path d="m233.2,66.66v-1.02c2.14.11,4.28.27,6.42.53.87.1,1.76.05,2.85.32-3.24.05-6.24.39-9.26.18h-.01Z"/>
  <path d="m113.28,110.5c.24.05.55-.43.73.1-.6.48-.88,1.28-1.84,1.41-1.18.16-2.14-.23-2.61-1.34-.23-.55.37-1.5.94-1.49.34,0,.48.21.54.54.08.41-.3,1.04.37,1.19.65.15,1.33.11,1.87-.41h0Z"/>
  <path d="m238.94,77.06c-.2-.06-.44,0-.57-.23,1.39-.74,2.79-.59,4.15.04.37.17.7.17,1.04.07.37-.11.46.01.46.36-.01,1.06,0,2.13,0,3.19,0,.25-.02.56-.25.58-.29.02-.37-.33-.36-.56.02-.66-.14-1.26-.37-1.88-.62-1.62-2.46-2.2-4.1-1.56h0Z"/>
  <path d="m39.52,101.49c-.43.59-1.11.51-1.69.53-1.58.06-3.17.04-4.76.01-.59,0-1.17-.13-1.41-.8,1.38-.2,2.75.04,4.13.04,1.25,0,2.5-.07,3.73.22Z"/>
  <path d="m142.56,59.31c-.36-.61-.9-1.03-1.5-1.38-.53-.31-2.21.08-2.51.56-.15.24.1.44.08.66-.4.17-.8.34-1.21.52-.11,0-.22-.02-.33-.02.38-1.81.83-2.14,2.61-2.2,1.64-.06,3.03.3,4.02,1.7.12.17.35.32.22.53-.18.29-.41.05-.61-.04-.26-.11-.52-.23-.78-.34h0Z"/>
  <path d="m139.43,108.1c.02-.64.44-.44.78-.35.86.25,1.69.63,2.62.55.33-.03.64-.03.67-.46,1.05.27,2.09.53,3.14.8,0,.08-.03.16-.04.24-2.43.22-4.89.73-7.16-.78h0Z"/>
  <path d="m147.71,76.75h4.39c-.31.37-.66.49-.98.6-.97.32-1.16,1.05-1.15,1.94,0,1.95,0,3.9,0,5.85,0,.13,0,.26-.13.37-.37-.13-.22-.47-.23-.71,0-1.9-.06-3.8.02-5.7.04-1.01-.26-1.64-1.23-1.93-.24-.07-.46-.2-.69-.3v-.12h0Z"/>
  <path d="m93.94,90.9c.05-.71.94-.48,1.15-1.02,1.29,1.33,2.9,1.61,4.65,1.4.42.32.96-.06,1.39.24-.58.42-1.27.12-1.9.27-1.88.45-3.68.3-5.29-.89Z"/>
  <path d="m134.21,84.99h-.29c0-1.72-.02-3.43-.03-5.15,0-.1,0-.21,0-.31.03-1.74.03-1.73-1.53-2.44-.16-.07-.44-.02-.49-.36h4.02c0,.24-.19.37-.32.42-1.31.54-1.34,1.72-1.37,2.84-.05,1.66,0,3.32,0,4.99h0Z"/>
  <path d="m68.04,63.94c-.01.23.07.45-.1.67-.81,1.03-3.13,1.43-4.23.73-.64-.41-1.41-.44-2.12-.67-.66-.21-1.33-.42-2-.61-.26-.07-.33-.22-.31-.45.59.33,1.26.22,1.89.3.9.12,1.69.56,2.55.82,1.63.5,3,.07,4.33-.79h-.01Z"/>
  <path d="m132.68,105.97c-.12.58.65.72.61,1.25-1.59-.3-2.54.48-3.13,1.86-.37-.03-.47.17-.47.51,0,.48.06.95.14,1.42-.74-.93-.59-1.93-.12-2.89.6-1.22,1.47-2.14,2.98-2.15h0Z"/>
  <path d="m95.37,103.76c.68.44,1.33.11,1.75-.32.34-.35.28-.99-.06-1.47-.07-.1-.11-.23-.16-.35.02-.37.04-.73.05-1.1.26.17.55.31.77.52,1.05,1.05.58,2.88-.85,3.35-1.11.37-2.05.21-2.57-.43.33-.19.69-.22,1.07-.21h0Z"/>
  <path d="m6.58,77.02c0-.1.03-.19.04-.29,1.23,0,2.46-.02,3.68-.03.27,0,.49-.01.53.38.11,1,.28,1.99.42,2.98.04.26.05.6-.25.66-.25.05-.32-.27-.35-.5-.39-2.62-.78-2.55-3.14-3.06-.31-.07-.62-.09-.93-.14Z"/>
  <path d="m160.31,91.69c-.04-.23.18-.28.28-.42.71-.05,1.43,0,2.14-.19.91-.26,1.65-.7,2.11-1.54h.73c-.16.55-.14,1.13-.11,1.69.02.42-.14.53-.54.52-1.54-.03-3.08-.04-4.61-.05h0Z"/>
  <path d="m47.67,45.25c.32.3.72.25,1.02.1.7-.35,1.45-.35,2.19-.46.39-.06.39.1.39.36-1.95.62-3.85,1.34-5.59,2.48.41-1.05,1.15-1.8,1.98-2.47h0Z"/>
  <path d="m100.21,107.85c.05.42.35.45.69.45h1.72c.26,0,.55-.04.58.34-.76.43-1.61.36-2.43.44-1.36.13-2.73-.04-4.11-.34,1.18-.3,2.37-.59,3.55-.89h0Z"/>
  <path d="m93.01,17.74c-.55-.13-.68-.39-.19-.77.17-.14.31-.25.33-.49.18-1.69.42-3.37.05-5.07-.08-.35-.41-1.01.37-1.18.47,2.18.6,4.37.04,6.55-.1.38-.23.75-.6.96Z"/>
  <path d="m193.53,45.26c.56-.71,1.16-.04,1.73-.04.11,0,.21.14.33.2.5.26.98.3,1.39-.16.64.78,1.48,1.38,1.97,2.35-1.77-.87-3.58-1.65-5.42-2.35Z"/>
  <path d="m74.65,38.54c.4.21.17,1.02.89.93-.7,1.63-1.15,3.32-1.08,5.11,0,.2.13.55-.23.55-.26,0-.2-.32-.22-.51-.15-2.06.02-4.09.63-6.08h.01Z"/>
  <path d="m116.69,89.07c.43.21.86.43,1.3.64-.93.94-1.99,1.68-3.27,2.05-.07.01-.14.02-.22.03-.37.01-.74.03-1.11.04v-.24c1.46-.37,2.48-1.32,3.31-2.52h0Z"/>
  <path d="m31.37,84.26c1.05-.5,1.55-1.39,1.75-2.52.22,1.74.02,3.48.21,5.21-.33.07-.37-.17-.46-.39-.18-.46-.4-.9-.57-1.36-.17-.45-.52-.54-.93-.55v-.39Z"/>
  <path d="m32.62,77.16v-.42c.37,0,.73,0,1.1.01.05.07.1.07.15,0,1.59-.11,2.38.64,2.36,2.24v1.71c-.53-.31-.38-.78-.43-1.08-.33-2.21-.72-2.07-2.95-2.43-.08-.01-.16-.02-.23-.02h0Z"/>
  <path d="m232.17,79.05h-.46c-.01-.16-.03-.31-.04-.47.02-.02.05-.04.05-.05-.01-.04-.04-.07-.06-.11-.05-.49-.33-.77-.76-.98-.43-.21-.9-.38-1.28-.86,1.52.23,2.96.05,4.53.14-.91.66-2.08.98-1.98,2.32h0Z"/>
  <path d="m50.39,78.12c-.07-.43-.44-.52-.75-.71-.39-.24-.92-.29-1.22-.83,1.56.3,3.07-.01,4.57.24-.95.49-2.05.77-2.1,2.1-.15,0-.31-.02-.46-.03-.01-.1-.02-.21-.03-.31.14-.15.14-.31,0-.45h-.01Z"/>
  <path d="m131.88,111.11c.21-.23.34-.46.34-.81,0-.84.32-1.15,1.03-1.11.78.05.76.71.8,1.21.06.64-.54,1.29-1.22,1.47-.08-.55-.38-.83-.95-.76Z"/>
  <path d="m101.14,91.52c-.42-.3-.97.08-1.39-.24,2.14-.32,3.01-1.85,3.41-3.9.75,1.25-.28,3.15-2.03,4.14h0Z"/>
  <path d="m160.75,77.02v-.28c1.01,0,2.01,0,3.02-.02.46,0,.66.18.6.65-.08.67.02,1.33.1,2h-.35c-.24-1.54-1.45-1.9-2.7-2.19-.23-.05-.45-.1-.68-.15h0Z"/>
  <path d="m59.13,91.68c-.02-.82.66-.49,1.05-.65,1.32.36,2.65.37,3.98.13.15.13.3.26.45.39-1.82.43-3.64.77-5.48.13Z"/>
  <path d="m11.29,65.62c.05.35.11.69.16,1.04-1.47.02-2.94.16-4.41-.09.14-.36.73.03.79-.47,1.14-.26,2.28-.5,3.46-.47h0Z"/>
  <path d="m171.26,91.67c-.02-.28.1-.44.4-.41.29.02.55-.07.79-.22,1.08.39,2.17.51,3.31.24.37-.09.75-.24,1.15-.15.1.09.2.17.3.26-1.95.64-3.93.95-5.94.29h0Z"/>
  <path d="m40.22,90.48h.84c.55.59,1.15,1.07,2.05,1-1.52.43-3.03.23-4.69.25.53-.69,1.46-.56,1.79-1.25h.01Z"/>
  <path d="m141.57,76.98c-.36.15-.63.44-1.03.53-.37.09-.34.41-.33.69,0,.37-.04.69-.51.69-.07-1.33-1.02-1.74-2.17-1.94l.05-.25c.71,0,1.43-.03,2.14,0,.62.04,1.3-.21,1.86.28h-.01Z"/>
  <path d="m221.45,90.47c.24-.05.48-.1.72-.15.55.54,1.06,1.14,1.93,1.26-1.55.18-3.08.26-4.83.06.76-.51,1.58-.42,2.05-1.01l.13-.15h0Z"/>
  <path d="m78.09,65.37c.06-.32-.16-.77.22-.92.38-.15.7.17,1.02.41.83.61,1.67,1.22,2.74,1.38.26.04.52.11.57.44-1.63-.05-3.08-.7-4.56-1.3h.01Z"/>
  <path d="m65.89,79.52c.34.02.43-.15.45-.47.03-.58-.2-1.11-.31-1.66,0-.36.19-.54.53-.5.38.04.23.37.2.55-.17,1.2.04,2.38.12,3.56.02.32.15.66-.1,1.03-.56-.78-.75-1.63-.89-2.51Z"/>
  <path d="m85.1,53.24c-.78-.32-1.57.12-2.36,0,1.14-.89,2.43-1.45,3.85-1.72.14-.03.33-.13.41.08.08.21-.09.32-.25.43-.55.41-1.27.6-1.66,1.22h.01Z"/>
  <path d="m83.32,43.39c.35-.02.44.18.43.48-.01.57.03,1.14-.01,1.71-.03.49.12.85.53,1.11-.34.45-.69.9-1.03,1.35-.12.16-.3.27-.47.18-.27-.14,0-.29.04-.43.11-.49.27-.99.29-1.49.05-.97-.05-1.95.22-2.91Z"/>
  <path d="m131.88,111.11c.57-.06.88.21.95.76-1.21.44-2.18.07-3-.86-.08-.47-.15-.94-.14-1.42,0-.34.1-.54.47-.51v1.41c-.13.08-.16.2-.06.31.11.13.24.18.37,0,.47.1.93.2,1.4.31h.01Z"/>
  <path d="m236.97,89.99c.04.52-.38.88-.48,1.36-.28.11-.63.35-.62-.22.02-1.19-.08-2.39.14-3.58.02-.13.06-.26.27-.28.12.93.31,1.84.68,2.71h.01Z"/>
  <path d="m7.55,83.47c.37-.46.36-1.08.62-1.59.08.05.16.11.25.16-.04,1.58-.13,3.16,0,4.74,0,.18-.03.23-.18.24-.16.02-.26-.06-.23-.22.14-.6-.26-1.08-.36-1.63.11-.4.12-.79-.04-1.18-.02-.18-.04-.35-.06-.53h0Z"/>
  <path d="m161.92,53.22c-.72.16-1.35-.22-2.02-.35-.24-.04-.48-.22-.71.04-.55-.5-1.19-.87-1.82-1.26.84-.32,3.62.64,4.55,1.57h0Z"/>
  <path d="m123.58,90.31c.45.16.57.83,1.18.74.43.14.86.28,1.48.48-1.73.32-3.24.26-4.77.01.77-.33,1.76-.22,2.11-1.23h0Z"/>
  <path d="m160.75,101.87c-.16.44-.33.88-.49,1.32-1.03-.38-2.06-.77-3.23-1.21,1.34-.43,2.54-.05,3.72-.11Z"/>
  <path d="m64.61,91.55c-.15-.13-.3-.26-.45-.39,1.47-.79,2.56-1.85,2.54-3.71.88.75-.42,3.22-2.09,4.1Z"/>
  <path d="m114.64,45.73c.02-.22.13-.32.36-.27,1.3.28,2.6.56,3.9.84.28.06.49.18.44.51-1.6-.23-3.23-.3-4.7-1.08Z"/>
  <path d="m148.98,61.27c-.12-.42-.14-.75.48-.7.22.02.45-.11.67-.17.67.22,1.24.63,1.83,1-.03.26-.26.27-.43.36-.7.03-1.4.02-2.08-.23-.03-.27-.18-.34-.43-.26h-.05,0Z"/>
  <path d="m185.69,63.56c.05.36-.16.53-.47.61-1.23.31-2.46.61-3.69.92-.35.09-.57.02-.54-.4,1.52-.55,3.12-.81,4.7-1.13Z"/>
  <path d="m155.74,40.25c.51-.22.82-.31.72.49-.08.62.08,1.26.15,1.9.04.37.2.76-.14,1.08-.84-1.03-.78-2.25-.73-3.47Z"/>
  <path d="m56.62,45.21c.04-.33.26-.43.56-.42,1.3.08,2.44.59,3.5,1.31.16.11.18.31.16.5-.82-.34-1.65-.69-2.47-1.03-.56-.23-1.13-.37-1.74-.36h-.01Z"/>
  <path d="m95.37,103.76c-.37,0-.73.01-1.07.21-.43-.34-.5-.86-.32-1.27.17-.41.69-.48,1.14-.52.4-.03.55.16.38.52-.17.35-.21.69-.13,1.06Z"/>
  <path d="m9.71,101.07c.17.2.3.34-.14.36-.83.03-1.68-.15-2.5.1-.16,0-.32,0-.48-.01-.05-.07-.1-.07-.15,0-.16,0-.32-.01-.48-.02h-.14c-.16,0-.33-.02-.49-.02h-.13c-.17,0-.34-.01-.51-.02-.07,0-.15,0-.22-.01-.1,0-.2-.01-.29-.02h-.92c-.2.03-.41.08-.58-.09v-.02c2.34-.23,4.69-.27,7.04-.26h0Z"/>
  <path d="m165.01,50.43c.34.33.32.66.03,1.02-.07.09-.16.3.04.38.08.03.21-.1.33-.16-.46.92-.57,1.95-.89,2.92-.13-1.43.11-2.8.5-4.16h0Z"/>
  <path d="m168.92,54.2c.13.17.32.12.49.15-.77,1.22-1.85,2.18-2.83,3.24.69-1.2,1.43-2.35,2.34-3.39Z"/>
  <path d="m44.7,63.86c.21-1.02,1.01-.58,1.56-.55.47.02.92.31,1.38.48.39.14.37.45.34.76-1.07-.33-2.12-.75-3.28-.69Z"/>
  <path d="m108.84,51.5c0-.25-.08-.56.23-.68.28-.11.37.22.57.32.59.3,1.19.59,1.8.86.39.17.78.3.34.8-.69-.11-1.28-.44-1.81-.86-.34-.27-.7-.44-1.13-.44Z"/>
  <path d="m50.43,78.89c.15,0,.31.02.46.03.02,1.24.05,2.48.07,3.72,0,.2,0,.47-.28.46-.26-.01-.17-.27-.17-.44-.03-1.25-.05-2.51-.08-3.76h0Z"/>
  <path d="m148.4,103.77c0-.29-.07-.56-.16-.83-.07-.22-.66-.52-.05-.69.43-.12,1.07-.23,1.22.46.11.47.13.99-.26,1.4-.08-.5-.47-.29-.75-.33h0Z"/>
  <path d="m72.14,55.75c.22-.32.5-.57.89-.32.43.28,1.04.42,1,1.13-.01.29-.05.56-.2.81-.56-.54-1.13-1.08-1.69-1.62Z"/>
  <path d="m111.81,115.01c-.99.11-1.89-.07-2.7-.93.97.03,1.82.28,2.69.2v.73h0Z"/>
  <path d="m93.56,83.31c-.5-.03-.47-.48-.5-.76-.09-1.02.02-2.11,1.14-2.25-.23.82-.55,1.61-.65,2.47-.02.2.11.37.01.54Z"/>
  <path d="m148.4,103.77c.28.04.68-.17.75.33-.61.57-2.04.63-2.99-.03.15-.2.36-.28.59-.3.55.2,1.1.23,1.64,0h.01Z"/>
  <path d="m131.14,1.92c-.35.28-.65.36-1.1.08-.37-.23-.88-.26-1.32-.38-.41-.11-.8-.25-.9-.73,1.12.29,2.28.47,3.32,1.04h0Z"/>
  <path d="m96.95,100.52c-.02.37-.04.73-.05,1.1-.44-.7-1.14-.74-1.86-.71.15-.28.35-.55.31-.9.59-.01,1.12.18,1.6.5h0Z"/>
  <path d="m177.78,90.45c.65-.93,1.14-1.82,1.28-2.86.35,1.25-.23,2.64-1.28,2.86Z"/>
  <path d="m116.37,1c0,.24,0,.48-.26.59-.61.27-1.26.4-1.92.49-.22.03-.32-.12-.34-.33.78-.44,1.66-.57,2.52-.76h0Z"/>
  <path d="m7.55,83.47c.02.18.04.35.06.53-.28.13-.49.39-.82.43-.74-.1-1.47-.39-2.24-.2v-.37c1.01-.02,2.02-.03,2.99-.39h0Z"/>
  <path d="m150.36,62.69c-.17.11-.28.25-.3.45-.68-.15-1.17-.65-1.79-.93-.11-.05-.25-.12-.22-.28.05-.22.24-.18.38-.15.72.14,1.41.33,1.92.91h0Z"/>
  <path d="m81.54,62.95c.33-.02.38-.31.51-.52.43.36.86.72,1.29,1.09.07.06.12.15.2.24-.79.1-1.2-.08-1.99-.81h-.01Z"/>
  <path d="m103.25,78.59c-.49-.41-.72-1.02-1.16-1.48.85-.19,1.25.15,1.22,1.02,0,.15-.04.3-.06.46Z"/>
  <path d="m111.81,115.01v-.73c.69-.02,1.3-.31,1.91-.59,0,.18,0,.36,0,.54-.55.46-1.12.85-1.89.77h-.01Z"/>
  <path d="m29.17,66.69c.05-.25.1-.5.15-.75.75-.07,1.37.36,2.29.52-.96.13-1.69.34-2.45.22h0Z"/>
  <path d="m165.57,89.53h-.73c.18-.68.34-1.37.45-2.1.41.66.35,1.38.28,2.1Z"/>
  <path d="m7.83,66.1c-.06.5-.65.11-.79.47-.73-.02-1.45-.04-2.18-.06v-.27c.99-.03,1.98-.23,2.98-.14h0Z"/>
  <path d="m185.22,41.73c-.23.71-1.52,1.18-2.38.87.71-.51,1.55-.68,2.38-.87Z"/>
  <path d="m133.68,62.79c.84.09,1.29.65,1.32,1.67-.58-.45-1.25-.83-1.32-1.67Z"/>
  <path d="m61.51,42.43c-.82.31-2.01-.09-2.23-.75.76.2,1.57.26,2.23.75Z"/>
  <path d="m164.13,79.35h.35c.13.25.28.49.37.75.08.23,0,.51-.26.56-.23.04-.34-.2-.37-.4-.05-.3.05-.62-.09-.91h0Z"/>
  <path d="m151.53,61.77c.17-.09.4-.1.43-.36.48-.03.84.26,1.23.49-.57.13-1.14.37-1.67-.13h.01Z"/>
  <path d="m31.37,84.26v.39c-.49,0-1,.14-1.56-.17.56-.23,1.06-.19,1.56-.22Z"/>
  <path d="m12.84,91.02c0,.24,0,.47.02.71-.47.07-.93.06-1.59-.1.6-.31,1.16-.29,1.57-.6h0Z"/>
  <path d="m102.66,81.27c.29.02.38-.32.64-.34.07.37.18.75-.08,1.15-.29-.21-.47-.47-.56-.81Z"/>
  <path d="m6.79,84.43c.33-.04.54-.3.82-.43.16.39.15.78.04,1.18-.29-.25-.58-.5-.87-.75h0Z"/>
  <path d="m78.25,63.43c-.13.25-.3.29-.57.17-.39-.18-.38-.5-.36-.84.31.22.62.45.93.67Z"/>
  <path d="m95.82,62.47c-.05-.11-.11-.22-.16-.33.25-.51.65-.29,1.14-.27-.31.38-.66.46-.97.6h0Z"/>
  <path d="m134.56,107.99c.29-.27.55-.03.58.16.07.41.39.77.27,1.21-.46-.35-.31-1.07-.85-1.38h0Z"/>
  <path d="m51.44,47.33c-.3.48-.71.65-1.25.45.41-.17.73-.59,1.25-.45Z"/>
  <path d="m160.84,85.75c.17,0,.31.05.4.21-.08.34.2.77-.26,1.03-.13-.28-.08-.56-.09-.84,0-.1-.02-.2-.03-.31-.02-.03-.03-.06-.02-.09Z"/>
  <path d="m177.21,91.37c-.1-.09-.2-.17-.3-.26.27-.11.48-.37.89-.34-.08.35-.27.53-.59.6Z"/>
  <path d="m4.86,66.23v.27c-.5.05-1,.06-1.66-.06.64-.2,1.15-.19,1.66-.21Z"/>
  <path d="m8.42,82.04c-.08-.05-.16-.11-.25-.16.02-.3-.19-.66.25-.9.07.38.09.72,0,1.06Z"/>
  <path d="m2.67,101.33v.02c-.19.22-.44.03-.55.06.11-.02.34-.05.56-.08h-.01Z"/>
  <path d="m136.23,108.15c-.33-.09-.38-.36-.41-.63.29.11.38.36.41.63Z"/>
  <path d="m130.48,110.8c-.12.17-.25.13-.37,0-.1-.12-.08-.23.06-.31.16.05.25.17.31.32h0Z"/>
  <path d="m149.96,86.08h-.32c0-.16-.08-.4.15-.4s.18.23.17.39h0Z"/>
  <path d="m159.02,67.3c.05-.22.12-.37.33-.1-.07.16-.2.13-.33.1Z"/>
  <path d="m135.82,107.52c-.22,0-.32-.11-.31-.32.17.05.27.15.31.32Z"/>
  <path d="m78.12,34.84c-.03-.24.06-.37.31-.36-.04.17-.16.29-.31.36Z"/>
  <path d="m136.91,101.28c-.21.21-.27.07-.31-.13.1.04.21.09.31.13Z"/>
  <path d="m149.03,61.28c.25-.08.4,0,.43.26-.23.06-.36-.06-.43-.26Z"/>
  <path d="m50.39,78.12c.15.15.15.3,0,.45v-.45Z"/>
  <path d="m137.09,59.65c.11,0,.22.02.33.02-.12.12-.24.29-.33-.02Z"/>
  <path d="m33.87,76.75c-.05.07-.1.07-.15,0,.05-.03.1-.03.15,0Z"/>
  <path d="m3.25,101.44h.25c-.08.07-.17.08-.25,0Z"/>
  <path d="m160.86,85.84c0,.1.02.2.03.31-.06-.1-.14-.19-.03-.31Z"/>
  <path d="m139.76,86.09s.04.07.05.11c0,0-.03.03-.05.04v-.15Z"/>
  <path d="m221.45,90.47l-.13.15c-.02-.1.03-.15.13-.15Z"/>
  <path d="m139.77,86.72s.04.07.05.11l-.05.05v-.15h0Z"/>
  <path d="m3.83,101.45h.33c-.11.08-.22.09-.33,0Z"/>
  <path d="m4.45,101.46c.07,0,.15,0,.22.01-.08,0-.15,0-.22-.01Z"/>
  <path d="m231.66,78.43s.04.07.06.11c0,0-.03.03-.05.05v-.15h-.01Z"/>
  <path d="m114.5,91.78c.07-.01.14-.02.22-.03-.07.01-.14.02-.22.03Z"/>
  <path d="m6.43,101.52c.05-.07.1-.07.15,0l-.07.02-.07-.02h-.01Z"/>
  <path d="m5.8,101.51h.14l-.07.03-.07-.02h0Z"/>
  <path d="m189.92,76.74c-.05.07-.11.07-.15,0h.15Z"/>
  <path d="m94.25,101.09c.09-.03.17-.06.26-.09-.09.03-.17.06-.26.09Z"/>
  <path d="m139.76,88.75s.03.08.04.11c0,.01-.04.03-.05.04,0-.05,0-.1.02-.15h0Z"/>
  <path d="m5.18,101.49h.13l-.07.03-.07-.03h0Z"/>
  <path d="m116.61,31.2c-.4.63-.08,1.08.06,1.52.45,1.44,1.27,2.54,2.84,2.93.26.07.8-.02.73.38-.08.45-.63.33-.94.26-2.05-.45-4.11-.19-6.17-.27-1.04-.04-2.08.05-3.11.23-.41.07-.84.13-1.17-.38.65-.18,1.27-.34,1.87-.55,1.31-.47,1.8-1.58,1.87-2.74.36-5.59.12-11.18.17-16.78,0-.96-.12-1.88-.53-2.79-.54-1.2-1.49-1.56-2.66-1.69-.25-.03-.68.14-.71-.26-.02-.46.42-.36.71-.36,3.89,0,7.8-.18,11.68.07,1.93.12,3.67-.52,5.52-.63,1.81-.11,3.48.16,5.14.8.85.33,1.7.69,2.65.53.27-.05.48-.17.68-.36.16-.15.34-.39.59-.27.22.1.14.37.13.57-.12,2.04.03,4.06.16,6.09,0,.21,0,.42,0,.63,0,.25-.07.5-.36.52s-.38-.22-.44-.46c-.27-1.23-.72-2.4-1.34-3.49-1.2-2.1-2.77-3.7-5.38-3.86-.1,0-.21-.02-.3-.06-.59-.25-.78-.02-.81.58-.08,1.29.3,2.5.53,3.74.05.28.09.57.08.85,0,.22.11.53-.19.61-.33.09-.52-.17-.68-.42-.07-.11-.13-.24-.15-.36-.19-1.47-1.25-2.37-2.23-3.29-.65-.62-1.01-.49-1.64.14-1.39,1.39-2.4,3-3.1,4.82-.19.48-.28.98-.34,1.48-.08.65-.16,1.29-.45,1.89-.12.25-.26.52-.04.8.26.34.53.07.77-.01,1.71-.54,3.13-2.12,2.92-3.83-.05-.39.05-.8.53-.77.54.02.34.5.33.8-.08,2.1-.42,4.19-.29,6.31.08,1.25.23,2.49.12,3.74-.02.23.14.61-.26.62-.37,0-.41-.36-.4-.65.04-.82-.18-1.59-.39-2.38-.4-1.49-1.59-2.13-2.85-2.67-.51-.22-.93.18-.72.7.26.63.18,1.27.26,1.91.17,1.48.38,2.96.89,4.37,1.1,3,3.3,4.9,6.31,5.73,2.07.57,4.09.14,5.95-1.02.79-.49,1.42-1.11,2.02-1.79.69-.78.49-1.84.94-2.69.15-.27.23-.58.36-.86.08-.19.24-.27.45-.24.24.04.27.22.27.41,0,.23.06.49-.02.7-.52,1.46-.93,2.93-2.17,4.04-3.45,3.1-7.31,3.16-11.5,1.93-1.41-.41-2.51-1.2-3.69-1.94-.71-.45-1.19-1.15-1.72-1.8-.26-.32-.5-.65-.82-1.06l.04.03Zm2.48-19.86v-.02c-.52,0-1.05.05-1.56-.01-.75-.08-.95.27-.97.94-.02,1.06.14,2.12-.15,3.17-.05.2-.17.56.16.68s.52-.13.66-.41c.87-1.73,2.29-2.89,3.97-3.78.15-.08.26-.19.26-.36,0-.3-.26-.2-.41-.2-.65-.01-1.3,0-1.96,0h0Z"/>
</svg>